<svg xmlns="http://www.w3.org/2000/svg" viewBox="0 0 1500 1500"><defs><style>.cls-1{fill:#fce7d8;}.cls-2{fill:#a0c36b;}.cls-3,.cls-5{fill:#f0883c;}.cls-4{fill:#ffde2d;}.cls-5{font-size:89.73px;font-family:Raleway-Black, Raleway;font-weight:800;}.cls-6{letter-spacing:-0.02em;}.cls-7{letter-spacing:-0.03em;}.cls-8{letter-spacing:-0.02em;}.cls-9{letter-spacing:-0.03em;}.cls-10{letter-spacing:-0.02em;}</style></defs><g id="klimaat"><rect class="cls-1" x="2.28" y="2.28" width="1495.43" height="1495.43"/><path class="cls-2" d="M490.85,1153,515,1079.3c1.92-5.76,5.2-8.23,10.41-8.23,6,0,11.79,3.57,11.79,11a15.88,15.88,0,0,1-1.1,4.93L502.37,1187c-1.65,4.67-4.94,7.41-10.7,7.41s-9.32-3-11-7.68l-28-75.93-27.69,75.93c-1.65,4.39-4.94,7.68-11,7.68s-9.59-3-10.69-7.41L369.68,1087a15.86,15.86,0,0,1-1.09-4.93c0-7.4,5.75-11,11.78-11,5.21,0,8.5,2.47,10.42,8.23L414.92,1153l27.41-74.29c1.64-4.66,4.66-7.68,10.42-7.68s8.77,3,10.41,7.68Z"/><path class="cls-2" d="M679.46,1181.55c0,7.13-4.94,12.89-12.89,12.89-7.68,0-12.61-5.76-12.61-12.89v-6c-7.68,11.51-22.21,20-40,20-38.38,0-60.59-28-60.59-62.77,0-34.27,24.67-62.78,63.33-62.78,39.47,0,62.78,25.77,62.78,62.78Zm-63.06-89.64c-21.93,0-37.28,18.36-37.28,40.85,0,23.57,12.88,40.84,37.28,40.84,22.76,0,37.29-19.46,37.29-40.84C653.69,1107.54,638.33,1091.91,616.4,1091.91Z"/><path class="cls-2" d="M729.07,1194.44a12.54,12.54,0,0,1-12.88-12.89V1020.36a12.89,12.89,0,1,1,25.77,0v98.41l57.57-45a12.66,12.66,0,0,1,8-2.75c6.85,0,11.79,4.94,11.79,11.25,0,4.11-2.47,7.12-6,9.87l-37,28.78,42.22,54.28a11.65,11.65,0,0,1,2.74,7.4c0,6.3-4.38,11.79-12.34,11.79-3.83,0-6.58-1.92-8.77-4.94l-42.21-54.28L742,1148.11v33.44A12.54,12.54,0,0,1,729.07,1194.44Z"/><path class="cls-2" d="M869.7,1022.28a15.08,15.08,0,1,1-15.08,15.08A15.21,15.21,0,0,1,869.7,1022.28Zm0,172.16a12.53,12.53,0,0,1-12.88-12.89V1084a12.89,12.89,0,1,1,25.77,0v97.59A12.54,12.54,0,0,1,869.7,1194.44Z"/><path class="cls-2" d="M998.54,1195.53c-18.37,0-34.81-9.32-43-23.57v9.32c0,7.13-4.66,13.16-12.61,13.16s-12.34-5.76-12.34-12.89V1020.36a12.89,12.89,0,0,1,25.78,0v73.19A49.28,49.28,0,0,1,998.54,1070c31.53,0,57.3,24.94,57.3,62.78C1055.84,1169.22,1030.07,1195.53,998.54,1195.53Zm-5.21-104.17c-22.2,0-37,19.47-37,41.4s14.8,41.39,37,41.39,36.74-16.72,36.74-41.39S1015.54,1091.36,993.33,1091.36Z"/><path class="cls-2" d="M1106.28,1022.28a15.08,15.08,0,1,1-15.08,15.08A15.21,15.21,0,0,1,1106.28,1022.28Zm0,172.16a12.54,12.54,0,0,1-12.89-12.89V1084a12.89,12.89,0,1,1,25.77,0v97.59A12.54,12.54,0,0,1,1106.28,1194.44Z"/><path class="cls-3" d="M618.06,693.53a295,295,0,0,1,.38-186.7c2.41.86,1.88.66-.8-.28a97.65,97.65,0,0,0-32.5-5.49,99.69,99.69,0,1,0,0,199.37,83,83,0,0,0,30.52-5.92C618.06,693.53,618.91,693.23,618.06,693.53Z"/><path class="cls-3" d="M639.89,743.45a137.89,137.89,0,0,1-54.75,11.24c-84.89,0-153.95-69.06-153.95-154s69.06-153.94,154-153.94A151.76,151.76,0,0,1,640.49,457,296.52,296.52,0,0,1,751.84,344.54a294.63,294.63,0,0,0-148.76-40.07c-163.63,0-296.28,132.64-296.28,296.27S439.45,897,603.08,897A294.57,294.57,0,0,0,751.83,857,296.49,296.49,0,0,1,639.89,743.45Z"/><path class="cls-4" d="M898.14,305.69a293.29,293.29,0,0,0-141.51,36.15c-1.1.6-2.18,1.2-3.26,1.81l-1.54.91A297.82,297.82,0,0,1,862.12,457a141.74,141.74,0,0,1,52.75-10.16c84.89,0,154,69.06,154,153.94s-69.07,154-154,154a150.9,150.9,0,0,1-53.7-9.63l.53.22A297.85,297.85,0,0,1,751.85,857l1.37.82a293.41,293.41,0,0,0,144.92,38c163,0,295.06-132.09,295.06-295.06S1061.11,305.69,898.14,305.69Z"/><path class="cls-4" d="M914.87,501.06a86.53,86.53,0,0,0-27.9,4.69l-2.87,1.06a296.94,296.94,0,0,1-.24,188.59,97.23,97.23,0,0,0,31,5,99.69,99.69,0,1,0,0-199.37Z"/><path class="cls-2" d="M750.19,554c31.54-40.37,67-79.26,111.93-97.08a297.82,297.82,0,0,0-110.29-112.4A296.65,296.65,0,0,0,640.49,457C686.62,474.81,720.56,513.64,750.19,554Z"/><path class="cls-2" d="M748.72,645.64c-31.91,41.21-66,79.53-108.83,97.82A296.6,296.6,0,0,0,751.85,857,297.85,297.85,0,0,0,861.7,745.28C814.05,727.57,779.18,687.34,748.72,645.64Z"/><path class="cls-2" d="M783,600.36c30.39,42.93,60.69,81.6,100.87,95a296.94,296.94,0,0,0,.24-188.59C846.1,521,813.88,559.73,783,600.36Z"/><path class="cls-2" d="M715.9,599.26c-29.34-41.37-58.72-78.57-97.49-92.44A295.65,295.65,0,0,0,618,693.55C653.7,678.52,684.48,640.76,715.9,599.26Z"/><text class="cls-5" transform="translate(248.21 241.21)"><tspan class="cls-6">v</tspan><tspan x="48.9" y="0">erschillend</tspan><tspan class="cls-7" x="552.7" y="0"> </tspan><tspan class="cls-8" x="570.47" y="0">w</tspan><tspan x="646.11" y="0">erk</tspan><tspan class="cls-9" x="790.29" y="0"> </tspan><tspan class="cls-6" x="808.15" y="0">v</tspan><tspan x="857.05" y="0">oo</tspan><tspan class="cls-10" x="967.23" y="0">r</tspan></text></g></svg>