<svg xmlns="http://www.w3.org/2000/svg" viewBox="0 0 1500 1500"><defs><style>.cls-1{fill:#bacfe4;}.cls-2{fill:#e8eff6;}.cls-3{fill:#d2dfed;}.cls-4{fill:#a3c1db;}.cls-5{fill:#8dafd2;}.cls-6{fill:#66785b;}.cls-7{fill:#405632;}.cls-8{fill:#05529d;}.cls-9{fill:#8db573;}.cls-10{fill:#71a350;}.cls-11,.cls-18{fill:#08529c;}.cls-12{fill:#d91b82;}.cls-13{fill:#6090c0;}.cls-14{fill:#7f3d03;}.cls-15{fill:#d4e5f6;}.cls-16{fill:#1a1a1a;}.cls-17{fill:#cddceb;}.cls-18{font-size:90px;font-family:Raleway-Black, Raleway;font-weight:800;}.cls-19{letter-spacing:-0.02em;}.cls-20{letter-spacing:-0.01em;}.cls-21{letter-spacing:-0.01em;}.cls-22{letter-spacing:-0.03em;}.cls-23{letter-spacing:-0.01em;}.cls-24{letter-spacing:0em;}</style></defs><g id="klimaat"><rect class="cls-1" width="1500" height="1500"/><path class="cls-2" d="M1165.46,911.38h98c-1-13.56-11.5-24.21-24.28-24.21a22.51,22.51,0,0,0-6.27.88c-4.18-8-12.11-13.36-21.19-13.36a23.13,23.13,0,0,0-15.35,5.9,22.76,22.76,0,0,0-7.3-1.2c-13.46,0-24.37,11.81-24.37,26.38A22.08,22.08,0,0,0,1165.46,911.38Z"/><path class="cls-3" d="M1165.45,911.38H1262a24.13,24.13,0,0,0-23.91-22.33,23.73,23.73,0,0,0-6.17.81,23.8,23.8,0,0,0-36-6.87,23.72,23.72,0,0,0-7.19-1.11,24.16,24.16,0,0,0-24,24.32A19.23,19.23,0,0,0,1165.45,911.38Z"/><path class="cls-2" d="M1500,853.07V893H1394.26c1.32-17.58,14.91-31.38,31.47-31.38a29.18,29.18,0,0,1,8.12,1.14c5.43-10.34,15.69-17.31,27.46-17.31a30,30,0,0,1,19.9,7.64,29.52,29.52,0,0,1,9.47-1.56A29.22,29.22,0,0,1,1500,853.07Z"/><path class="cls-3" d="M1500,856.09V893H1396.21a31.06,31.06,0,0,1,39-27.88,30.86,30.86,0,0,1,46.64-8.91,30.8,30.8,0,0,1,18.16-.14Z"/><path class="cls-4" d="M1495.75,960.62l-2.4,1.66-15.58,10.78-16.22-10.78-2.5-1.66-26.38-17.53-2-1.35-34.53-22.94-31.84,22-7.19,4.92-47.57-31.61-28,19.36-19.08-12.68-.7-.47-.94-.62-.88.6-1.12.77-16.89,11.69L1218.18,917l-2.2-1.46h0l-25.19-16.75-30.37,21-1.46,1-58.12,39.79-2.38,1.63-2.45-1.63-62.93-41.82-31.83,22-26.72,18.29-103-86.59-.12-.1-17.91-15-.07,0-.05,0-21.85,15-.16.11L785,904.51l-45.5-30.24-14.47,10-3.58,2.47-11,7.61-2.77,1.93-.79.54-13.51,9.25-3.58,2.45L676,918l-3.6,2.47-14.3,9.79-3.58,2.45-3.55,2.43-8.52-5.67-13.68-9.08-45.28-30.1-31.83,22L536,923l-26-17.3-29.64,20.51-50.65-42.59-.89-.74L412,868.69l-8.24,5.66-.47.32-59.86,41.15-45.5-30.24-31.83,22-48.37,33.11-42.27-35.54-49-41.19L66.56,905.18,0,950.91v75.21H183l-2.31,1.58-4.52,3.12H735.51l-21.65-9.51-4.12-1.8H886.31l-1.23.84-1.41,1-11.92,8.16-3.57,2.44-8.52,5.84h229.09l-1.34.92H1382l-.46.32-1.21.82-2.9,2,0,0-6.5,4.44-2,1.4h0l-35,23.94h166.1V957.72ZM410,1009.23l.58-.4.9.4Z"/><path class="cls-5" d="M1499,962.28l-21.26,14.2-22.14-14.2-2.59-1.66-25.11-16.1-1.85-1.19-30-19.22-31.84,21.26-7.19,4.75-47.57-30.51-28,18.68-18.36-11.79-.23-.14-2.13-1.36-1.66,1.1-.46.31-16.77,11.2-27.74-17.79-23.41-15-22.48,15-9.35,6.25-52.29,34.55-8.21,5.43-8.45-5.43-56.93-36.51-31.83,21.26-23.09,15.25-3.63,2.4-3-2.4L867.89,876.49l-.89-.73-13.48-10.94-14.84,9.84-.87.58L785,910.31l-45.5-29.19-10.09,6.74-3.63,2.43-11.25,7.51-3.62,2.42-3.24,2.17-10.49,6.92-3.63,2.41-14,9.25-3.67,2.42L661.33,933l-3.64,2.41-6.77,4.47-11.68-7.49-14.08-9-41.72-26.76-31.83,21.26L536,928.13l-26-16.71-29.64,19.8-45.43-36.87-.84-.69L412,875.73l-19.22,12.76-.57.37-48.78,32.37L297.93,892,266.1,913.3l-48.37,32-49.38-40.08-41.87-34-51.21,34L0,955.11v72.59H183l-4.7,3.12-2.13,1.41H735.51l-3.34-1.41-22.43-9.51H886.31l0,0-13.56,9-3.63,2.39-7.66,5.07-1.78,1.18h229.09l-1.34.88H1382l-.46.31-2.47,1.64h0l-1.66,1.09-5.11,3.38-2.12,1.39,0,0-36.24,23.94h166.1V961.68ZM411.51,1011.39H410l.58-.37Z"/><path class="cls-2" d="M1500,937.81v14.47h-72.5c0-.54,0-1.07,0-1.6A20.55,20.55,0,0,1,1437.92,934a17.71,17.71,0,0,1,3.83-1.53,17.46,17.46,0,0,1,4.59-.61,17.71,17.71,0,0,1,9.42,2.72,17.69,17.69,0,0,1,20.76,1.39,17.72,17.72,0,0,1,10.68-3.61A18,18,0,0,1,1500,937.81Z"/><path class="cls-3" d="M1500,938.78v13.5h-71.19c0-.54,0-1.07.07-1.6a18.9,18.9,0,0,1,10.59-15.52,17.64,17.64,0,0,1,4-1.36,17.9,17.9,0,0,1,3.89-.43,18.23,18.23,0,0,1,9.26,2.53,18.22,18.22,0,0,1,20.41,1.28,18.22,18.22,0,0,1,23,1.6Z"/><polygon class="cls-2" points="1260.77 919.72 1253.28 924.92 1258.35 926.06 1261.07 929.41 1263.79 925.57 1271.08 926.61 1260.77 919.72"/><polygon class="cls-3" points="1260.97 920.41 1254.56 924.87 1258.9 925.85 1261.22 928.71 1263.56 925.42 1269.8 926.32 1260.97 920.41"/><polygon class="cls-2" points="853.4 856.52 831.23 872.6 847.15 879.15 853.4 875.51 859.75 880.7 872.84 873.82 853.4 856.52"/><polygon class="cls-3" points="853.3 857.42 832.79 872.3 847.52 878.36 853.3 875 859.18 879.79 871.29 873.43 853.3 857.42"/><polygon class="cls-2" points="411.75 868.61 384.01 887.94 400.39 889.83 407.52 896.24 417.33 898.87 425.7 898.87 428.58 895.33 441.01 893.34 411.75 868.61"/><polygon class="cls-3" points="411.8 869.49 385.68 887.69 401.09 889.48 407.81 895.51 417.05 897.99 424.93 897.99 427.64 894.65 439.34 892.78 411.8 869.49"/><path class="cls-6" d="M1499.94,969.15v116.41H0V967.3c4.11,1.15,14.72,4.2,26.83,8.31C37,979.08,51.77,978,60.72,976.85a31.21,31.21,0,0,0,13.83-5.26c3.85-2.67,9.14-6.44,14.59-10.68l.38-.29c10.69-7.84,30.35-3.81,47.58-3.23,17.44.59,34.26-18.23,45.47-15.29s11.21,11.17,24.91,12.34,11.28-11.93,19.94-12.93,24.27-8.17,64.86,2.22c2.41.61,4.79,1.3,7.16,2,6.13,1.91,23.61,6.91,38.22,6.91,15.73,0,29.56,4.46,36.58,7.94,1,.52,1.93,1,2.66,1.47,5.61,3.53,17.44,8.23,28,8.23s38,.59,48,7.64c7.91,5.61,35.12,4.91,46,4.38,2.45-.12,4.9-.2,7.36-.2,6.26,0,22.57-.8,47-7.11a140.81,140.81,0,0,1,14-2.77c10.11-1.53,21.68-2.54,32.95-3.19,2.83-.16,5.64-.3,8.4-.42,2.13-.09,4.23-.18,6.29-.25,7.85-.27,15.14-.4,21.14-.46h2.19c1.46,0,2.93,0,4.4.05a139.55,139.55,0,0,1,19.88,1.94c3.12.54,6.86,1.13,11.08,1.71,2.41.34,5,.67,7.67,1,7.3.85,15.55,1.58,24.23,1.93,2.23.09,4.48.16,6.76.19a218.4,218.4,0,0,0,24.33-.89c1.93-.19,3.85-.4,5.77-.66a126.66,126.66,0,0,0,19.85-4.12c1.15-.34,2.29-.71,3.42-1.09l1.26-.42A173.83,173.83,0,0,1,786,962.34q2.67-.57,5.27-1c1.36-.25,2.72-.47,4-.68,5.44-.86,10.6-1.42,15.4-1.76,1.26-.09,2.48-.16,3.68-.22.85,0,1.69-.08,2.53-.1a131.22,131.22,0,0,1,27.22,2.08q5.94,1.08,11.78,2.66c10.39,2.81,28.31,5.52,44.22-2.66l.58-.3c10.78-5.74,30.89-3.72,49.92.3a374.83,374.83,0,0,1,40.53,11.31q6.87,2.34,14,4.09c19.2,4.76,66.28,15.54,91.17,13.7,31.77-2.35,48.58,6.47,67.26,9.41s106.52-2.94,131.43-14.7c20.59-9.71,37.77-16.22,62.79-7.24a114.58,114.58,0,0,1,16.94,7.83q2.12,1.17,4.29,2.16c26.52,12,60,4,74.22-.41,3.07-1,6.08-2.09,9-3.34,3.63-1.53,11.15-4.29,18.34-4.29C1490.6,979.14,1499.94,969.15,1499.94,969.15Z"/><path class="cls-7" d="M1499.94,974.37v111.19H0v-113c4.11,1.1,14.72,4,26.83,7.94,10.19,3.31,24.92,2.29,33.87,1.19a32.14,32.14,0,0,0,13.83-5c3.85-2.54,9.14-6.14,14.59-10.19,10.59-7.87,30.52-3.94,48-3.38a33.91,33.91,0,0,0,13.08-2.51c12.54-4.71,24-14.18,32.39-12.08,11.21,2.8,11.21,10.67,24.91,11.79s11.28-11.4,19.94-12.36,24.27-7.79,64.86,2.12c2.41.59,4.79,1.25,7.16,1.95,6.13,1.82,23.61,6.6,38.22,6.6a94.52,94.52,0,0,1,19,2c9.4,2,16.74,4.92,20.23,7,5.61,3.37,17.44,7.86,28,7.86s38,.56,48,7.3c7.91,5.36,35.12,4.69,46,4.18q3.67-.18,7.36-.19c6.26,0,22.57-.76,47-6.8,2-.49,4.16-1,6.43-1.38a301.42,301.42,0,0,1,34.48-3.93c6.92-.46,13.84-.77,20.37-1l6.36-.19c6.51-.17,12.45-.24,17.37-.27,1.37,0,2.75,0,4.12,0,2.32,0,4.62.15,6.93.32,4.43.31,8.85.82,13.23,1.54,4.78.78,11,1.7,18.18,2.51,2.38.26,4.85.52,7.41.75,7.3.67,15.3,1.18,23.57,1.32q3.25.06,6.56,0a209.59,209.59,0,0,0,23.63-1.43c1.88-.23,3.76-.5,5.61-.79a119.62,119.62,0,0,0,18.15-4.25l1.1-.36q2.4-.76,4.77-1.45a184.38,184.38,0,0,1,20-4.58c1.85-.33,3.68-.61,5.48-.86,6.26-.89,12.13-1.41,17.5-1.67,1,0,1.94-.08,2.91-.1,2.2-.06,4.39-.06,6.59,0a141.17,141.17,0,0,1,32,4.53c10.52,2.72,28.75,5.35,44.8-2.81C921,955.66,974,971.45,991.19,977q6.87,2.24,14,3.91c19.2,4.55,66.28,14.85,91.17,13.09,31.77-2.25,48.58,6.18,67.26,9s106.52-2.81,131.43-14c19.17-8.64,35.39-14.62,57.75-8.48a108.18,108.18,0,0,1,22,9q2.12,1.13,4.29,2.06c26.52,11.48,60,3.8,74.22-.39,3.07-.91,6.08-2,9-3.18,3.63-1.47,11.15-4.1,18.34-4.1C1490.6,983.92,1499.94,974.37,1499.94,974.37Z"/><rect class="cls-8" y="1085.56" width="1500" height="414.44"/><path class="cls-3" d="M766.28,1024.15l-9.09-8.72-2-1.93h-6l2,1.93L763,1026.76l.86.83,3.38-2.56Zm0,0-9.09-8.72-2-1.93h-6l2,1.93L763,1026.76l.86.83,3.38-2.56Zm0,0-9.09-8.72-2-1.93h-6l2,1.93L763,1026.76l.86.83,3.38-2.56Zm0,0-9.09-8.72-2-1.93h-6l2,1.93L763,1026.76l.86.83,3.38-2.56Zm0,0-9.09-8.72-2-1.93h-6l2,1.93L763,1026.76l.86.83,3.38-2.56Zm0,0-9.09-8.72-2-1.93h-6l2,1.93L763,1026.76l.86.83,3.38-2.56Zm0,0-9.09-8.72-2-1.93h-6l2,1.93L763,1026.76l.86.83,3.38-2.56Zm0,0-9.09-8.72-2-1.93h-6l2,1.93L763,1026.76l.86.83,3.38-2.56Zm0,0-9.09-8.72-2-1.93h-6l2,1.93L763,1026.76l.86.83,3.38-2.56Zm0,0-9.09-8.72-2-1.93h-6l2,1.93L763,1026.76l.86.83,3.38-2.56Zm0,0-9.09-8.72-2-1.93h-6l2,1.93L763,1026.76l.86.83,3.38-2.56Zm179.57,66.5-.12-.25a7,7,0,0,0-4.9-3.87l-.39-.07-1.14-.16h-.07l-2.27-.23c-3.74-.35-9.14-.7-15.46-1l-2.78-.14h-.07c-.61,0-1.2-.06-1.82-.09-3.85-.19-7.94-.37-12.14-.55h0l-2.85-.12c-16-.65-33.15-1.2-44-1.53l-51.68-48.34-1.35-1.25-24.1-22.55-60-56.08-4.11-3.85-2.39-2.23-80.8-75.58-4.09-3.82-16.66-15.59,6.05-6.38c4.41-11.59-7.6-7.94-7.6-7.94l-71.62,68.49-3.32,3.17-41.7,39.88-13,12.44-7.09,6.78-42.58,40.71L416,1025.59l-1.58,1.52-12,11.43c-33.35,29.92-75.42,42.2-117.9,43.25l-37.15.91a8.49,8.49,0,0,0-4.52,1.43,9.21,9.21,0,0,0-2.39,2.27,10.09,10.09,0,0,0-2,6.58,9.5,9.5,0,0,0,.28,1.88,20.58,20.58,0,0,0,1.13,3.28,5,5,0,0,0,4.84,3.18l22.43-.82,24.29-.89,96.15-3.53.2,21.43.06,6.5,0,4.09h37.91l-.75-33.54,117.39-2.89v36.43h27.22v-37.87l.48,0c85.12-3.63,224.63,3.86,306.56,8.12l6,.31.06,4.16.4,25.3h33l-1-27.67c11,.66,19.23,1.18,23.66,1.5a7.48,7.48,0,0,0,7.67-6.68A8,8,0,0,0,945.85,1090.65ZM468,1077.31c-62.51,2.48-41.92-26.76-41.92-26.76l5.55-5.86Zm-33-36.22L446.43,1029l49.63,47c-6.85.26-13.88.6-21,1Zm72.94-15.5L492,1010.46l-14.74-14,11.14-11.75,26.13,25.77,15.33,15.13,1.54,1.52,47.74,47.1c-5.48,0-12.17.08-19.87.18l-49.75-47.28Zm54.36,1.52,49.13,47.1c-10.37,0-16.43,0-16.43,0s-3.48,0-9.79,0l-47.7-47.07-1.53-1.52-15.33-15.13-29.29-28.9,11.14-11.8,42.44,40.7,15.78,15.13Zm47.5-170.72L626,871.54l4,3.77,78.41,73.33,2,1.89,4.13,3.85,60,56.08,3.25,3,1,.9,1.11,1h0L798.62,1033l1.35,1.25,51.49,48.16c-1.41-.05-2.59-.11-3.41-.13-5.37-.2-10.69-.54-16.07-1.09-2.23-.24-4.55-.43-6.9-.64l-48.26-46.3-1.31-1.25-8.32-8-.91-.88-9.09-8.72-2-1.93-3.16-3-56.48-54.18-5.23-5-.76-.72-70-67.18-3.81-3.67L601,865.59Zm-11.64,12.29,14.23,13.64,3.77,3.61,67.33,64.6,1.92,1.83,5,4.84L746,1010.46l3.16,3,2,1.93L763,1026.76l.86.83,5.65,5.42,1.31,1.25L818.45,1080c-8.46-.68-17.51-1.31-27-1.79l-64.71-62.79-2-1.93-3.12-3L671.8,962.1l-4.29-4.17-7.64-7.4-56.55-54.87-3.56-3.45-12.45-12.08ZM584.4,883.16l12,11.67,3.5,3.4,53.91,52.3,9.3,9,4.22,4.1,48.27,46.81,3.13,3,2,1.93,64.33,62.4c-7.72-.41-15.66-.77-23.73-1.07l-63.45-61.33-2-1.93-3.14-3-43.34-41.88L644.64,964l-13.9-13.43-43.87-42.41-3.31-3.19-10.3-10Zm-14,14.88,9.85,9.52,3.25,3.15,41.19,39.82,14.63,14.14,4.91,4.75,42.46,41,3.14,3,2,1.93,63.21,61.1c-7.71-.32-15.5-.56-23.3-.78l-63-60.32-2-1.93-3.17-3L622.17,971l-5.58-5.34-15.77-15.08L569.92,921,566.85,918l-8.09-7.75ZM552.24,917.2l3.64-3.84,7.63,7.3,3,2.88,28.23,27,15.55,14.88,5.76,5.51,41.33,39.54,3.18,3,2,1.93,62.86,60.13c-7.48-.16-14.88-.35-22.2-.47l-61.68-59.66-2-1.93-3.13-3-42.34-41-6.37-6.16-13.26-12.82-28.06-27.15,2.91-3.08Zm-8.76,9.26,24.89,24.07,12.19,11.77,6.61,6.4,43.21,41.76,3.14,3,2,1.93L697.09,1075c-8.54-.14-16.84-.27-24.82-.37L623,1027.11l-1.57-1.52-15.7-15.13-47.84-46.09-6.19-6-8.17-7.86-12-11.53Zm-14.81,15.62,8.76,8.45,8.13,7.83,5.88,5.67,48.18,46.43,15.7,15.13,1.57,1.52L666,1074.47l-22.11-.16-48.27-47.2-1.55-1.52-15.47-15.13L531.4,964.28l-5.55-5.44-6.76-6.6,1.61-1.71Zm-16.51,17.48,4-4.2,3.84,3.75,5.49,5.37,47,46L588,1025.59l1.55,1.52,48.2,47.14c-7.48,0-14.24,0-20-.07l-49.09-47.07-1.57-1.52-15.78-15.13L505.5,966.6l1-1.05Zm-37.94,40.1,11.38,10.8,15.92,15.13,1.6,1.52L553,1074.46c-5.83.11-12.13.22-18.81.38l-52.8-47.73-1.67-1.52L463.51,1011l.49-.52Zm-24.12,25.93-.22-.2,10.53-11.11,12.51,11.31,1.68,1.52,53,47.9c-7.78.19-16,.43-24.52.77l-51.36-48.67Zm316.18-1.44-9.09-8.72-2-1.93h-6l2,1.93L763,1026.76l.86.83,3.38-2.56Zm0,0-9.09-8.72-2-1.93h-6l2,1.93L763,1026.76l.86.83,3.38-2.56Zm0,0-9.09-8.72-2-1.93h-6l2,1.93L763,1026.76l.86.83,3.38-2.56Zm0,0-9.09-8.72-2-1.93h-6l2,1.93L763,1026.76l.86.83,3.38-2.56Zm0,0-9.09-8.72-2-1.93h-6l2,1.93L763,1026.76l.86.83,3.38-2.56Zm0,0-9.09-8.72-2-1.93h-6l2,1.93L763,1026.76l.86.83,3.38-2.56Zm0,0-9.09-8.72-2-1.93h-6l2,1.93L763,1026.76l.86.83,3.38-2.56Zm0,0-9.09-8.72-2-1.93h-6l2,1.93L763,1026.76l.86.83,3.38-2.56Zm0,0-9.09-8.72-2-1.93h-6l2,1.93L763,1026.76l.86.83,3.38-2.56Zm0,0-9.09-8.72-2-1.93h-6l2,1.93L763,1026.76l.86.83,3.38-2.56Z"/><path class="cls-9" d="M1245.4,1455.1H1245l-26.55-.72-47.6-1.29-186.39-5-705.23,5L0,1455.07V1035.33l1.07-.06c1.85-.11,4.25-.23,7.15-.36l1,0,5.28-.19c9.3-.31,21.81-.54,36.42-.33l2.66,0c18,.31,39,1.27,61,3.51,2.56.25,5.15.54,7.74.83a474.75,474.75,0,0,1,60.88,10.71l.19.06c6.83,1.71,13.56,3.61,20.12,5.72a239.27,239.27,0,0,1,31.66,12.53,342.32,342.32,0,0,1,31.35,17.41c70.48,44,116.39,105.93,158.72,131.49,48.29,29.18,108.27,54.34,140.21,54.34H771.81c44.4,0,102,3,144.88,10.06s87.24,56.34,123.85,63.39c32.34,6.22,167.36,26.57,198.46,85.3h0a57.32,57.32,0,0,1,3.74,8.78,52.2,52.2,0,0,1,2.6,14.07c0,.17,0,.33,0,.5C1245.39,1453.75,1245.4,1454.42,1245.4,1455.1Z"/><path class="cls-10" d="M1218.44,1454.37l-275,.73H0V1060.67c2.12-.11,5.23-.27,9.2-.42,1.62-.07,3.38-.13,5.28-.19,9.92-.31,23.49-.52,39.33-.24,1.06,0,2.13,0,3.22.07,7.92.16,16.34.47,25.13.94l3.85.22c1.67.09,3.34.2,5,.31q9.69.65,19.78,1.61c1.27.11,2.56.24,3.86.38,8.39.85,16.91,1.89,25.45,3.15,2.69.39,5.38.81,8.07,1.24l6.15,1c7.16,1.29,14.29,2.72,21.31,4.34q7.94,1.82,15.64,4c7.29,2,14.42,4.3,21.29,6.83l3.28,1.21c4.84,1.87,9.55,3.86,14.09,6,86.88,40.66,138.71,112.51,186,139.91s105.94,51.06,137.19,51.06h202c43.44,0,99.84,2.84,141.76,9.46s85.37,52.94,121.17,59.55c35.5,6.55,197.45,29.84,200.4,102C1218.43,1453.5,1218.44,1453.94,1218.44,1454.37Z"/><rect class="cls-4" x="11.84" y="1472.36" width="168.08" height="2.64" rx="1.14"/><rect class="cls-4" x="116.34" y="1489.69" width="109.95" height="2.64" rx="1.14"/><rect class="cls-4" x="206.78" y="1480.37" width="111.38" height="2.64" rx="1.14"/><rect class="cls-4" x="276.14" y="1465.78" width="84.04" height="2.64" rx="1.14"/><rect class="cls-4" x="194.29" y="1471.04" width="72.15" height="2.64" rx="1.14"/><rect class="cls-4" x="0.61" y="1482.04" width="72.15" height="2.64" rx="1.14"/><path class="cls-4" d="M1266.77,1454.88v.42a1.75,1.75,0,0,1-1.67,1.81H0v-4H1265.1A1.75,1.75,0,0,1,1266.77,1454.88Z"/><path class="cls-11" d="M870.09,589.73c-10.22-4.6-18.25-11.57-22.05-19.92a35.57,35.57,0,0,1-2.84-8.56c-2.42-13.09-15.07-25-15.07-25s-19-16.43-27.37-21.82A52.32,52.32,0,0,1,795,508a95.7,95.7,0,0,1-16.46-21,89.66,89.66,0,0,0-6.72-9.92,32.81,32.81,0,0,1-6.93-18.2v-.24s.37-6.19-3.47-33.78S785,393.14,785,393.14s28.31-6.23,49.63,24.19c20.66,29.53,42.51,20.62,43.78,20.07-1.19.22-17.39,3.07-30.52-14.21-13.63-18-23.58-26.27-23.58-26.27,39.08,3.52,44.1-8.2,44.35-8.84-3.37,2.81-27.65,3.49-35.61,2.23-6.25-1-35.64-7.74-35.64-7.74,42.8-21,35.11-45.16,35.11-45.16s-1.31,6-7.27,15c-3.52,5.26-9.32,9.26-11.43,10.7-10.26,7.11-35.62,15.32-35.62,15.32s8.38-7.76,9.07-35.16,17.29-35.15,17.29-35.15c-4.35-.57-10.65,4.54-10.65,4.54-3.27,2.07-13.2,16.62-14.14,23.81-.88,6.69-9.68,42.25-15.63,47.36-5.59,4.8-15.13,16.88-16.28,17.26s-3.55-4.16-3.55-4.16c-6.65-12.27,0-14.17,11.18-28.89a36.28,36.28,0,0,0,6.11-30.82s-1.76,11.43-4.64,18.61a35.69,35.69,0,0,1-7,11.2c-5.78,6.3-16.5,15-16.5,15-3.46-4-3.13-11.52-3.13-11.52,2.14-24,17.94-29.71,30.45-47.78s-.41-29.33-.41-29.33c5.42,9.92,1.25,22.57-9.6,30.71s-25.45,21.46-25.45,21.46c4.58-44.88-21.3-47.2-21.3-47.2,6.87,6.15,10.32,12.18,12,16.67a23.25,23.25,0,0,1,1.29,11.05c-1.9,16.83,1.49,28.94,1.78,38.47.41,13.16-1.74,20.48-1.74,20.48s-50.93-1.8-32.56-30.71c17.86-28.15,3.31-41.26,2.54-41.9.53,1.26,7.64,18.37-3,29.27-10.81,11.12-10,23-10,23-26.53-21.67-37.59-3.87-38-3.16.74-.6,16.17-12.61,29.62,6.78,13.77,19.86,19.62,20.32,19.62,20.32l-10.53,3.78a70.73,70.73,0,0,0-13.26,6.41c-22.61,14-34.24.64-34.24.64,11.14,18.71,36.06,5,40,2.7-1.41,1-5.84,4.84-13.26,17.62-8.9,15.32-34.65,23.41-36.24,23.9,18.6-2,32.48-11.05,40-17.18A39.67,39.67,0,0,0,667,416.09c6.54-11,25.18-36.5,47.56-16.63,28,24.83,10.25,61.76,10.09,67,0,1-.22,2.41-.32,3.58-.33,3.36-.06,6.81-1.78,9.66a10.79,10.79,0,0,1-3.09,3.39,93.39,93.39,0,0,1-19.17,9.84A100.3,100.3,0,0,0,686,499.7a50.66,50.66,0,0,0-19.71,22.18,48.5,48.5,0,0,0-4.41,15.92,64.58,64.58,0,0,0-.29,7.49c0,3.21-3,5.9-7.25,6.43-1,.16-2.29.27-3.72.38-10.76.75-14.56,16-14.56,16s-1.49,8-7.21,13.18a51.62,51.62,0,0,0-8.67,11.14c-1.08,1.81-2.29,3.58-3.55,5.33-.15.17-.31.37-.47.57,2.47,1.57,5,3.07,7.56,4.56.59-.69,1.18-1.37,1.82-2.06,1.57-1.72,4.25-4.71,7.17-8.14a63.56,63.56,0,0,0,2.19,6.57c1.71,4.38,1.78,7.76,1.24,10.24,2.62,1.3,5.28,2.56,8,3.75,2-4.24,3-9.77-1.09-14.81a19.91,19.91,0,0,1-4.41-13.06c3.33-4.29,6.09-8.45,6.82-11.15a29.32,29.32,0,0,1,3.52-7.8c2.23-3.45,6.74-5.75,12-6a.9.9,0,0,0,.26,0,14,14,0,0,0,5-1.17c5-2.08,8.11-5.9,8.69-10.19A121.07,121.07,0,0,0,676,536.73l0-.24c.35-8.11,4.23-15.83,11.18-21.84,5.4-4.71,12.88-9.64,21.32-10.61,0,0-3.7,7.27,6.74,15.29,9,6.92-6.76,21.1-11.26,24.83-1.24,1-2.41,2.1-3.57,3.21-3.89,3.71-11.06,11.07-12,15.61-.9,4.29-5.91,7.31-8.93,8.82a53.66,53.66,0,0,0-9.18,5.61c-4.6,3.61-10.16,9.07-11.73,15.37-1.86,7.49-3.38,12.4-4.17,14.88-.35,1-.76,2-1.19,3a50,50,0,0,0-2.08,5.68c2.35,1,4.74,1.92,7.13,2.83a51.61,51.61,0,0,1,3-8.62,44.85,44.85,0,0,0,.37,9.86c1.9.68,3.78,1.35,5.68,2-1.06-2.06-1.14-3.94-1.08-6.53.12-4.39,1.72-7,.14-12.29a11.43,11.43,0,0,1-.75-3.42,13.47,13.47,0,0,1,1.47-5.13,65.85,65.85,0,0,1,4.19-7.28s3.41-5.81,16.92-12c0,0-1.82,15.1,1.94,20.53s5.54,8.3,5.71,11.74-2.5,12.61-2.5,12.61a52.63,52.63,0,0,0-1.61,8.66c3.23.75,6.5,1.44,9.83,2.08a11.66,11.66,0,0,1,.41-1.22,31.39,31.39,0,0,0,1.84-8.62c4.39.36,4.7,5.18,6.89,8.29a5.77,5.77,0,0,1,1,3.3l4.62.66a5,5,0,0,1,0-1c.47-14.68-12.53-21.82-12.53-21.82l0,0c-2.46-6.9-5.65-12.73-5.56-22.44.06-4.35-3.11-10.39-.72-18.3,4.72-15.9,15.76-21,15.76-21s15.63-12.94,13-22.42c0,0,3.31.26,9.91,8.75A41.65,41.65,0,0,0,744,542s-20.17,21.16-22,29.36-7.34,17.4.71,28.81c0,0,1.44,2,8.2,8.31a9.49,9.49,0,0,1,3.19,6.1c.18,1.88.61,4.07,1.76,5.31.63.68,1.69,1.9,2.88,3.29A19.63,19.63,0,0,1,743.08,636c2.88.14,5.77.2,8.65.22,1-2.1,1.75-4.17,1.59-5.74-.33-3-4.82-8-7.91-11.1a5.74,5.74,0,0,1-1.86-5c.21-1.39-.06-3.31-2-5.72a93.3,93.3,0,0,0-6.68-7.28c-4-4-6.22-8.89-6-13.79.1-4.12,1.45-9.13,5.62-14.4.9-1.15,1.75-2.29,2.51-3.49,1.53-2.41,5.46-7.69,14.72-16.12a21,21,0,0,1,0,9.86,37.36,37.36,0,0,0-.7,9.67c.23,3,.41,6.85.33,10.74a16.63,16.63,0,0,1-1.72,6,19.73,19.73,0,0,0-2.29,12c.47,3.25,1.47,6.63,3.58,8.56a20.25,20.25,0,0,1,4.88,8.15,13.33,13.33,0,0,1,.23,7.63l-1.84,7a5.79,5.79,0,0,0-.14,3c3.78,0,7.54-.06,11.28-.24a4.58,4.58,0,0,1,1.7-2.92c3.31-3,5.94-14.81.22-20.07s-10.38-14.35-4.86-17.91,7.68-15.83,4.29-25.87,1.84-13.06,1.84-13.06a50.34,50.34,0,0,1,23.09,11.41s3.85,10.37,10.76,14.15,9.42,8.33,9.42,8.33,3.13,6.37-5,11.92a20.17,20.17,0,0,0-6,6.59,16.09,16.09,0,0,0-.6,15.18l.06.11a16.45,16.45,0,0,1,2,6.26c.06.6.1,1.19.15,1.81q4.1-.75,8.11-1.63a32.31,32.31,0,0,0-2.19-7.85c-2.51-6.68.66-13.73,8.28-17.38.25-.13.53-.24.82-.4,0,0,4.43,10.42,19.25,18.38,4.23-1.42,8.42-3,12.49-4.65-2.64-4.13-8.11-12.93-12.49-21.29-6.62-12.66-2.57-19.3-2.57-19.3s1.59-4.91,1.32-8.35c0,0,.56,1.39,1.56,3.53,5.19,10.81,16.1,19.81,30.08,24.88l.23.06a23,23,0,0,1,9.28,7c2.45-1.44,4.86-2.94,7.25-4.49A35.15,35.15,0,0,0,870.09,589.73ZM759.23,519.2c-2.35,3.25-5.81,8.56-6.09,11.72,0,.29-.43.46-.76.29-2.51-1.33-10.28-5.8-12.83-11.61-1.6-3.69-6.22-6.52-10.14-8.33-6.36-3-9.3-8.8-6.5-13.73a11.34,11.34,0,0,1,3.6-3.81c7.74-5.39,15.67-6.23,15.55-22.88,0-.57,0-1.17,0-1.79s-.08-1.57-.12-2.39a20.52,20.52,0,0,0,.87,2.41c.23.53.47,1.15.8,1.82a58.76,58.76,0,0,0,14.1,18.23,19.47,19.47,0,0,1,6.71,17A26.41,26.41,0,0,1,759.23,519.2Zm80,95.75s-7.5-2-14-13.51a32.85,32.85,0,0,1-3.68-10.56c-.49-2.9-2.54-7.83-10.14-13.4l-1.08-.77c-1.17-.82-2.25-5.38-8.81-12.47-9.06-9.8-32.11-16.47-35.12-17.2a.6.6,0,0,1-.32-.25v0c-5.05-7.89-2.17-9.31,0-13.62a34.45,34.45,0,0,1,11.11-12.86,14.21,14.21,0,0,0,4-4.18,4.54,4.54,0,0,0,.76-3.56s10.81,8.46,21.11,16A70.85,70.85,0,0,1,821,547.48a25.65,25.65,0,0,0,2.71,3.8,15.21,15.21,0,0,1,3.62,6.48,41.36,41.36,0,0,1,.78,14.5c-1.27,8.93-4.5,10.15-1.74,17.22C829.48,597.51,839.23,615,839.23,615Z"/><path class="cls-12" d="M674.13,341.76a28.38,28.38,0,0,1-2.86,12.46c-13.65-3.6-23.65-15.37-23.65-29.32a28.67,28.67,0,0,1,2.84-12.48C664.11,316,674.13,327.8,674.13,341.76Z"/><path class="cls-12" d="M745.82,315.93a25.45,25.45,0,0,1-8.75,8.67c-9.53-11.16-11.84-27-4.7-38.58a25.69,25.69,0,0,1,8.75-8.69C750.64,288.51,753,304.31,745.82,315.93Z"/><path class="cls-12" d="M807.45,358.18a23.29,23.29,0,0,1-11.5,3.18c-3.54-14.71,1.31-29.81,12.68-36.42a23.37,23.37,0,0,1,11.5-3.2C823.65,336.46,818.81,351.57,807.45,358.18Z"/><path class="cls-12" d="M835.66,384.25a23.76,23.76,0,0,1-10.88-5.12c5.55-14,18-22.67,30.67-20.34a23.92,23.92,0,0,1,10.9,5.11C860.78,377.86,848.38,386.58,835.66,384.25Z"/><path class="cls-12" d="M633.7,391.72a26.15,26.15,0,0,1-7.91-9.57c10.44-10.18,25.07-12.48,35.72-4.62a26.19,26.19,0,0,1,7.93,9.57C659,397.26,644.36,399.58,633.7,391.72Z"/><path class="cls-1" d="M142.93,1134c0,11.07-3,21.18-7.86,28.9,4.89,7.72,7.86,17.83,7.86,28.9,0,24.24-14.22,43.89-31.76,43.89S79.41,1216,79.41,1191.76c0-11.07,3-21.18,7.86-28.9-4.9-7.72-7.86-17.83-7.86-28.9A56.86,56.86,0,0,1,83.66,1112a56.86,56.86,0,0,1-4.25-21.94c0-24.24,14.22-43.89,31.76-43.89s31.76,19.65,31.76,43.89a57,57,0,0,1-4.25,21.94A57,57,0,0,1,142.93,1134Z"/><path class="cls-5" d="M111,1092.35h.27a1.86,1.86,0,0,1,1.86,1.86v180.43a0,0,0,0,1,0,0h-4a0,0,0,0,1,0,0V1094.21A1.86,1.86,0,0,1,111,1092.35Z"/><path class="cls-5" d="M112.71,1107.12l-2.82-2.28,8.15-6.58a2.34,2.34,0,0,1,2.82,0h0a1.4,1.4,0,0,1,0,2.28Z"/><path class="cls-5" d="M112,1144.09l-2.83-2.28,8.15-6.58a2.34,2.34,0,0,1,2.82,0h0a1.4,1.4,0,0,1,0,2.28Z"/><path class="cls-5" d="M113.13,1186.71l-2.83-2.28,8.15-6.58a2.34,2.34,0,0,1,2.82,0h0a1.4,1.4,0,0,1,0,2.28Z"/><path class="cls-5" d="M110.34,1164.28l2.83-2.28-8.15-6.58a2.34,2.34,0,0,0-2.82,0h0a1.4,1.4,0,0,0,0,2.28Z"/><path class="cls-5" d="M109.51,1214.52l2.83-2.28-8.15-6.57a2.34,2.34,0,0,0-2.82,0h0a1.4,1.4,0,0,0,0,2.28Z"/><path class="cls-5" d="M109.93,1123.89l2.82-2.28-8.14-6.58a2.36,2.36,0,0,0-2.83,0h0a1.4,1.4,0,0,0,0,2.28Z"/><path class="cls-13" d="M34.81,1182.4c-.26.58-.52,1.16-.78,1.72,4.53,9.59,7.48,21.84,8,35.33v.07c.08,1.55.12,3.14.12,4.74,0,1.42,0,2.82-.08,4.2,0,0,0,0,0,0-.62,17.07-5,32.18-11.69,42.52a43.49,43.49,0,0,1-3.35,4.55c-4.57,5.48-9.94,8.9-15.71,9.56a17.66,17.66,0,0,1-2.06.12,15.76,15.76,0,0,1-2.07-.13,18.38,18.38,0,0,1-5-1.27A18.46,18.46,0,0,1,0,1282.76V1024.5A19.26,19.26,0,0,1,9.28,1022c18.17,0,32.89,27.29,32.89,61a103.21,103.21,0,0,1-4.4,30.49q1.2,3.84,2.09,8a106.37,106.37,0,0,1,2.28,20c0,.82,0,1.67,0,2.5a108.59,108.59,0,0,1-1.36,17.33A86.21,86.21,0,0,1,34.81,1182.4Z"/><path class="cls-5" d="M9.13,1086.17h.28a1.93,1.93,0,0,1,1.93,1.93v251.3a0,0,0,0,1,0,0H7.21a0,0,0,0,1,0,0V1088.1A1.93,1.93,0,0,1,9.13,1086.17Z"/><path class="cls-5" d="M10.88,1106.68,8,1103.52l8.59-9.3a1.74,1.74,0,0,1,2.62,0l.3.33a2.1,2.1,0,0,1,0,2.83Z"/><path class="cls-5" d="M10.13,1158l-2.92-3.16,8.58-9.31a1.76,1.76,0,0,1,2.62,0l.31.33a2.14,2.14,0,0,1,0,2.84Z"/><path class="cls-5" d="M11.3,1217.24l-2.92-3.16,8.59-9.3a1.74,1.74,0,0,1,2.62,0l.3.33a2.1,2.1,0,0,1,0,2.83Z"/><path class="cls-5" d="M11.34,1182.92l-2.92,3.17-1.21-1.32L0,1177v-3.2l.14-.15a1.76,1.76,0,0,1,2.62,0Z"/><path class="cls-5" d="M10.48,1252.71l-2.92,3.17-.35-.38-2-2.15L0,1247.69v-4.75a1.71,1.71,0,0,1,1.9.47L3.34,1245l3.87,4.18Z"/><path class="cls-5" d="M10.91,1126.81,8,1130l-8-8.65v-4.07a1.74,1.74,0,0,1,2.33.25Z"/><path class="cls-13" d="M155.6,1182.55c0,19.64-16.71,35.56-37.33,35.56S81,1202.19,81,1182.55,118.27,1058,118.27,1058,155.6,1162.92,155.6,1182.55Z"/><path class="cls-5" d="M118.09,1146.68h.37a2.56,2.56,0,0,1,2.56,2.56v115.87a0,0,0,0,1,0,0h-5.5a0,0,0,0,1,0,0V1149.24A2.56,2.56,0,0,1,118.09,1146.68Z"/><path class="cls-5" d="M119.58,1158.41l-2.32,3.83L106,1156a2.15,2.15,0,0,1-.85-3h0a2.37,2.37,0,0,1,3.16-.81Z"/><path class="cls-5" d="M119.15,1193.44l-2.31,3.82-11.3-6.21a2.15,2.15,0,0,1-.85-3h0a2.38,2.38,0,0,1,3.17-.81Z"/><path class="cls-5" d="M117.49,1175.93l2.32,3.82,11.29-6.21a2.15,2.15,0,0,0,.85-3h0a2.39,2.39,0,0,0-3.16-.81Z"/><path class="cls-5" d="M117.91,1212.4l2.32,3.82,11.3-6.21a2.15,2.15,0,0,0,.84-3h0a2.37,2.37,0,0,0-3.16-.81Z"/><path class="cls-1" d="M176.93,1202.1c0,14.18-11.73,25.68-26.21,25.68s-26.22-11.5-26.22-25.68,26.22-90,26.22-90S176.93,1187.92,176.93,1202.1Z"/><path class="cls-5" d="M150.59,1176.19h.26a1.8,1.8,0,0,1,1.8,1.8v83.74a0,0,0,0,1,0,0h-3.86a0,0,0,0,1,0,0V1178A1.8,1.8,0,0,1,150.59,1176.19Z"/><path class="cls-5" d="M151.63,1184.67l-1.62,2.76-7.94-4.49a1.58,1.58,0,0,1-.59-2.18h0a1.64,1.64,0,0,1,2.22-.58Z"/><path class="cls-5" d="M151.34,1210l-1.63,2.76-7.93-4.49a1.58,1.58,0,0,1-.6-2.18h0a1.64,1.64,0,0,1,2.22-.58Z"/><path class="cls-5" d="M150.17,1197.32l1.63,2.76,7.93-4.49a1.59,1.59,0,0,0,.6-2.18h0a1.66,1.66,0,0,0-2.23-.58Z"/><path class="cls-5" d="M150.47,1223.66l1.62,2.76,7.94-4.49a1.56,1.56,0,0,0,.59-2.17h0a1.64,1.64,0,0,0-2.22-.59Z"/><path class="cls-13" d="M89.76,1165.3c0,11.18-2.23,21.39-5.92,29.18,3.69,7.79,5.92,18,5.92,29.18,0,24.47-10.7,44.31-23.91,44.31S42,1248.13,42,1223.66c0-11.18,2.23-21.39,5.91-29.18-3.68-7.79-5.91-18-5.91-29.18a75.09,75.09,0,0,1,3.19-22.15A75.21,75.21,0,0,1,42,1121c0-24.47,10.7-44.31,23.9-44.31s23.91,19.84,23.91,44.31a74.87,74.87,0,0,1-3.2,22.16A74.75,74.75,0,0,1,89.76,1165.3Z"/><path class="cls-5" d="M65.75,1123.29H66a1.4,1.4,0,0,1,1.4,1.4v182.65a0,0,0,0,1,0,0h-3a0,0,0,0,1,0,0V1124.69A1.4,1.4,0,0,1,65.75,1123.29Z"/><path class="cls-5" d="M67,1138.2l-2.13-2.3,6.24-6.76a1.28,1.28,0,0,1,1.91,0l.22.24a1.53,1.53,0,0,1,0,2.06Z"/><path class="cls-5" d="M66.48,1175.52l-2.13-2.3,6.24-6.76a1.28,1.28,0,0,1,1.91,0l.22.24a1.56,1.56,0,0,1,0,2.06Z"/><path class="cls-5" d="M67.33,1218.56l-2.13-2.3,6.25-6.77a1.28,1.28,0,0,1,1.9,0l.22.24a1.55,1.55,0,0,1,0,2.07Z"/><path class="cls-5" d="M65.23,1195.91l2.13-2.3-6.25-6.76a1.27,1.27,0,0,0-1.9,0l-.22.24a1.53,1.53,0,0,0,0,2.06Z"/><path class="cls-5" d="M64.61,1246.64l2.12-2.3-6.24-6.76a1.27,1.27,0,0,0-1.9,0l-.22.24a1.53,1.53,0,0,0,0,2.06Z"/><path class="cls-5" d="M64.92,1155.13l2.13-2.3-6.25-6.76a1.27,1.27,0,0,0-1.9,0l-.22.24a1.53,1.53,0,0,0,0,2.06Z"/><path class="cls-4" d="M98.33,1309v6.14l-4.43.39a14.29,14.29,0,0,1-6.21-.82l-9.12-3.35s-10.6,11.55-15.25,15.9-3.63,7.2-3.63,7.2L65,1352.66l4.23,5.27H62l-10.8-30.71c9.95-7.58,10.78-15.94,10.83-18l-23.19,18.81,22-24s5.85-6.94,7.1-15.84a12.33,12.33,0,0,1,9.61-10.4s-.69,7.38.78,21.71S98.33,1309,98.33,1309Z"/><path class="cls-14" d="M78.57,1311.39l-.13,0Z"/><path class="cls-4" d="M131.77,1284.29a38.4,38.4,0,0,1-8.11,21.81,38.46,38.46,0,0,0-5,7.93c-7.33,15.61-9,33.08-9.31,38.27a5.4,5.4,0,0,0,.59,2.82l.85,1.65h-5.22c.76-13.1,6.12-38.56,6.93-42.38a.35.35,0,0,0-.36-.45l-5.89.52c-1.54-24.76,4.54-30,4.54-30,.56,8,6.81,7.24,6.81,7.24s.57-1.81-1.75-8.59-1.75-18.4-1.75-18.4c10.41,2.86,15.14-5.45,15.14-5.45C130.1,1261.78,132.68,1270.92,131.77,1284.29Z"/><path class="cls-14" d="M78.57,1311.39l-.13,0Z"/><path class="cls-15" d="M129.28,1259.25s-4.73,8.31-15.14,5.45c0,0-.57,11.61,1.75,18.4s1.75,8.59,1.75,8.59-6.25.75-6.81-7.24c0,0-6.08,5.25-4.54,30h0l-7.05.62-.91.08V1309s-18.54,4.82-20-9.5-.78-21.71-.78-21.71a12.33,12.33,0,0,0-9.61,10.4c-1.25,8.9-7.1,15.84-7.1,15.84l-22,24-3.31,2.69a14.6,14.6,0,0,0-3.14,3.58l-10.62,17a2,2,0,0,0-.22,1.49l1.14,4.62H14.55v-1.29l17-31.39a9.54,9.54,0,0,1,3.27-3.49c18.88-11.94,17-35.28,16.46-39.29a1.44,1.44,0,0,1,.3-1.07c5.13-6.21,13.3-7.5,18.61-7.6a31.23,31.23,0,0,1,7.27.75,155.19,155.19,0,0,0,20.77,3.16c7.9.5,10.84-3.69,11.79-5.71a4.58,4.58,0,0,0,.44-1.78l.24-4.81a.6.6,0,0,0-.5-.64c-2.23-.29-10.85-1.43-12.28-2.24-1.85-1.06-1.36-2.32-1.36-2.32a4,4,0,0,1,3.8-4c3-.26,8.83-7.37,11.18-10.39a3.13,3.13,0,0,1,2.65-1.24l8.44.47a3,3,0,0,1,2.55,1.91l.81,2a27.55,27.55,0,0,1,1,2.94l1.7,6C128.89,1258,129.08,1258.63,129.28,1259.25Z"/><ellipse class="cls-16" cx="101.09" cy="1257.91" rx="4.3" ry="2.41"/><ellipse class="cls-16" cx="115.89" cy="1250.34" rx="1.75" ry="1.9"/><path class="cls-15" d="M106.29,1314.47l-1.15,20.62-1.41,17.75,1.88,3.94H99.17v-4.61s2.82-11,1.69-21a151.09,151.09,0,0,0-2.53-16Z"/><path class="cls-15" d="M100.64,1238.36s10.18-1.12,11.77,6.71l-4.51,5.27S100.94,1247.64,100.64,1238.36Z"/><path class="cls-15" d="M135.24,1234.45s-10,3.53-10.89,10.84l2.33,5S137.82,1244.42,135.24,1234.45Z"/><path class="cls-4" d="M109.77,1244.32s-4.22-4.7-7.3-4.36c0,0,1.49,6.39,4.73,6.9Z"/><path class="cls-4" d="M126.64,1244.32s3.12-6.63,6-6.76c0,0-1.1,6.69-4.3,7.81Z"/><path class="cls-1" d="M55.3,1279.62c0,12.42-2.48,23.77-6.58,32.43,4.1,8.67,6.58,20,6.58,32.44,0,27.2-11.9,49.25-26.57,49.25s-26.58-22-26.58-49.25c0-12.43,2.48-23.77,6.58-32.44-4.1-8.66-6.58-20-6.58-32.43A83.09,83.09,0,0,1,5.71,1255a83.09,83.09,0,0,1-3.56-24.63c0-27.2,11.9-49.25,26.58-49.25s26.57,22.05,26.57,49.25A83.43,83.43,0,0,1,51.75,1255,83.43,83.43,0,0,1,55.3,1279.62Z"/><path class="cls-5" d="M28.61,1232.92h.23a1.56,1.56,0,0,1,1.56,1.56v203a0,0,0,0,1,0,0H27.06a0,0,0,0,1,0,0v-203A1.56,1.56,0,0,1,28.61,1232.92Z"/><path class="cls-5" d="M30,1249.49l-2.36-2.55,6.94-7.52a1.41,1.41,0,0,1,2.11,0l.25.27a1.72,1.72,0,0,1,0,2.29Z"/><path class="cls-5" d="M29.42,1291l-2.36-2.56,6.93-7.51a1.41,1.41,0,0,1,2.12,0l.25.26a1.72,1.72,0,0,1,0,2.29Z"/><path class="cls-5" d="M30.37,1338.82,28,1336.26l6.94-7.52a1.43,1.43,0,0,1,2.12,0l.24.27a1.7,1.7,0,0,1,0,2.29Z"/><path class="cls-5" d="M28,1313.64l2.37-2.55-6.94-7.52a1.43,1.43,0,0,0-2.12,0l-.24.27a1.7,1.7,0,0,0,0,2.29Z"/><path class="cls-5" d="M27.34,1370l2.36-2.56L22.77,1360a1.41,1.41,0,0,0-2.12,0l-.25.26a1.74,1.74,0,0,0,0,2.3Z"/><path class="cls-5" d="M27.69,1268.31l2.36-2.56-6.94-7.51a1.41,1.41,0,0,0-2.11,0l-.25.27a1.7,1.7,0,0,0,0,2.29Z"/><path class="cls-4" d="M414.08,1493.93h-35.7a2.62,2.62,0,0,1-1.35-.37c-1.49-.89-4.94-3.4-4.83-7.6a2,2,0,0,0,2,1.14l3,0a4.84,4.84,0,0,0,2.68-.78c2.32-1.48,7.63-4.58,12.47-5.23a16.57,16.57,0,0,1,11.36,3s1.65.6-.14-2.53a13.11,13.11,0,0,1-1.33-5.4,18.06,18.06,0,0,1,.35-4.7,28.27,28.27,0,0,0,.8-5.61c-.23-1.09-.46-2-.46-2s1,1.68,1.47,1.68,6.08-.9,9.7.09c2.93.8,3.82,3.09,3.82,5.82v4.92H412a.13.13,0,0,0-.1.2C412.85,1478.07,418.53,1488,414.08,1493.93Z"/><path class="cls-17" d="M424.23,1475.49a10.7,10.7,0,0,1-3.89-.74,20.51,20.51,0,0,0-2.44-1.44v3H425A.83.83,0,0,0,424.23,1475.49Z"/><path class="cls-17" d="M381.08,1493.93s-.12-4.48,5.95-6.32a25,25,0,0,1,9.62-.62,18.16,18.16,0,0,1,5.14,1.4c1.41.6,3.56,1,5-1,1.81-2.58,1.68,1.72,1.54,3.69a4.44,4.44,0,0,1-.76,2.22c-.26.37-.57.67-.9.67Z"/><ellipse class="cls-17" cx="413.25" cy="1472.03" rx="1.69" ry="1.83"/><ellipse class="cls-4" cx="413.25" cy="1472.03" rx="0.62" ry="0.68"/><path class="cls-9" d="M1499.94,1008.83V1203.2H680s-.07-.38-.16-1.09a47.5,47.5,0,0,1-.07-10.38c1.38-14.18,9.6-37.53,47.08-46.41,55.42-13.1,78.09-7.09,104.28-21.29s89.17-49.25,117.38-49.69c34.75-.54,120.9,6.55,162.21,1.64,21.54-2.56,50.49-14.33,76.47-25,23.83-9.79,45.17-18.67,56-18.67,22.67,0,95.71-11.46,125.94-16.93,5.69-1,13.92-1.9,23.54-2.64,11.66-.9,25.36-1.6,39-2.15,3.29-.13,6.57-.26,9.83-.37C1469,1009.25,1494.31,1008.9,1499.94,1008.83Z"/><path class="cls-10" d="M1452.07,1019.12c23.14-.68,43-1,47.87-1V1203.2H689s-.07-.39-.17-1.09c-.86-6.74-3.09-42.73,46.5-54,54.81-12.48,77.22-6.76,103.13-20.28s88.19-46.89,116.09-47.31c34.37-.52,119.57,6.24,160.43,1.55,26.62-3,64.67-19.79,94.16-31.08,15.76-6,29.06-10.51,36.87-10.51,16.67,0,60.92-6,94.8-11.28,7.18-1.11,13.9-2.18,19.79-3.16l.51-.08,3.37-.56.09,0c2.14-.36,4.15-.69,6-1C1386.39,1021.59,1422,1020,1452.07,1019.12Z"/><path class="cls-4" d="M1499.94,1202.11v2.19H675.34a1,1,0,0,1-.91-1v-.22a1,1,0,0,1,.91-1Z"/><rect class="cls-4" x="1129.3" y="1211.1" width="105.44" height="1.43" rx="0.62"/><rect class="cls-4" x="1212.07" y="1225.07" width="68.97" height="1.43" rx="0.62"/><rect class="cls-4" x="1260.17" y="1217.31" width="69.87" height="1.43" rx="0.62"/><rect class="cls-4" x="1295.1" y="1209.55" width="52.72" height="1.43" rx="0.62"/><rect class="cls-4" x="1243.76" y="1206.62" width="29.4" height="1.43" rx="0.62"/><rect class="cls-3" x="1321.08" y="1001.79" width="19.13" height="11.51"/><path class="cls-3" d="M1346.59,1050.38v-3.59H1345v-11.45h1.58v-4.61H1314.4v4.61h2l-.05,11.45h-1.95v3.59h-2.93v5.46h38.14v-5.46Zm-6.83-3.59h-17.84l0-11.45h17.79Z"/><path class="cls-3" d="M1357.22,1117.46v-7.09h-2.79v-18h2.79v-6.84h-53.14v6.84H1307v18h-2.89v7.09h-5v10.19h22.29v-10.19h4.93v10.19h35.46v-10.19Zm-11.25-7.09h-30.86v-18H1346Z"/><polygon class="cls-3" points="1295.18 1117.45 1295.18 1127.66 1283.4 1127.66 1283.4 1117.45 1286.51 1117.45 1286.51 1085.54 1291.76 1085.54 1291.76 1117.45 1295.18 1117.45"/><polygon class="cls-3" points="1378.22 1117.45 1378.22 1127.66 1365.9 1127.66 1365.9 1117.45 1369.97 1117.45 1369.97 1085.54 1374.68 1085.54 1374.68 1117.45 1378.22 1117.45"/><path class="cls-5" d="M1323.79,991.71h13.3s5.3,6.09,16.54,4.18a9,9,0,0,1-6.1,5.9H1314.4a15.82,15.82,0,0,1-6.54-6.08S1318,997.45,1323.79,991.71Z"/><path class="cls-5" d="M1319.18,1013.3h23.2s4.5,9.2,26.18,8.5c0,0-3.41,8.47-11.34,8.93h-54.34s-8.44-2.84-11.12-9.62C1291.76,1021.11,1311.4,1023.24,1319.18,1013.3Z"/><path class="cls-5" d="M1267.55,1069.45s33.42.94,43.92-13.61h38.14s6,12.77,44,13.63c0,0-3.5,11.29-18.94,16.07h-89.46S1270.45,1079.71,1267.55,1069.45Z"/><path class="cls-2" d="M162.42,895.75H70.78c1-12.68,10.75-22.64,22.7-22.64a21,21,0,0,1,5.85.83c3.92-7.46,11.32-12.49,19.81-12.49A21.67,21.67,0,0,1,133.49,867a21.26,21.26,0,0,1,6.83-1.12c12.58,0,22.77,11,22.77,24.66A20.66,20.66,0,0,1,162.42,895.75Z"/><path class="cls-3" d="M162.43,895.75H72.19a22.39,22.39,0,0,1,28.12-20.11,22.24,22.24,0,0,1,33.63-6.43,22.34,22.34,0,0,1,6.73-1,22.58,22.58,0,0,1,22.42,22.73A18.08,18.08,0,0,1,162.43,895.75Z"/><path class="cls-2" d="M197.43,815.45h91.64c-.95-12.68-10.75-22.64-22.69-22.64a21.06,21.06,0,0,0-5.86.83c-3.92-7.46-11.32-12.49-19.81-12.49a21.63,21.63,0,0,0-14.35,5.52,21,21,0,0,0-6.82-1.13c-12.58,0-22.78,11-22.78,24.66A21.12,21.12,0,0,0,197.43,815.45Z"/><path class="cls-3" d="M197.42,815.45h90.24a22.39,22.39,0,0,0-28.12-20.11,22.25,22.25,0,0,0-33.63-6.42,22,22,0,0,0-6.72-1,22.58,22.58,0,0,0-22.43,22.73A18,18,0,0,0,197.42,815.45Z"/><path class="cls-2" d="M216.63,849H160c0-8.12,6.09-14.71,13.59-14.71a12.71,12.71,0,0,1,6.79,2,12.74,12.74,0,0,1,15,1,12.81,12.81,0,0,1,7.71-2.6C210.44,834.69,216.45,841.09,216.63,849Z"/><path class="cls-3" d="M216.63,849h-55.7a13.5,13.5,0,0,1,13.36-13.63,13.19,13.19,0,0,1,6.68,1.82,13.17,13.17,0,0,1,14.72.92,13.14,13.14,0,0,1,7.58-2.4A13.49,13.49,0,0,1,216.63,849Z"/><text class="cls-18" transform="translate(270.57 241.15)"><tspan class="cls-19">w</tspan><tspan x="75.87" y="0">ebsi</tspan><tspan class="cls-20" x="259.74" y="0">t</tspan><tspan x="297.27" y="0">e urban de</tspan><tspan class="cls-21" x="770.12" y="0">l</tspan><tspan x="800.81" y="0">t</tspan><tspan class="cls-22" x="838.88" y="0">a</tspan><tspan class="cls-23" x="890.45" y="0">’</tspan><tspan class="cls-24" x="914.66" y="0">s</tspan></text></g></svg>