<svg xmlns="http://www.w3.org/2000/svg" viewBox="0 0 1500 1500"><defs><style>.cls-1{fill:#e6d2d3;}.cls-2{fill:#fff5e6;}.cls-3,.cls-5{fill:#802022;}.cls-4{fill:#f9cc1b;}.cls-5{font-size:90px;font-family:Raleway-Black, Raleway;font-weight:800;}.cls-6{letter-spacing:-0.02em;}.cls-7{letter-spacing:-0.01em;}</style></defs><g id="klimaat"><rect class="cls-1" width="1500" height="1500"/><circle class="cls-2" cx="750" cy="869.08" r="526.25"/><path class="cls-3" d="M647.07,1107.69c134.5-27.88,277.2,29.61,277.2,29.61L873.42,974.83l-70.53-23-24.6-80.37,121.37,47.57L921,1024l62.33,27.88L957.07,925.63s7.84-112.91-56.77-163.89l5.93-44.42L671.56,679.59l-99.94,109.9-14.76,159.1,29.61,9.14,27.8,56.47-21.33,101.69Z"/><path class="cls-3" d="M995.1,682.32S847.79,549.1,648,623.4,516,946.2,516,946.2l15.37,50,55.08-38.43s-17.93-140.91,69.17-205,210.08-26.9,244.66,9Z"/><path class="cls-4" d="M800.52,1264.13c43.23-12.82,84.25-2.57,125.12,9.24l.41,2.82c-4,1.2-8,2.33-12,3.62-19.82,6.41-39.36,13.93-59.51,19-28.94,7.37-57.13,5.22-82-13.44-5.84-4.38-10.49-10.36-15.61-15.53,52.51-57.91,63.54-65.53,115.61-79.43-2.68,4.84-4.4,8.79-6.84,12.22-13,18.28-28.4,34-48.07,45.3-6.47,3.72-12.25,8.63-18.34,13Z"/><path class="cls-4" d="M627.66,1189.63c30.22,12.66,62.49,17,83,45,9,12.27,20.17,22.93,31.06,35.1-10,16.63-26.53,25.49-45.73,30.29s-38.45,3-57.06-2.39c-21.82-6.35-43.19-14.25-66.77-22.15,21.18-10.06,42.47-13.88,63.75-15.34,21-1.44,42.25.39,64.53.81-5.66-4.07-11.2-8.81-17.41-12.37-20-11.43-35.8-27.15-49-45.78a83.19,83.19,0,0,1-4.62-7.49C628.81,1194.23,628.65,1193,627.66,1189.63Z"/><path class="cls-4" d="M885.85,1246.26c22.22-14.75,104-21.36,131.73-11.21-20.19,8.24-40,17.83-60.75,24.09-9.21,2.78-20.63-.32-30.73-2.32C912.78,1254.18,899.77,1250,885.85,1246.26Z"/><path class="cls-4" d="M480.93,1231.76c46.48-4.53,90.1-2.58,132.21,13.75C530.94,1269,543,1263.91,480.93,1231.76Z"/><path class="cls-4" d="M287.1,815.66c25.59,36.81,38.21,75.11,37.15,117.65l-2.86,1.81C311,921.26,299.08,908.26,291,893.2c-4.57-8.49-3.35-20.38-3.73-30.77C286.7,847.78,287.1,833.1,287.1,815.66Z"/><path class="cls-4" d="M1175.45,936.23c-1.15-45.51,11.65-83.79,37.47-118.37,0,12.09.33,24.19-.1,36.27-.4,11.38-.63,22.92-2.79,34-1.37,7-5.23,14-9.6,19.83C1193.43,917.27,1185.06,925.52,1175.45,936.23Z"/><path class="cls-4" d="M638.09,1237c-29.92-2.6-87-52.28-94.25-81.56C588.73,1166.51,614.85,1199.4,638.09,1237Z"/><path class="cls-4" d="M861.8,1236.76c22.66-37.12,48.93-70,93.55-81.37C954.59,1179.13,888.48,1237.11,861.8,1236.76Z"/><path class="cls-4" d="M1139.81,1015.9c15.15-36.54,36.43-68.7,68.46-95.64-.58,27.36-5.26,51.64-24.19,69.18-12.34,11.43-28.17,19.09-42.43,28.45Z"/><path class="cls-4" d="M357.43,1018.36c-10-7.18-19.41-15.42-30.11-21.34-29.91-16.55-33.46-45-35.16-74.81,31.17,25.22,52.74,57.16,67.64,93.83Z"/><path class="cls-4" d="M476,1166.81c-46.36-6-87.16-16.47-108.85-61C407.41,1117.13,444.11,1135,476,1166.81Z"/><path class="cls-4" d="M1132.5,1105.68c-21.79,44.81-62.7,55.21-108.68,61C1055.32,1134.8,1092.36,1117.45,1132.5,1105.68Z"/><path class="cls-4" d="M319.58,838c-26.77-28.33-29.64-81.5-6-112.23C330.29,762.57,327.57,800,319.58,838Z"/><path class="cls-4" d="M1180,837.9c-7.86-37.76-10.69-75.16,5.72-111.53C1209.66,749.35,1206.61,810.81,1180,837.9Z"/><path class="cls-4" d="M959.75,1212.76c37-25.37,80-31.23,122.83-40C1051.05,1217.21,1004,1210.39,959.75,1212.76Z"/><path class="cls-4" d="M540,1212.75c-44.22-2.29-91.41,4.74-122.78-39.9C459.93,1181.52,502.94,1187.51,540,1212.75Z"/><path class="cls-4" d="M403.75,1097.69c-31.61.18-78.21-43-88.54-82.27C351.53,1036.91,380.63,1063.19,403.75,1097.69Z"/><path class="cls-4" d="M1095.46,1098.38c23.48-35.3,52.7-61.41,88-82.43C1179.23,1049.71,1132.12,1094.53,1095.46,1098.38Z"/><path class="cls-4" d="M332,743.37c-17-37.68-5.8-81.37,19.19-107.88C358.23,673.84,348.41,708.13,332,743.37Z"/><path class="cls-4" d="M1167.55,743.38c-16.23-35.33-26.18-69.6-19.08-107.82C1173.56,655.31,1183.74,711.56,1167.55,743.38Z"/><path class="cls-4" d="M471.83,1105.17c32.12,23.33,58.74,50.34,71.07,88.25C515.42,1190.76,476.93,1143.5,471.83,1105.17Z"/><path class="cls-4" d="M956.55,1194.05c12.48-38.6,39.25-65.52,70.49-88.3C1022.6,1141.4,990.31,1185.9,956.55,1194.05Z"/><path class="cls-4" d="M344.48,792.59c-10-29.53,13.72-75.47,48.55-93.66C386.35,735.43,363.81,762.52,344.48,792.59Z"/><path class="cls-4" d="M1106.35,698.68c35.66,19.36,59.3,65.49,48.78,93.7C1136,762.93,1113.6,735.61,1106.35,698.68Z"/><path class="cls-4" d="M836.61,435.93c41-3.69,78.09,10.76,90.21,35.16C895,474.38,845.31,454,836.61,435.93Z"/><path class="cls-4" d="M571.51,470.87c23.7-31.43,56.26-36.79,91.77-35.23C653.55,454.55,603.89,474.49,571.51,470.87Z"/><path class="cls-4" d="M407.42,555.33c1.86,23.23-17.58,69.74-38.25,91.45C360.3,613.29,375,578,407.42,555.33Z"/><path class="cls-4" d="M403.39,1062.34c-21.46-20.61-38.58-79.46-25.52-103.46C397.06,988.2,407.82,1031.84,403.39,1062.34Z"/><path class="cls-4" d="M1122.68,956.64c9.5,41.38-4.07,74.6-25.37,107.15C1090.55,1041,1101.64,993.84,1122.68,956.64Z"/><path class="cls-4" d="M1091.11,553.65c36.51,31.4,46.69,56,39.37,94.77C1110.33,619.35,1095.1,589.84,1091.11,553.65Z"/><path class="cls-4" d="M1078.51,572.31c-28.3-22.06-51.92-44.95-62.3-79.32C1043.51,500.52,1074.65,534.73,1078.51,572.31Z"/><path class="cls-4" d="M421.56,570.1c3.15-33.63,30.76-66.22,60.23-77.34C481.11,517.1,444.88,557.81,421.56,570.1Z"/><path class="cls-4" d="M1138.19,870.87c19,13.56,27.06,75.66,6.61,99.91C1134.82,938.11,1131,905.3,1138.19,870.87Z"/><path class="cls-4" d="M354.81,971.15c-18.6-26.38-14.65-82.68,6.63-100.06C368.74,904.87,364.81,937.77,354.81,971.15Z"/><path class="cls-4" d="M468,1135.52c-26.12-10.44-53.31-61.91-47.31-89.54C445.44,1071.41,460,1101.2,468,1135.52Z"/><path class="cls-4" d="M1031.79,1135.64c7.51-34.46,22.69-63.89,46.42-89.18C1087.55,1068.39,1059.19,1123.53,1031.79,1135.64Z"/><path class="cls-4" d="M376.18,780.44c-.16,30.38-15.18,64.48-39.19,89C330.68,836.89,347.94,801,376.18,780.44Z"/><path class="cls-4" d="M1123,779c28.8,24.49,43.82,53.23,40.85,90.39C1144,856,1125.83,816.25,1123,779Z"/><path class="cls-4" d="M1063.14,618.93c33.09,8.68,67.67,45,68.45,71.42C1104,671.32,1078,651.63,1063.14,618.93Z"/><path class="cls-4" d="M366,690.73c11.46-37.22,35.46-58.8,68.76-72.34C431.47,638.35,399.44,672.31,366,690.73Z"/><path class="cls-4" d="M933,449c33.84,9.9,59.52,25.29,69,60C969,501.33,950.93,477.18,933,449Z"/><path class="cls-4" d="M566.77,448.78c-18,28.38-36.14,52.54-69.16,60.2C507.13,474.28,532.94,459,566.77,448.78Z"/><path class="cls-4" d="M1091.68,613c-30.5-5.94-54-21.35-74.8-41.92C1035.69,562.07,1079.62,586.29,1091.68,613Z"/><path class="cls-4" d="M408.69,611.47c11.94-25.07,51.11-46.88,73.43-41.52C469.57,588.78,429.68,611.54,408.69,611.47Z"/><path class="cls-4" d="M603.41,488.9C582.81,510.66,556.57,515,526,513.44,548.17,489.44,575,486.94,603.41,488.9Z"/><path class="cls-4" d="M895.65,488c28.83-1.6,55.3,1.83,76.84,23.73C950.34,519.56,908,506.54,895.65,488Z"/><path class="cls-4" d="M1036.22,552.29c-27.28-.67-51-6.72-70-26.86C990.52,519.43,1025,532.37,1036.22,552.29Z"/><path class="cls-4" d="M464.34,551c17.27-22.52,41.18-28,70.5-27.09C514.49,545.59,490.75,551.55,464.34,551Z"/><text class="cls-5" transform="translate(162.04 241.15)"><tspan class="cls-6">w</tspan><tspan x="75.87" y="0">eb</tspan><tspan class="cls-7" x="188.91" y="0">a</tspan><tspan x="242.28" y="0">tlas h</tspan><tspan class="cls-7" x="487.43" y="0">e</tspan><tspan x="541.7" y="0">t romeinse rijk</tspan></text></g></svg>