<svg xmlns="http://www.w3.org/2000/svg" viewBox="0 0 1200 1183.09"><defs><style>.cls-1{fill:#bacfe4;}.cls-2{fill:#e8eff6;}.cls-3{fill:#d2dfed;}.cls-4{fill:#a3c1db;}.cls-5{fill:#8dafd2;}.cls-6{fill:#66785b;}.cls-7{fill:#405632;}.cls-8{fill:#05529d;}.cls-9{fill:#8db573;}.cls-10{fill:#71a350;}.cls-11{fill:#08529c;}.cls-12{fill:#d91b82;}.cls-13{fill:#6090c0;}.cls-14{fill:#7f3d03;}.cls-15{fill:#d4e5f6;}.cls-16{fill:#1a1a1a;}.cls-17{fill:#cddceb;}</style></defs><g id="Laag_2" data-name="Laag 2"><g id="Laag_1-2" data-name="Laag 1"><rect class="cls-1" y="73.68" width="1200" height="1109.41"/><path class="cls-2" d="M932.37,747.75h78.43a19.49,19.49,0,0,0-19.42-17.91,19.74,19.74,0,0,0-5,.65A19.48,19.48,0,0,0,957.13,725a19.51,19.51,0,0,0-25.34,18.63A15.09,15.09,0,0,0,932.37,747.75Z"/><path class="cls-3" d="M932.36,747.75h77.24c-.81-9.25-9.07-16.51-19.13-16.51a20.5,20.5,0,0,0-4.94.6,19.43,19.43,0,0,0-16.69-9.11,19.94,19.94,0,0,0-12.1,4,20.54,20.54,0,0,0-5.75-.82c-10.6,0-19.2,8.06-19.2,18A13.22,13.22,0,0,0,932.36,747.75Z"/><path class="cls-2" d="M1200,704.62v29.55h-84.6a25.26,25.26,0,0,1,31.68-22.37,25.24,25.24,0,0,1,37.89-7.15,25.24,25.24,0,0,1,15,0Z"/><path class="cls-3" d="M1200,706.85v27.32h-83c1-12,11.75-21.4,24.79-21.4a26.34,26.34,0,0,1,6.4.78,25.18,25.18,0,0,1,21.63-11.8,25.82,25.82,0,0,1,15.68,5.21,26.53,26.53,0,0,1,14.53-.11Z"/><path class="cls-4" d="M1196.6,784.16l-1.92,1.23-12.46,8-13-8-2-1.23-21.11-13-1.62-1-27.62-17-25.47,16.3-5.76,3.64-38.05-23.38-22.38,14.31L1010,754.72l-.56-.34-.75-.46-.7.44-.9.57-13.52,8.65-19-11.67-1.77-1.09h0l-20.15-12.38L928.33,754l-1.17.75-46.5,29.43-1.9,1.21-2-1.21-50.35-30.93L801,769.53l-21.38,13.52-82.37-64-.1-.07L682.81,707.8l0,0,0,0L665.24,719l-.13.09L628,742.66l-36.4-22.36L580,727.7l-2.86,1.83-8.8,5.64-2.23,1.42-.63.4-10.81,6.84-2.86,1.81-11,7-2.88,1.83-11.44,7.24-2.87,1.81-2.83,1.8-6.82-4.19L503,754.39l-36.23-22.26-25.46,16.3-12.46,7.88L408,743.52l-23.71,15.16-40.52-31.49-.71-.56L329.6,716.17,323,720.36l-.38.23L274.75,751l-36.41-22.36L212.88,745l-38.7,24.49-33.81-26.28L101.18,712.7,53.25,743.16,0,777v55.63H146.36l-1.85,1.17-3.62,2.3H588.41l-17.32-7-3.3-1.33H709l-1,.62-1.14.71-9.53,6-2.86,1.81-6.82,4.32H871l-1.08.68h235.65l-.37.23-1,.61-2.32,1.47,0,0-5.2,3.29-1.62,1h0l-28,17.71H1200V782ZM328,820.11l.45-.29.73.29Z"/><path class="cls-5" d="M1199.23,785.39l-17,10.5-17.72-10.5-2.07-1.23-20.09-11.91-1.48-.87-24-14.22-25.47,15.72-5.76,3.52-38.05-22.57-22.38,13.82-14.69-8.72-.18-.11-1.7-1-1.33.82-.37.23-13.42,8.28L971.36,754l-18.73-11.1-18,11.1-7.48,4.63-41.83,25.55-6.57,4-6.76-4-45.55-27L801,772.88l-18.47,11.28-2.91,1.78-2.36-1.78-82.94-62.22-.71-.54-10.79-8.09-11.87,7.28-.69.43L628,747l-36.4-21.58-8.07,5-2.91,1.79-9,5.56-2.9,1.79-2.6,1.6-8.38,5.13L554.8,748l-11.2,6.84-2.93,1.79-11.6,7.08-2.92,1.79-5.41,3.3-9.35-5.54-11.26-6.67-33.38-19.8-25.46,15.73-12.46,7.61L408,747.78l-23.71,14.64L348,735.15l-.68-.51L329.6,721.38l-15.38,9.43-.45.28-39,23.94-36.41-21.59-25.46,15.73-38.7,23.63-39.5-29.64L101.18,718l-41,25.13L0,780.08v53.7H146.36l-3.76,2.3-1.71,1H588.41l-2.67-1-18-7H709l-10.85,6.63-2.9,1.77-6.13,3.75-1.43.87H871l-1.08.65h235.65l-.37.23-2,1.21h0l-1.33.8-4.09,2.5-1.69,1,0,0-29,17.71H1200V785Zm-870,36.32H328l.45-.28Z"/><path class="cls-2" d="M1200,767.29V778h-58c0-.4,0-.79,0-1.18a15.15,15.15,0,0,1,8.29-12.32,15.32,15.32,0,0,1,6.74-1.59,15,15,0,0,1,7.54,2,15,15,0,0,1,16.6,1,15.08,15.08,0,0,1,18.79,1.35Z"/><path class="cls-3" d="M1200,768v10h-57c0-.4,0-.79,0-1.18a14,14,0,0,1,8.48-11.47,14.76,14.76,0,0,1,3.18-1,16,16,0,0,1,3.11-.31,15.43,15.43,0,0,1,7.41,1.87,15.59,15.59,0,0,1,16.33.94,15.41,15.41,0,0,1,8.41-2.46A15.24,15.24,0,0,1,1200,768Z"/><polygon class="cls-2" points="1008.61 753.91 1002.63 757.76 1006.68 758.6 1008.85 761.08 1011.03 758.24 1016.86 759.01 1008.61 753.91"/><polygon class="cls-3" points="1008.78 754.43 1003.65 757.72 1007.12 758.44 1008.98 760.56 1010.85 758.13 1015.84 758.79 1008.78 754.43"/><polygon class="cls-2" points="682.72 707.17 664.99 719.06 677.72 723.91 682.72 721.22 687.8 725.05 698.27 719.96 682.72 707.17"/><polygon class="cls-3" points="682.64 707.84 666.23 718.84 678.01 723.33 682.64 720.84 687.34 724.38 697.03 719.67 682.64 707.84"/><polygon class="cls-2" points="329.4 716.11 307.21 730.4 320.31 731.81 326.01 736.54 333.86 738.49 340.56 738.49 342.87 735.87 352.81 734.4 329.4 716.11"/><polygon class="cls-3" points="329.44 716.76 308.54 730.22 320.88 731.54 326.25 736 333.64 737.84 339.94 737.84 342.12 735.37 351.48 733.98 329.44 716.76"/><path class="cls-6" d="M1200,790.47v86.1H0V789.1c3.29.85,11.77,3.11,21.46,6.15,8.15,2.56,19.94,1.77,27.1.92a26.31,26.31,0,0,0,11.06-3.9c3.08-2,7.31-4.76,11.67-7.89l.31-.22c8.55-5.79,24.28-2.82,38.06-2.39,14,.44,27.41-13.48,36.38-11.3s9,8.26,19.93,9.12,9-8.82,15.94-9.56,19.42-6,51.89,1.64c1.93.45,3.84,1,5.73,1.51,4.91,1.41,18.89,5.11,30.58,5.11a75.14,75.14,0,0,1,29.26,5.87,22.91,22.91,0,0,1,2.13,1.09c4.49,2.61,14,6.08,22.43,6.08s30.4.44,38.37,5.66c6.33,4.15,28.09,3.62,36.76,3.24,2-.09,3.92-.15,5.89-.15,5,0,18.06-.59,37.57-5.26,3.32-.8,7.13-1.47,11.24-2.05,8.08-1.13,17.34-1.88,26.36-2.36,2.26-.12,4.51-.22,6.71-.31l5-.18c6.28-.2,12.11-.3,16.91-.34h1.75c1.17,0,2.35,0,3.52,0A120.75,120.75,0,0,1,530,791c2.5.4,5.5.84,8.87,1.27q2.89.38,6.14.72c5.84.63,12.43,1.17,19.38,1.43,1.78.06,3.59.11,5.41.14a189.71,189.71,0,0,0,19.46-.66c1.55-.14,3.08-.3,4.61-.49a109,109,0,0,0,15.89-3q1.38-.39,2.73-.81l1-.32a154.47,154.47,0,0,1,15.35-3.85c1.42-.28,2.83-.53,4.21-.76,1.09-.19,2.17-.36,3.23-.51,4.35-.64,8.49-1,12.32-1.3,1-.07,2-.12,2.95-.16l2-.08a113.1,113.1,0,0,1,21.77,1.54q4.77.8,9.43,2c8.32,2.08,22.65,4.08,35.38-2l.46-.22c8.63-4.24,24.72-2.75,39.94.22A315.9,315.9,0,0,1,793,792.53q5.5,1.72,11.17,3c15.36,3.52,53,11.5,72.93,10.14,25.42-1.74,38.87,4.78,53.82,6.95s85.21-2.17,105.14-10.87c16.47-7.18,30.21-12,50.23-5.35a94,94,0,0,1,13.55,5.79c1.13.58,2.27,1.11,3.43,1.59,21.22,8.89,48,3,59.38-.3,2.46-.71,4.86-1.54,7.22-2.46,2.91-1.14,8.92-3.18,14.68-3.18C1192.48,797.86,1200,790.47,1200,790.47Z"/><path class="cls-7" d="M1200,794.33v82.24H0V793c3.29.82,11.77,3,21.46,5.88,8.15,2.44,19.94,1.69,27.1.87a27.07,27.07,0,0,0,11.06-3.71c3.08-1.88,7.31-4.55,11.67-7.54,8.47-5.82,24.42-2.91,38.37-2.5a29.09,29.09,0,0,0,10.46-1.86c10-3.48,19.22-10.49,25.92-8.93,9,2.07,9,7.89,19.93,8.72s9-8.44,15.94-9.14,19.42-5.77,51.89,1.56q2.9.66,5.73,1.44c4.91,1.35,18.89,4.89,30.58,4.89a81.77,81.77,0,0,1,15.2,1.46c7.53,1.44,13.4,3.64,16.19,5.19A52.54,52.54,0,0,0,324,795.16c8.47,0,30.4.42,38.37,5.4,6.33,4,28.09,3.46,36.76,3.09,2-.09,3.92-.13,5.89-.14,5,0,18.06-.56,37.57-5,1.61-.37,3.34-.71,5.15-1a262.41,262.41,0,0,1,27.58-2.91c5.54-.33,11.07-.57,16.3-.74l5.08-.14c5.21-.12,10-.17,13.9-.2,1.1,0,2.2,0,3.3,0,1.85,0,3.7.11,5.54.24,3.54.23,7.08.61,10.58,1.14,3.83.58,8.82,1.25,14.55,1.86,1.9.19,3.88.38,5.93.55,5.84.5,12.24.87,18.85,1,1.74,0,3.5,0,5.26,0a180.58,180.58,0,0,0,18.89-1.06c1.51-.17,3-.37,4.49-.58a103,103,0,0,0,14.52-3.15l.89-.26c1.28-.38,2.55-.74,3.81-1.07a156.12,156.12,0,0,1,16-3.39c1.49-.24,3-.45,4.38-.64,5-.66,9.71-1,14-1.23.77,0,1.55-.06,2.32-.08q2.64-.06,5.28,0a121.62,121.62,0,0,1,25.62,3.35c8.42,2,23,4,35.84-2.08,16.18-7.61,58.59,4.07,72.36,8.19q5.5,1.66,11.17,2.9c15.36,3.36,53,11,72.93,9.68,25.42-1.67,38.87,4.57,53.82,6.64s85.21-2.07,105.14-10.38c15.34-6.39,28.31-10.82,46.2-6.27a90.46,90.46,0,0,1,17.58,6.69c1.13.55,2.27,1.06,3.43,1.52,21.22,8.48,48,2.81,59.38-.29,2.46-.68,4.86-1.47,7.22-2.35,2.91-1.09,8.92-3,14.68-3C1192.48,801.39,1200,794.33,1200,794.33Z"/><rect class="cls-8" y="876.57" width="1200" height="306.52"/><path class="cls-3" d="M613,831.15l-7.27-6.45-1.61-1.43H599.3l1.6,1.43,9.46,8.38.69.61,2.7-1.89Zm0,0-7.27-6.45-1.61-1.43H599.3l1.6,1.43,9.46,8.38.69.61,2.7-1.89Zm0,0-7.27-6.45-1.61-1.43H599.3l1.6,1.43,9.46,8.38.69.61,2.7-1.89Zm0,0-7.27-6.45-1.61-1.43H599.3l1.6,1.43,9.46,8.38.69.61,2.7-1.89Zm0,0-7.27-6.45-1.61-1.43H599.3l1.6,1.43,9.46,8.38.69.61,2.7-1.89Zm0,0-7.27-6.45-1.61-1.43H599.3l1.6,1.43,9.46,8.38.69.61,2.7-1.89Zm0,0-7.27-6.45-1.61-1.43H599.3l1.6,1.43,9.46,8.38.69.61,2.7-1.89Zm0,0-7.27-6.45-1.61-1.43H599.3l1.6,1.43,9.46,8.38.69.61,2.7-1.89Zm0,0-7.27-6.45-1.61-1.43H599.3l1.6,1.43,9.46,8.38.69.61,2.7-1.89Zm0,0-7.27-6.45-1.61-1.43H599.3l1.6,1.43,9.46,8.38.69.61,2.7-1.89Zm0,0-7.27-6.45-1.61-1.43H599.3l1.6,1.43,9.46,8.38.69.61,2.7-1.89Zm143.66,49.18-.09-.19a5.6,5.6,0,0,0-3.93-2.86l-.31,0-.91-.12h-.06l-1.81-.18c-3-.25-7.32-.51-12.37-.76l-2.22-.1h-.06l-1.46-.07c-3.08-.14-6.35-.28-9.71-.41h0l-2.28-.09c-12.82-.48-26.52-.89-35.23-1.13l-41.35-35.75-1.07-.93L624.54,821l-48-41.48-3.29-2.85-1.91-1.65-64.64-55.9-3.27-2.83L490.12,704.8l4.84-4.72c3.53-8.58-6.08-5.88-6.08-5.88l-57.29,50.66-2.66,2.35L395.57,776.7l-10.41,9.2-5.67,5L345.43,821l-12.66,11.19-1.27,1.12-9.57,8.45c-26.67,22.13-60.33,31.21-94.31,32l-29.73.67a7.23,7.23,0,0,0-3.61,1.06,7.24,7.24,0,0,0-3.48,6.54,7.68,7.68,0,0,0,.22,1.4,13.89,13.89,0,0,0,.91,2.42,4.06,4.06,0,0,0,3.87,2.36l17.95-.61,19.43-.66,76.92-2.61.16,15.85,0,4.81,0,3h30.32l-.6-24.81L434,881.09V908h21.77V880l.39,0c68.09-2.67,179.7,2.87,245.25,6l4.78.23.05,3.08.31,18.71H733l-.79-20.46c8.84.48,15.39.87,18.93,1.1a5.84,5.84,0,0,0,6.14-4.94A5.51,5.51,0,0,0,756.68,880.33Zm-382.29-9.86c-50,1.83-33.54-19.8-33.54-19.8l4.45-4.33ZM348,843.68l9.16-8.92,39.69,34.76c-5.47.19-11.09.44-16.82.73Zm58.34-11.46L393.59,821,381.8,810.66l8.92-8.7L411.62,821l12.26,11.19,1.23,1.12,38.2,34.83c-4.39,0-9.74.06-15.9.14l-39.8-35Zm43.5,1.12,39.3,34.84H476s-2.78,0-7.83,0L430,833.34l-1.22-1.12L416.5,821l-23.43-21.38,8.91-8.72,34,30.1,12.62,11.19Zm38-126.27,13,11.21,3.23,2.79,62.72,54.23,1.61,1.4,3.31,2.85,48,41.48,2.59,2.24.76.66.89.77h0l15,13,1.08.93,41.19,35.61-2.73-.09c-4.29-.15-8.56-.4-12.86-.81-1.78-.17-3.64-.31-5.52-.47l-38.61-34.24-1.05-.93-6.65-5.9-.73-.65-7.27-6.45-1.61-1.43L601.61,821,556.42,781l-4.18-3.71-.61-.54-56-49.69-3.05-2.71-11.75-10.42Zm-9.3,9.09,11.38,10.09,3,2.67,53.87,47.78,1.53,1.36,4,3.57L596.77,821l2.53,2.24,1.6,1.43,9.46,8.38.69.61,4.52,4,1,.93,38.14,33.83c-6.77-.5-14-1-21.57-1.32L581.42,824.7l-1.59-1.43L577.32,821l-39.88-35.78L534,782.17l-6.1-5.47-45.24-40.58-2.85-2.56-10-8.93Zm-11,10.71,9.62,8.64L480,738l43.12,38.68,7.44,6.67,3.38,3L572.5,821l2.5,2.24,1.59,1.43,51.46,46.15c-6.17-.3-12.53-.57-19-.79L558.31,824.7l-1.6-1.43L554.2,821l-34.67-31-3.82-3.42-11.12-9.93L469.5,745.33,466.85,743l-8.24-7.37Zm-11.24,11,7.88,7,2.6,2.33,32.95,29.45,11.7,10.45,3.94,3.52,34,30.36,2.52,2.24,1.6,1.43L604,869.89c-6.17-.24-12.4-.41-18.63-.58L534.92,824.7l-1.62-1.43L530.77,821l-33-29.23-4.46-3.95L480.65,776.7l-24.72-21.87-2.45-2.17L447,746.93Zm-14.49,14.17,2.92-2.84,6.1,5.39,2.4,2.13,22.58,20,12.44,11,4.61,4.08L525.91,821l2.54,2.24,1.61,1.43,50.28,44.47c-6-.12-11.9-.26-17.75-.35L513.24,824.7l-1.6-1.43L509.13,821l-33.87-30.29-5.09-4.56-10.61-9.48-22.45-20.08,2.33-2.28Zm-7,6.85,19.92,17.8,9.75,8.71,5.29,4.73L504.3,821l2.51,2.24,1.6,1.43,49.26,44c-6.83-.1-13.47-.2-19.85-.27L498.4,833.34l-1.25-1.12L484.59,821l-38.28-34.1-4.95-4.42-6.54-5.81-9.56-8.53Zm-11.85,11.55,7,6.25,6.5,5.79,4.71,4.19L479.7,821l12.56,11.19,1.25,1.12,39.32,35-17.69-.13-38.61-34.9-1.24-1.12L462.91,821l-37.79-34.16-4.44-4L415.27,778l1.29-1.26Zm-13.2,12.93,3.19-3.11,3.07,2.78,4.39,4L458,821l12.38,11.19,1.24,1.12,38.56,34.86c-6,0-11.4,0-16-.05l-39.27-34.81-1.26-1.12L441,821,404.4,788.58l.79-.77ZM379.38,813l9.1,8,12.74,11.19,1.27,1.12,39.88,35c-4.67.08-9.7.16-15.05.28l-42.24-35.3-1.34-1.12-12.93-10.81.39-.38Zm-19.3,19.19-.18-.16,8.43-8.21,10,8.37,1.34,1.12,42.38,35.42c-6.22.14-12.8.33-19.61.57l-41.09-36ZM613,831.15l-7.27-6.45-1.61-1.43H599.3l1.6,1.43,9.46,8.38.69.61,2.7-1.89Zm0,0-7.27-6.45-1.61-1.43H599.3l1.6,1.43,9.46,8.38.69.61,2.7-1.89Zm0,0-7.27-6.45-1.61-1.43H599.3l1.6,1.43,9.46,8.38.69.61,2.7-1.89Zm0,0-7.27-6.45-1.61-1.43H599.3l1.6,1.43,9.46,8.38.69.61,2.7-1.89Zm0,0-7.27-6.45-1.61-1.43H599.3l1.6,1.43,9.46,8.38.69.61,2.7-1.89Zm0,0-7.27-6.45-1.61-1.43H599.3l1.6,1.43,9.46,8.38.69.61,2.7-1.89Zm0,0-7.27-6.45-1.61-1.43H599.3l1.6,1.43,9.46,8.38.69.61,2.7-1.89Zm0,0-7.27-6.45-1.61-1.43H599.3l1.6,1.43,9.46,8.38.69.61,2.7-1.89Zm0,0-7.27-6.45-1.61-1.43H599.3l1.6,1.43,9.46,8.38.69.61,2.7-1.89Zm0,0-7.27-6.45-1.61-1.43H599.3l1.6,1.43,9.46,8.38.69.61,2.7-1.89Z"/><path class="cls-9" d="M996.32,1149.88H996l-21.23-.53-38.09-.95-149.11-3.72-564.18,3.72L0,1149.86V839.42l.86,0c1.48-.08,3.39-.17,5.71-.26l.79,0c1.3-.05,2.71-.1,4.23-.14,7.44-.23,17.44-.4,29.13-.25l2.13,0c14.4.23,31.18.94,48.77,2.59q3.07.29,6.19.62a407.84,407.84,0,0,1,48.7,7.92l.15,0c5.47,1.27,10.85,2.67,16.1,4.23a201.14,201.14,0,0,1,25.33,9.27c8.78,4,17.13,8.29,25.08,12.88,56.38,32.57,93.11,78.34,127,97.25,38.63,21.58,86.61,40.19,112.16,40.19H617.45c35.52,0,81.63,2.23,115.9,7.44s69.79,41.67,99.08,46.88c25.88,4.6,133.89,19.65,158.77,63.09h0a40.82,40.82,0,0,1,3,6.49,35.93,35.93,0,0,1,2.08,10.41c0,.12,0,.24,0,.37C996.31,1148.88,996.32,1149.38,996.32,1149.88Z"/><path class="cls-10" d="M974.76,1149.34l-220,.54H0V858.16c1.7-.08,4.18-.2,7.36-.31,1.3-.05,2.71-.1,4.23-.14,7.93-.23,18.78-.39,31.46-.18l2.57.05c6.34.12,13.08.35,20.11.7l3.08.16,4,.23q7.75.48,15.82,1.19c1,.08,2,.18,3.09.28,6.71.63,13.53,1.4,20.36,2.33,2.15.29,4.31.6,6.46.92l4.92.77c5.72,1,11.43,2,17,3.21,4.22.89,8.4,1.87,12.5,2.94,5.84,1.5,11.54,3.18,17,5.05l2.62.9q5.82,2.07,11.28,4.42c69.5,30.07,111,83.21,148.77,103.48s84.74,37.76,109.74,37.76H604.07c34.74,0,79.87,2.1,113.4,7s68.3,39.15,96.94,44c28.4,4.85,158,22.07,160.32,75.43C974.75,1148.7,974.76,1149,974.76,1149.34Z"/><rect class="cls-4" x="9.47" y="1162.65" width="134.47" height="1.95" rx="0.87"/><rect class="cls-4" x="93.07" y="1175.47" width="87.96" height="1.95" rx="0.87"/><rect class="cls-4" x="165.43" y="1168.57" width="89.1" height="1.95" rx="0.87"/><rect class="cls-4" x="220.91" y="1157.78" width="67.23" height="1.95" rx="0.87"/><rect class="cls-4" x="155.44" y="1161.67" width="57.72" height="1.95" rx="0.87"/><rect class="cls-4" x="0.49" y="1169.81" width="57.72" height="1.95" rx="0.87"/><path class="cls-4" d="M1013.42,1149.72v.31a1.34,1.34,0,0,1-1.34,1.34H0v-3H1012.08A1.34,1.34,0,0,1,1013.42,1149.72Z"/><path class="cls-11" d="M696.07,509.85c-8.17-3.4-14.6-8.55-17.64-14.73a25.21,25.21,0,0,1-2.27-6.33c-1.93-9.68-12-18.48-12-18.48s-15.23-12.15-21.9-16.14A41.59,41.59,0,0,1,636,449.4a72,72,0,0,1-13.17-15.5,66.2,66.2,0,0,0-5.37-7.35,23.18,23.18,0,0,1-5.55-13.45v-.18s.3-4.58-2.78-25S628,364.45,628,364.45s22.65-4.61,39.7,17.89c16.53,21.85,34,15.26,35,14.85-1,.16-13.92,2.27-24.42-10.52-10.9-13.27-18.86-19.42-18.86-19.42,31.26,2.6,35.28-6.07,35.48-6.54-2.7,2.07-22.13,2.58-28.49,1.65-5-.72-28.51-5.72-28.51-5.72C672.17,341.12,666,323.23,666,323.23s-1,4.48-5.82,11.09c-2.82,3.89-7.46,6.85-9.14,7.91-8.21,5.27-28.5,11.33-28.5,11.33s6.7-5.74,7.26-26,13.83-26,13.83-26c-3.48-.43-8.52,3.35-8.52,3.35-2.62,1.53-10.56,12.29-11.31,17.61-.71,5-7.75,31.25-12.51,35-4.47,3.55-12.1,12.48-13,12.76s-2.84-3.07-2.84-3.07c-5.32-9.08,0-10.48,8.94-21.37a25.17,25.17,0,0,0,4.89-22.8s-1.41,8.46-3.71,13.77a26.16,26.16,0,0,1-5.57,8.29,152.8,152.8,0,0,1-13.2,11.07c-2.77-2.93-2.51-8.52-2.51-8.52,1.72-17.74,14.36-22,24.37-35.33s-.33-21.7-.33-21.7c4.33,7.34,1,16.69-7.68,22.71s-20.36,15.88-20.36,15.88c3.66-33.2-17-34.91-17-34.91,5.49,4.54,8.26,9,9.63,12.33a16,16,0,0,1,1,8.17c-1.52,12.45,1.2,21.41,1.42,28.45.33,9.73-1.39,15.15-1.39,15.15s-40.74-1.33-26-22.72c14.29-20.81,2.65-30.51,2-31,.43.93,6.12,13.59-2.37,21.65-8.65,8.22-8,17-8,17-21.22-16-30.07-2.86-30.41-2.34.59-.44,12.93-9.32,23.69,5,11,14.68,15.7,15,15.7,15l-8.42,2.79a59.74,59.74,0,0,0-10.62,4.74c-18.08,10.37-27.38.48-27.38.48,8.91,13.83,28.84,3.69,32,2-1.13.74-4.68,3.58-10.61,13-7.12,11.33-27.72,17.31-29,17.67a64.23,64.23,0,0,0,32-12.7,29.86,29.86,0,0,0,7.07-7.71c5.23-8.12,20.14-27,38.05-12.29,22.36,18.36,8.2,45.67,8.07,49.54,0,.75-.18,1.79-.26,2.65-.26,2.49,0,5-1.42,7.15a8.28,8.28,0,0,1-2.47,2.5,77.13,77.13,0,0,1-15.34,7.28,82,82,0,0,0-11.36,5,38.55,38.55,0,0,0-15.76,16.4,33.72,33.72,0,0,0-3.54,11.77,45.49,45.49,0,0,0-.22,5.54c0,2.37-2.41,4.37-5.81,4.76-.83.11-1.83.2-3,.28-8.6.55-11.64,11.87-11.64,11.87a19,19,0,0,1-5.77,9.74,38.52,38.52,0,0,0-6.93,8.25c-.87,1.34-1.83,2.64-2.85,3.94l-.37.42c2,1.16,4,2.27,6.05,3.37.47-.51.94-1,1.45-1.52,1.26-1.28,3.4-3.48,5.74-6a45.48,45.48,0,0,0,1.75,4.86,12.22,12.22,0,0,1,1,7.57c2.09,1,4.22,1.9,6.37,2.78,1.59-3.14,2.39-7.23-.86-11a14,14,0,0,1-3.53-9.66c2.66-3.17,4.87-6.25,5.46-8.24a20.81,20.81,0,0,1,2.81-5.77c1.78-2.55,5.4-4.25,9.58-4.45a.86.86,0,0,0,.21,0,12.22,12.22,0,0,0,4-.86c4-1.54,6.49-4.37,6.95-7.54a82.45,82.45,0,0,0,.92-9.13v-.18c.28-6,3.39-11.7,8.95-16.15,4.31-3.48,10.3-7.13,17.05-7.85,0,0-3,5.38,5.4,11.32,7.19,5.11-5.41,15.59-9,18.36-1,.77-1.93,1.55-2.86,2.37-3.11,2.75-8.85,8.19-9.62,11.54-.72,3.18-4.72,5.42-7.14,6.53a44.09,44.09,0,0,0-7.35,4.15c-3.67,2.67-8.12,6.7-9.38,11.36-1.49,5.55-2.7,9.18-3.34,11a23.36,23.36,0,0,1-.95,2.19,36.91,36.91,0,0,0-1.66,4.2c1.88.74,3.79,1.42,5.7,2.1a36.94,36.94,0,0,1,2.37-6.38,30.5,30.5,0,0,0,.3,7.29c1.52.51,3,1,4.54,1.46a8.56,8.56,0,0,1-.86-4.83c.1-3.25,1.37-5.2.11-9.09a7.77,7.77,0,0,1-.6-2.53,9.6,9.6,0,0,1,1.17-3.8,49.8,49.8,0,0,1,3.36-5.38s2.73-4.3,13.54-8.89c0,0-1.46,11.17,1.55,15.19s4.43,6.13,4.56,8.68-2,9.32-2,9.32a37.49,37.49,0,0,0-1.3,6.41c2.59.56,5.2,1.06,7.87,1.54.1-.3.2-.61.33-.9a22.11,22.11,0,0,0,1.47-6.38c3.51.26,3.76,3.83,5.51,6.13a4.08,4.08,0,0,1,.77,2.44l3.69.49c0-.23,0-.46,0-.7.38-10.86-10-16.14-10-16.14l0,0c-2-5.11-4.52-9.42-4.45-16.6,0-3.22-2.49-7.69-.57-13.54,3.77-11.76,12.6-15.5,12.6-15.5s12.51-9.57,10.42-16.58c0,0,2.65.19,7.93,6.47a32.78,32.78,0,0,0,6.31,4.78s-16.14,15.65-17.56,21.71-5.87,12.87.57,21.31c0,0,1.15,1.49,6.56,6.15a6.86,6.86,0,0,1,2.55,4.51,6.68,6.68,0,0,0,1.41,3.92c.5.51,1.35,1.41,2.3,2.44a13.84,13.84,0,0,1,3.44,9.48c2.3.1,4.61.15,6.91.17a8.13,8.13,0,0,0,1.28-4.25c-.26-2.26-3.86-5.94-6.33-8.21a4.05,4.05,0,0,1-1.49-3.7c.16-1-.05-2.45-1.58-4.23a71.5,71.5,0,0,0-5.35-5.38c-3.24-3-5-6.58-4.84-10.21a16.91,16.91,0,0,1,4.49-10.64c.72-.85,1.41-1.7,2-2.58,1.22-1.79,4.36-5.69,11.77-11.92a14.35,14.35,0,0,1,0,7.29,25.2,25.2,0,0,0-.55,7.14c.18,2.2.32,5.07.26,7.95a11.54,11.54,0,0,1-1.38,4.43,13.68,13.68,0,0,0-1.83,8.91c.38,2.41,1.18,4.91,2.86,6.33a14.75,14.75,0,0,1,3.91,6,9.08,9.08,0,0,1,.18,5.64l-1.47,5.18a4,4,0,0,0-.11,2.21q4.53,0,9-.18a3.33,3.33,0,0,1,1.36-2.16c2.65-2.21,4.76-11,.18-14.85s-8.31-10.61-3.89-13.24,6.15-11.71,3.43-19.13,1.47-9.67,1.47-9.67a41.9,41.9,0,0,1,18.48,8.44s3.07,7.67,8.6,10.47,7.54,6.16,7.54,6.16,2.5,4.71-4,8.81a15.45,15.45,0,0,0-4.78,4.88,11.11,11.11,0,0,0-.48,11.23l0,.08a11.61,11.61,0,0,1,1.61,4.63c0,.44.08.88.11,1.34,2.19-.38,4.35-.77,6.49-1.21a22.32,22.32,0,0,0-1.75-5.81c-2-4.93.53-10.15,6.62-12.85.2-.1.43-.18.66-.29,0,0,3.55,7.7,15.4,13.59,3.39-1,6.74-2.21,10-3.44-2.11-3.06-6.49-9.56-10-15.74-5.3-9.37-2.06-14.28-2.06-14.28a18.6,18.6,0,0,0,1.06-6.18s.45,1,1.25,2.62c4.15,8,12.88,14.65,24.07,18.39l.18,0a18.38,18.38,0,0,1,7.42,5.15q2.94-1.59,5.8-3.32A27.84,27.84,0,0,0,696.07,509.85Zm-88.69-52.16c-1.88,2.4-4.64,6.33-4.87,8.66,0,.22-.34.35-.61.22-2-1-8.22-4.29-10.26-8.59-1.28-2.73-5-4.82-8.11-6.16-5.09-2.19-7.44-6.51-5.2-10.16a8.76,8.76,0,0,1,2.87-2.81c6.2-4,12.55-4.61,12.45-16.92,0-.43,0-.87,0-1.33s-.06-1.16-.09-1.76a14.43,14.43,0,0,0,.7,1.78c.18.39.38.85.64,1.34a43.68,43.68,0,0,0,11.28,13.49A13.81,13.81,0,0,1,611.5,448,18.69,18.69,0,0,1,607.38,457.69Zm64,70.82s-6-1.51-11.2-10a23.2,23.2,0,0,1-2.94-7.81c-.39-2.14-2-5.79-8.11-9.91l-.87-.57c-.93-.61-1.8-4-7-9.22-7.24-7.25-25.68-12.19-28.09-12.73a.44.44,0,0,1-.26-.18h0c-4-5.84-1.73-6.89,0-10.07a26.24,26.24,0,0,1,8.9-9.52A10.88,10.88,0,0,0,625,455.4a3.19,3.19,0,0,0,.61-2.63s8.65,6.26,16.89,11.83a54.43,54.43,0,0,1,14.34,14,19,19,0,0,0,2.17,2.81,11.08,11.08,0,0,1,2.9,4.79,28.58,28.58,0,0,1,.62,10.73c-1,6.61-3.6,7.51-1.39,12.74C663.58,515.6,671.38,528.51,671.38,528.51Z"/><path class="cls-12" d="M539.3,326.45a19.85,19.85,0,0,1-2.28,9.22C526.1,333,518.09,324.3,518.09,314a19.85,19.85,0,0,1,2.28-9.23C531.29,307.42,539.3,316.13,539.3,326.45Z"/><path class="cls-12" d="M596.66,307.35a19.79,19.79,0,0,1-7,6.41c-7.63-8.26-9.48-19.94-3.76-28.53a19.75,19.75,0,0,1,7-6.43C600.51,287.07,602.37,298.75,596.66,307.35Z"/><path class="cls-12" d="M646,338.59a19.63,19.63,0,0,1-9.2,2.35c-2.83-10.88,1-22,10.14-26.93a20,20,0,0,1,9.21-2.37C658.92,322.53,655.05,333.71,646,338.59Z"/><path class="cls-12" d="M668.53,357.88a19.87,19.87,0,0,1-8.71-3.79c4.45-10.33,14.37-16.76,24.54-15a19.8,19.8,0,0,1,8.72,3.78C688.62,353.15,678.7,359.6,668.53,357.88Z"/><path class="cls-12" d="M507,363.4a19.79,19.79,0,0,1-6.33-7.08c8.35-7.52,20.06-9.23,28.58-3.42a19.89,19.89,0,0,1,6.34,7.08C527.19,367.5,515.49,369.21,507,363.4Z"/><path class="cls-1" d="M114.34,912.37a37.85,37.85,0,0,1-6.29,21.37,37.89,37.89,0,0,1,6.29,21.38c0,17.92-11.37,32.45-25.41,32.45S63.53,973,63.53,955.12a37.89,37.89,0,0,1,6.29-21.38,37.85,37.85,0,0,1-6.29-21.37,39.28,39.28,0,0,1,3.4-16.23,39.28,39.28,0,0,1-3.4-16.23c0-17.93,11.37-32.46,25.4-32.46s25.41,14.53,25.41,32.46a39.28,39.28,0,0,1-3.4,16.23A39.28,39.28,0,0,1,114.34,912.37Z"/><path class="cls-5" d="M88.77,881.59h.33A1.43,1.43,0,0,1,90.53,883v133.39a0,0,0,0,1,0,0H87.34a0,0,0,0,1,0,0V883a1.43,1.43,0,0,1,1.43-1.43Z"/><path class="cls-5" d="M90.17,892.51l-2.26-1.68L94.43,886a2,2,0,0,1,2.26,0h0a1,1,0,0,1,0,1.69Z"/><path class="cls-5" d="M89.6,919.85l-2.26-1.68,6.51-4.87a2,2,0,0,1,2.26,0h0a1,1,0,0,1,0,1.69Z"/><path class="cls-5" d="M90.5,951.38l-2.26-1.69,6.52-4.86a2,2,0,0,1,2.26,0h0a1,1,0,0,1,0,1.68Z"/><path class="cls-5" d="M88.27,934.79l2.26-1.69L84,928.24a2,2,0,0,0-2.26,0h0a1,1,0,0,0,0,1.69Z"/><path class="cls-5" d="M87.61,972l2.26-1.69-6.52-4.86a2,2,0,0,0-2.25,0h0a1,1,0,0,0,0,1.69Z"/><path class="cls-5" d="M87.94,904.92l2.26-1.69-6.51-4.86a2,2,0,0,0-2.26,0h0a1,1,0,0,0,0,1.68Z"/><path class="cls-13" d="M27.85,948.19c-.21.43-.42.86-.63,1.27a64.31,64.31,0,0,1,6.42,26.13v0c.07,1.15.1,2.33.1,3.51s0,2.08-.07,3.11v0c-.5,12.62-4,23.8-9.35,31.44a33.89,33.89,0,0,1-2.68,3.37c-3.66,4-8,6.57-12.57,7.07-.54,0-1.09.08-1.65.08a15.39,15.39,0,0,1-1.66-.09,15.65,15.65,0,0,1-4-.94,17.87,17.87,0,0,1-1.8-.79v-191a16.43,16.43,0,0,1,7.42-1.82c14.54,0,26.32,20.18,26.32,45.09a71.24,71.24,0,0,1-3.52,22.54c.64,1.9,1.19,3.88,1.67,5.94a72.69,72.69,0,0,1,1.82,14.76c0,.61,0,1.23,0,1.85a74.43,74.43,0,0,1-1.09,12.81A60.27,60.27,0,0,1,27.85,948.19Z"/><path class="cls-5" d="M7.25,877h.34a1.48,1.48,0,0,1,1.48,1.48v185.81a0,0,0,0,1,0,0H5.76a0,0,0,0,1,0,0V878.5A1.48,1.48,0,0,1,7.25,877Z"/><path class="cls-5" d="M8.7,892.19l-2.34-2.34L13.23,883a1.48,1.48,0,0,1,2.1,0l.24.24a1.48,1.48,0,0,1,0,2.1Z"/><path class="cls-5" d="M8.1,930.17l-2.34-2.34L12.64,921a1.47,1.47,0,0,1,2.09,0l.25.24a1.5,1.5,0,0,1,0,2.1Z"/><path class="cls-5" d="M9,974,6.7,971.62l6.87-6.88a1.48,1.48,0,0,1,2.1,0l.24.24a1.48,1.48,0,0,1,0,2.1Z"/><path class="cls-5" d="M9.07,948.58l-2.34,2.34-1-1L0,944.17v-2.36l.11-.11a1.48,1.48,0,0,1,2.1,0Z"/><path class="cls-5" d="M8.39,1000.19l-2.34,2.35-.29-.29-1.58-1.59L0,996.48V993a1.43,1.43,0,0,1,1.52.35l1.16,1.16,3.08,3.09Z"/><path class="cls-5" d="M8.73,907.08l-2.34,2.34L0,903v-3a1.47,1.47,0,0,1,1.86.19Z"/><path class="cls-13" d="M124.48,948.3c0,14.53-13.37,26.3-29.86,26.3s-29.86-11.77-29.86-26.3,29.86-92.12,29.86-92.12S124.48,933.78,124.48,948.3Z"/><path class="cls-5" d="M94.39,921.77h.46a2,2,0,0,1,2,2v85.62a0,0,0,0,1,0,0h-4.4a0,0,0,0,1,0,0V923.74a2,2,0,0,1,2-2Z"/><path class="cls-5" d="M95.66,930.45l-1.85,2.83-9-4.6a1.54,1.54,0,0,1-.68-2.23h0a2,2,0,0,1,2.54-.59Z"/><path class="cls-5" d="M95.32,956.36l-1.85,2.82-9-4.59a1.53,1.53,0,0,1-.67-2.23h0a2,2,0,0,1,2.53-.6Z"/><path class="cls-5" d="M94,943.4l1.86,2.83,9-4.59a1.53,1.53,0,0,0,.68-2.23h0a2,2,0,0,0-2.53-.6Z"/><path class="cls-5" d="M94.33,970.38l1.85,2.83,9-4.6a1.53,1.53,0,0,0,.68-2.23h0a2,2,0,0,0-2.53-.59Z"/><path class="cls-1" d="M141.55,962.76c0,10.49-9.39,19-21,19s-21-8.51-21-19,21-66.54,21-66.54S141.55,952.27,141.55,962.76Z"/><path class="cls-5" d="M120.41,943.6h.32a1.38,1.38,0,0,1,1.38,1.38v61.88a0,0,0,0,1,0,0H119a0,0,0,0,1,0,0V945a1.38,1.38,0,0,1,1.38-1.38Z"/><path class="cls-5" d="M121.31,949.87l-1.3,2-6.35-3.32a1.12,1.12,0,0,1-.48-1.61h0a1.38,1.38,0,0,1,1.78-.43Z"/><path class="cls-5" d="M121.07,968.58l-1.3,2-6.35-3.32a1.13,1.13,0,0,1-.48-1.61h0a1.38,1.38,0,0,1,1.78-.43Z"/><path class="cls-5" d="M120.13,959.22l1.31,2,6.34-3.31a1.12,1.12,0,0,0,.48-1.61h0a1.38,1.38,0,0,0-1.78-.44Z"/><path class="cls-5" d="M120.37,978.71l1.3,2,6.35-3.32a1.12,1.12,0,0,0,.48-1.61h0a1.38,1.38,0,0,0-1.78-.43Z"/><path class="cls-13" d="M71.81,935.54a48.26,48.26,0,0,1-4.73,21.59,48.18,48.18,0,0,1,4.73,21.58c0,18.1-8.56,32.77-19.13,32.77s-19.12-14.67-19.12-32.77a48,48,0,0,1,4.73-21.58,48.12,48.12,0,0,1-4.73-21.59,51.54,51.54,0,0,1,2.56-16.38,51.56,51.56,0,0,1-2.56-16.39c0-18.1,8.56-32.77,19.12-32.77s19.13,14.67,19.13,32.77a51.56,51.56,0,0,1-2.56,16.39A51.54,51.54,0,0,1,71.81,935.54Z"/><path class="cls-5" d="M52.56,904.47h.25a1.08,1.08,0,0,1,1.08,1.08v135a0,0,0,0,1,0,0H51.48a0,0,0,0,1,0,0v-135a1.08,1.08,0,0,1,1.08-1.08Z"/><path class="cls-5" d="M53.61,915.5l-1.7-1.7,5-5a1.07,1.07,0,0,1,1.52,0l.18.18a1.07,1.07,0,0,1,0,1.52Z"/><path class="cls-5" d="M53.18,943.1l-1.7-1.7,5-5a1.09,1.09,0,0,1,1.53,0l.17.18a1.06,1.06,0,0,1,0,1.52Z"/><path class="cls-5" d="M53.86,974.93l-1.7-1.7,5-5a1.07,1.07,0,0,1,1.52,0l.18.18a1.07,1.07,0,0,1,0,1.52Z"/><path class="cls-5" d="M52.18,958.19l1.71-1.71-5-5a1.07,1.07,0,0,0-1.52,0l-.18.18a1.09,1.09,0,0,0,0,1.53Z"/><path class="cls-5" d="M51.69,995.7l1.7-1.7-5-5a1.07,1.07,0,0,0-1.52,0l-.18.18a1.07,1.07,0,0,0,0,1.52Z"/><path class="cls-5" d="M51.94,928l1.7-1.7-5-5a1.07,1.07,0,0,0-1.52,0l-.18.18a1.07,1.07,0,0,0,0,1.52Z"/><path class="cls-4" d="M78.66,1041.85v4.54l-3.54.29a12.34,12.34,0,0,1-5-.61l-7.3-2.47s-8.48,8.53-12.19,11.75-2.91,5.33-2.91,5.33L52,1074.12l3.39,3.9H49.6L41,1055.3c8-5.6,8.62-11.79,8.66-13.3l-18.55,13.92,17.59-17.75s4.68-5.13,5.68-11.71,7.69-7.7,7.69-7.7-.56,5.46.62,16.06S78.66,1041.85,78.66,1041.85Z"/><path class="cls-14" d="M62.85,1043.6l-.1,0Z"/><path class="cls-4" d="M105.42,1023.55a27.33,27.33,0,0,1-6.49,16.13,28.18,28.18,0,0,0-4,5.87c-5.86,11.54-7.18,24.46-7.44,28.3a3.68,3.68,0,0,0,.46,2.08l.68,1.23H84.49c.61-9.69,4.89-28.52,5.55-31.35a.28.28,0,0,0-.3-.33l-4.71.38c-1.23-18.31,3.63-22.19,3.63-22.19.45,5.91,5.45,5.35,5.45,5.35s.46-1.33-1.4-6.35-1.4-13.61-1.4-13.61c8.33,2.12,12.11-4,12.11-4A47.16,47.16,0,0,1,105.42,1023.55Z"/><path class="cls-14" d="M62.85,1043.6l-.1,0Z"/><path class="cls-15" d="M103.42,1005s-3.78,6.15-12.11,4c0,0-.45,8.58,1.4,13.61s1.4,6.35,1.4,6.35-5,.56-5.45-5.35c0,0-4.86,3.88-3.63,22.19h0l-5.63.46-.74.06v-4.54s-14.83,3.56-16-7-.62-16.06-.62-16.06-6.68,1.12-7.69,7.7-5.68,11.71-5.68,11.71l-17.59,17.75-2.65,2a11.49,11.49,0,0,0-2.51,2.65l-8.49,12.56a1.3,1.3,0,0,0-.18,1.1l.91,3.42H11.64v-1l13.61-23.21a7.25,7.25,0,0,1,2.61-2.58c15.11-8.83,13.56-26.1,13.17-29.06a1,1,0,0,1,.24-.79c4.11-4.6,10.65-5.55,14.89-5.62A27.14,27.14,0,0,1,62,1016a134,134,0,0,0,16.61,2.34c6.32.37,8.67-2.73,9.44-4.23a3.32,3.32,0,0,0,.35-1.31l.19-3.56a.44.44,0,0,0-.4-.47c-1.79-.21-8.68-1.06-9.82-1.66-1.49-.78-1.1-1.72-1.1-1.72a3,3,0,0,1,3-2.92c2.4-.19,7.06-5.46,8.94-7.69a2.58,2.58,0,0,1,2.12-.91l6.75.34a2.37,2.37,0,0,1,2,1.42l.65,1.47a21.12,21.12,0,0,1,.81,2.18l1.36,4.42C103.11,1004.12,103.26,1004.57,103.42,1005Z"/><ellipse class="cls-16" cx="80.88" cy="1004.04" rx="3.44" ry="1.78"/><circle class="cls-16" cx="92.71" cy="998.44" r="1.4"/><path class="cls-15" d="M85,1045.87l-.92,15.25L83,1074.25l1.51,2.91H79.34v-3.41s2.25-8.12,1.35-15.52a104.42,104.42,0,0,0-2-11.84Z"/><path class="cls-15" d="M80.51,989.58s8.15-.83,9.42,5l-3.61,3.9A9.63,9.63,0,0,1,80.51,989.58Z"/><path class="cls-15" d="M108.2,986.69s-8,2.61-8.72,8l1.86,3.73S110.26,994.06,108.2,986.69Z"/><path class="cls-4" d="M87.82,994s-3.38-3.48-5.84-3.23c0,0,1.19,4.73,3.78,5.11Z"/><path class="cls-4" d="M101.32,994s2.49-4.91,4.83-5c0,0-.88,5-3.44,5.77Z"/><path class="cls-1" d="M44.24,1020.09c0,9.19-2,17.58-5.26,24,3.28,6.41,5.26,14.8,5.26,24,0,20.12-9.52,36.43-21.26,36.43s-21.26-16.31-21.26-36.43a53.57,53.57,0,0,1,5.26-24,53.57,53.57,0,0,1-5.26-24,57.34,57.34,0,0,1,2.85-18.21,57.34,57.34,0,0,1-2.85-18.21c0-20.12,9.52-36.43,21.26-36.43s21.26,16.31,21.26,36.43a57.35,57.35,0,0,1-2.84,18.21A57.35,57.35,0,0,1,44.24,1020.09Z"/><path class="cls-5" d="M22.84,985.56h.28a1.2,1.2,0,0,1,1.2,1.2v150.11a0,0,0,0,1,0,0H21.64a0,0,0,0,1,0,0V986.75A1.2,1.2,0,0,1,22.84,985.56Z"/><path class="cls-5" d="M24,997.81l-1.89-1.89,5.55-5.56a1.21,1.21,0,0,1,1.69,0l.2.2a1.22,1.22,0,0,1,0,1.7Z"/><path class="cls-5" d="M23.53,1028.5l-1.89-1.9,5.56-5.55a1.19,1.19,0,0,1,1.69,0l.2.19a1.22,1.22,0,0,1,0,1.7Z"/><path class="cls-5" d="M24.29,1063.88,22.4,1062l5.55-5.55a1.2,1.2,0,0,1,1.7,0l.19.19a1.2,1.2,0,0,1,0,1.7Z"/><path class="cls-5" d="M22.43,1045.26l1.89-1.89-5.55-5.56a1.2,1.2,0,0,0-1.7,0l-.19.2a1.19,1.19,0,0,0,0,1.69Z"/><path class="cls-5" d="M21.87,1087l1.89-1.89-5.55-5.56a1.21,1.21,0,0,0-1.69,0l-.2.2a1.22,1.22,0,0,0,0,1.7Z"/><path class="cls-5" d="M22.15,1011.73l1.89-1.89-5.55-5.56a1.19,1.19,0,0,0-1.69,0l-.2.2a1.2,1.2,0,0,0,0,1.7Z"/><path class="cls-4" d="M331.26,1178.6H302.71a2.25,2.25,0,0,1-1.08-.27c-1.2-.66-4-2.52-3.87-5.62a1.59,1.59,0,0,0,1.58.84l2.41,0a4.24,4.24,0,0,0,2.14-.58c1.86-1.1,6.11-3.39,10-3.87a14,14,0,0,1,9.09,2.19s1.32.44-.11-1.87a9,9,0,0,1-1.06-4,12.25,12.25,0,0,1,.28-3.47,19.61,19.61,0,0,0,.64-4.15c-.19-.81-.37-1.47-.37-1.47s.77,1.25,1.17,1.25,4.86-.67,7.76.06c2.35.59,3.06,2.29,3.06,4.31v3.64h-4.7a.09.09,0,0,0-.08.14C330.28,1166.87,334.82,1174.19,331.26,1178.6Z"/><path class="cls-17" d="M339.38,1165a9.12,9.12,0,0,1-3.11-.54,16.58,16.58,0,0,0-1.95-1.07v2.26H340A.65.65,0,0,0,339.38,1165Z"/><path class="cls-17" d="M304.87,1178.6s-.1-3.32,4.75-4.68a21.74,21.74,0,0,1,7.7-.46,16.11,16.11,0,0,1,4.11,1,3.23,3.23,0,0,0,4-.77c1.45-1.91,1.34,1.27,1.23,2.73a3.1,3.1,0,0,1-.6,1.65,1,1,0,0,1-.72.49Z"/><circle class="cls-17" cx="330.6" cy="1162.4" r="1.36"/><circle class="cls-4" cx="330.6" cy="1162.4" r="0.5"/><path class="cls-9" d="M1200,819.82V963.58H544s-.06-.28-.13-.81a32,32,0,0,1-.05-7.67c1.1-10.5,7.67-27.77,37.66-34.33,44.33-9.69,62.47-5.25,83.42-15.75s71.34-36.42,93.9-36.75c27.81-.4,96.72,4.85,129.77,1.21,17.23-1.89,40.39-10.6,61.18-18.49,19.06-7.25,36.14-13.81,44.81-13.81,18.14,0,76.57-8.48,100.76-12.52,4.55-.76,11.14-1.41,18.83-2,9.33-.67,20.28-1.18,31.21-1.59l7.87-.27C1175.22,820.13,1195.45,819.87,1200,819.82Z"/><path class="cls-10" d="M1161.65,827.43c18.52-.51,34.38-.7,38.3-.74V963.58H551.21s-.06-.29-.14-.81c-.69-5-2.47-31.61,37.2-39.95,43.85-9.23,61.78-5,82.51-15s70.55-34.69,92.87-35c27.5-.38,95.65,4.62,128.34,1.15,21.3-2.25,51.74-14.63,75.33-23,12.6-4.47,23.25-7.78,29.5-7.78,13.33,0,48.73-4.47,75.83-8.34,5.75-.82,11.13-1.61,15.84-2.33.13,0,.27,0,.4-.06l2.7-.42h.07l4.79-.76C1109.11,829.26,1137.62,828.08,1161.65,827.43Z"/><path class="cls-4" d="M1200,962.77v1.62H540.27a.73.73,0,0,1-.73-.73v-.17a.73.73,0,0,1,.73-.72Z"/><rect class="cls-4" x="903.44" y="969.42" width="84.36" height="1.06" rx="0.47"/><rect class="cls-4" x="969.66" y="979.75" width="55.18" height="1.06" rx="0.47"/><rect class="cls-4" x="1008.13" y="974.01" width="55.9" height="1.06" rx="0.47"/><rect class="cls-4" x="1036.08" y="968.27" width="42.18" height="1.06" rx="0.47"/><rect class="cls-4" x="995.01" y="966.11" width="23.52" height="1.06" rx="0.47"/><rect class="cls-3" x="1056.86" y="814.61" width="15.3" height="8.51"/><path class="cls-3" d="M1077.27,850.55v-2.66H1076v-8.47h1.27V836h-25.75v3.4h1.6l0,8.47h-1.56v2.66h-2.34v4h30.51v-4Zm-5.46-2.66h-14.27l0-8.47h14.23Z"/><path class="cls-3" d="M1085.77,900.16v-5.24h-2.22V881.61h2.22v-5.06h-42.51v5.06h2.32v13.31h-2.32v5.24h-4v7.54h17.83v-7.54h4v7.54h28.37v-7.54Zm-9-5.24h-24.69V881.61h24.69Z"/><polygon class="cls-3" points="1036.15 900.15 1036.15 907.71 1026.72 907.71 1026.72 900.15 1029.2 900.15 1029.2 876.55 1033.4 876.55 1033.4 900.15 1036.15 900.15"/><polygon class="cls-3" points="1102.58 900.15 1102.58 907.71 1092.72 907.71 1092.72 900.15 1095.97 900.15 1095.97 876.55 1099.75 876.55 1099.75 900.15 1102.58 900.15"/><path class="cls-5" d="M1059,807.16h10.64s4.24,4.5,13.23,3.09c0,0-.77,3.07-4.88,4.36h-26.5a12.47,12.47,0,0,1-5.23-4.49S1054.43,811.4,1059,807.16Z"/><path class="cls-5" d="M1055.35,823.13h18.55s3.61,6.8,20.95,6.28c0,0-2.73,6.27-9.07,6.61h-43.47s-6.76-2.11-8.91-7.12C1033.4,828.9,1049.12,830.48,1055.35,823.13Z"/><path class="cls-5" d="M1014,864.66s26.74.69,35.14-10.08h30.51s4.76,9.45,35.2,10.08c0,0-2.8,8.36-15.14,11.89h-71.57S1016.36,872.24,1014,864.66Z"/><path class="cls-2" d="M129.93,736.18H56.62a18.24,18.24,0,0,1,18.16-16.74,18.61,18.61,0,0,1,4.69.61,18.2,18.2,0,0,1,27.32-5.15,18.21,18.21,0,0,1,23.68,17.41A13.83,13.83,0,0,1,129.93,736.18Z"/><path class="cls-3" d="M129.94,736.18H57.75c.75-8.65,8.47-15.44,17.88-15.44a19.48,19.48,0,0,1,4.62.56,18.16,18.16,0,0,1,15.6-8.51,18.65,18.65,0,0,1,11.31,3.76,18.94,18.94,0,0,1,5.37-.77c9.91,0,17.94,7.53,17.94,16.82A12.16,12.16,0,0,1,129.94,736.18Z"/><path class="cls-2" d="M158,676.79h73.31A18.23,18.23,0,0,0,213.1,660a18.47,18.47,0,0,0-4.68.61,18.21,18.21,0,0,0-27.33-5.15,18.24,18.24,0,0,0-23.68,17.41A14.2,14.2,0,0,0,158,676.79Z"/><path class="cls-3" d="M157.94,676.79h72.19c-.75-8.65-8.47-15.44-17.88-15.44a18.9,18.9,0,0,0-4.61.57A18.17,18.17,0,0,0,192,653.4a18.6,18.6,0,0,0-11.3,3.76,19.06,19.06,0,0,0-5.38-.77c-9.91,0-17.94,7.53-17.94,16.82A12.16,12.16,0,0,0,157.94,676.79Z"/><path class="cls-2" d="M173.3,701.64H128a10.88,10.88,0,0,1,16.31-9.43,10.89,10.89,0,0,1,12,.74,10.87,10.87,0,0,1,17,8.69Z"/><path class="cls-3" d="M173.3,701.64H128.74c0-5.57,4.79-10.08,10.69-10.08a11.26,11.26,0,0,1,5.35,1.34,11.19,11.19,0,0,1,5.34-1.34,11,11,0,0,1,6.43,2,11,11,0,0,1,6.07-1.79C168.43,691.8,173.16,696.19,173.3,701.64Z"/><path class="cls-16" d="M123,113.1q-12,0-18.3-7.27T98.41,84.6V32.7h28.5V78.15q0,5.25,2.32,8.1a7.79,7.79,0,0,0,6.37,2.85,16.86,16.86,0,0,0,6.75-1.5q3.45-1.5,6.91-6.6V32.7h28.5V80.1c0,2.7.39,4.58,1.2,5.63s2.19,1.67,4.2,1.87v24a62.83,62.83,0,0,1-12,1.5q-14.57,0-16.81-10.95l-.59-2.85a32.18,32.18,0,0,1-13.2,10.58A45.06,45.06,0,0,1,123,113.1Z"/><path class="cls-16" d="M248.4,57a58.19,58.19,0,0,0-15,1.8q-6.75,1.8-10.05,6v46.8h-28.5V32.7H221v15a33.29,33.29,0,0,1,10.43-12.22A23.18,23.18,0,0,1,244.8,31.2a25.09,25.09,0,0,1,3.6.15Z"/><path class="cls-16" d="M307.5,113.1q-17.85,0-25.5-13.8v12.3H257.25V2.1h28.5V44.4a23.38,23.38,0,0,1,9.75-9.82,31,31,0,0,1,14.85-3.38,29.33,29.33,0,0,1,13.43,3.15A33.2,33.2,0,0,1,334.5,43a40.89,40.89,0,0,1,7.05,13,51.25,51.25,0,0,1,2.55,16.43,46.44,46.44,0,0,1-2.77,16.28,39.74,39.74,0,0,1-7.65,12.82A35,35,0,0,1,307.5,113.1Zm-8.25-24a14.9,14.9,0,0,0,11.33-4.5q4.28-4.5,4.27-12a19.92,19.92,0,0,0-1.12-6.75,19.7,19.7,0,0,0-3-5.55,13.49,13.49,0,0,0-4.5-3.75,12.46,12.46,0,0,0-5.78-1.35,13.53,13.53,0,0,0-8.55,3.23,20.13,20.13,0,0,0-6.15,8.47V81Q291.3,89.1,299.25,89.1Z"/><path class="cls-16" d="M377.55,113.1a30.4,30.4,0,0,1-10.95-1.95,27.15,27.15,0,0,1-8.78-5.32,24.42,24.42,0,0,1-5.77-8,24.13,24.13,0,0,1-2.1-10,23.55,23.55,0,0,1,2.55-11,26.27,26.27,0,0,1,7.05-8.55,32.51,32.51,0,0,1,10.72-5.55,45.78,45.78,0,0,1,13.73-2q9.6,0,15.9,3v-2.4q0-5.55-3.23-8.25t-10.42-2.7a34.65,34.65,0,0,0-12.45,2.18,61.24,61.24,0,0,0-12,6.37l-8.25-17.7q15.6-10.05,35.55-10,18.9,0,29.1,8.4t10.2,25.2V80.1q0,4.05,1.2,5.63a5.77,5.77,0,0,0,4.2,1.87v24c-2.3.5-4.48.87-6.53,1.13a47.77,47.77,0,0,1-5.47.37q-7.65,0-11.63-2.77a12.94,12.94,0,0,1-5.17-8.18l-.6-2.85a36.32,36.32,0,0,1-12.15,10.28A32,32,0,0,1,377.55,113.1Zm8.55-20.4a17.91,17.91,0,0,0,5.25-.82,19.21,19.21,0,0,0,4.8-2.18,12.27,12.27,0,0,0,2.7-2.62,4.9,4.9,0,0,0,1-2.93V78.3a40.62,40.62,0,0,0-5.55-1.5,27.81,27.81,0,0,0-5.4-.6,14.24,14.24,0,0,0-8.7,2.55,7.73,7.73,0,0,0-3.45,6.45,6.6,6.6,0,0,0,2.62,5.4A10.36,10.36,0,0,0,386.1,92.7Z"/><path class="cls-16" d="M523.5,111.6H495V67.2q0-5.85-2.63-8.47a8.33,8.33,0,0,0-6.07-2.63q-3.6,0-7.65,3.15a18.76,18.76,0,0,0-6,8.1V111.6h-28.5V32.7H469.8V44.4a26.53,26.53,0,0,1,11.77-9.82A43.79,43.79,0,0,1,499.5,31.2q8.1,0,12.82,2.92a20.54,20.54,0,0,1,7.2,7.28,26.76,26.76,0,0,1,3.23,9.3,60.54,60.54,0,0,1,.75,9Z"/><path class="cls-16" d="M604.05,113.1a36.7,36.7,0,0,1-14.93-3,34.15,34.15,0,0,1-11.77-8.48,39.3,39.3,0,0,1-7.73-13A47.87,47.87,0,0,1,566.85,72a49.74,49.74,0,0,1,2.55-16.2,39.94,39.94,0,0,1,7.12-13,32.85,32.85,0,0,1,10.88-8.56,31.51,31.51,0,0,1,14-3.07,29,29,0,0,1,14,3.45,24,24,0,0,1,9.82,9.75V2.1h28.5v78q0,4.05,1.21,5.63c.79,1,2.19,1.67,4.2,1.87v24a62.83,62.83,0,0,1-12,1.5q-14.57,0-16.8-10.95l-.61-2.85a24.6,24.6,0,0,1-10.94,10.5A33.7,33.7,0,0,1,604.05,113.1Zm7.8-24q7.78,0,13.5-8.1V66.9a20.15,20.15,0,0,0-6.16-8.47,13.48,13.48,0,0,0-8.54-3.23,12.46,12.46,0,0,0-5.78,1.35,13.49,13.49,0,0,0-4.5,3.75,19.7,19.7,0,0,0-3,5.55,19.92,19.92,0,0,0-1.12,6.75q0,7.5,4.27,12T611.85,89.1Z"/><path class="cls-16" d="M709.64,113.1a49.77,49.77,0,0,1-18.45-3.22,39.06,39.06,0,0,1-13.57-8.78,37.8,37.8,0,0,1-8.33-12.75,40.79,40.79,0,0,1-2.85-15.15A47.14,47.14,0,0,1,669.22,57a37.48,37.48,0,0,1,8.25-13.35A39.85,39.85,0,0,1,691,34.58a53.06,53.06,0,0,1,37.27,0,40.29,40.29,0,0,1,13.58,9,37.19,37.19,0,0,1,8.25,13,44,44,0,0,1,2.77,15.53c0,1.5-.07,3-.22,4.58s-.33,2.92-.53,4.12H696.74q.45,6.3,4.65,9.08a16.26,16.26,0,0,0,9.15,2.77,19.1,19.1,0,0,0,8.78-2.1,10.55,10.55,0,0,0,5.47-5.85l24.15,6.9a38,38,0,0,1-14.77,15.45Q724.2,113.1,709.64,113.1Zm12.6-49.35a14.64,14.64,0,0,0-4.2-9,13.52,13.52,0,0,0-17.7,0,14.64,14.64,0,0,0-4.2,9Z"/><path class="cls-16" d="M761.54,2.1H790V80.25q0,9,7.35,9a14.26,14.26,0,0,0,3.9-.6,16.94,16.94,0,0,0,3.9-1.65l3.6,21a52.33,52.33,0,0,1-11.47,3.75,58.41,58.41,0,0,1-12.08,1.35q-11.4,0-17.55-5.85t-6.15-17Z"/><path class="cls-16" d="M868.64,107.25a86.42,86.42,0,0,1-12.82,4.27,54.7,54.7,0,0,1-13.43,1.73,34.26,34.26,0,0,1-9.15-1.2,19.84,19.84,0,0,1-7.57-3.9,18.61,18.61,0,0,1-5.1-7.05,27.33,27.33,0,0,1-1.88-10.8V54.15h-9.75V32.7h9.75V8h28.5V32.7h15.45V54.15H847.19v26.1q0,3.9,1.65,5.48a6.29,6.29,0,0,0,4.5,1.57,19.59,19.59,0,0,0,4.8-.68,32.06,32.06,0,0,0,5.4-1.87Z"/><path class="cls-16" d="M900,113.1a30.4,30.4,0,0,1-11-1.95,27.11,27.11,0,0,1-8.77-5.32,24.44,24.44,0,0,1-5.78-8,24.13,24.13,0,0,1-2.1-10,23.55,23.55,0,0,1,2.55-11,26.27,26.27,0,0,1,7-8.55,32.56,32.56,0,0,1,10.73-5.55,45.71,45.71,0,0,1,13.72-2q9.6,0,15.9,3v-2.4q0-5.55-3.22-8.25t-10.43-2.7a34.65,34.65,0,0,0-12.45,2.18,61.24,61.24,0,0,0-12,6.37L876,41.25q15.6-10.05,35.55-10,18.9,0,29.1,8.4t10.2,25.2V80.1q0,4.05,1.2,5.63a5.77,5.77,0,0,0,4.2,1.87v24c-2.3.5-4.47.87-6.52,1.13a47.93,47.93,0,0,1-5.48.37q-7.65,0-11.62-2.77a13,13,0,0,1-5.18-8.18l-.6-2.85a36.32,36.32,0,0,1-12.15,10.28A32,32,0,0,1,900,113.1Zm8.55-20.4a17.91,17.91,0,0,0,5.25-.82,19.21,19.21,0,0,0,4.8-2.18,12.27,12.27,0,0,0,2.7-2.62,4.9,4.9,0,0,0,1.05-2.93V78.3a40.62,40.62,0,0,0-5.55-1.5,27.81,27.81,0,0,0-5.4-.6,14.24,14.24,0,0,0-8.7,2.55,7.73,7.73,0,0,0-3.45,6.45,6.61,6.61,0,0,0,2.63,5.4A10.34,10.34,0,0,0,908.54,92.7Z"/><path class="cls-16" d="M965.84,43.65,969.74,24h-7.8V0h29.55V24.75l-6.3,18.9Z"/><path class="cls-16" d="M1035.6,113.1a62.34,62.34,0,0,1-20.25-3.37,45.93,45.93,0,0,1-16.8-9.83l9.75-17.1a74.67,74.67,0,0,0,14.17,7.65,34.31,34.31,0,0,0,12.53,2.7c4,0,6-1.25,6-3.75a4.29,4.29,0,0,0-2.33-3.6q-2.33-1.5-9.07-3.45a130.39,130.39,0,0,1-14-4.73,40.2,40.2,0,0,1-9.15-5,16,16,0,0,1-5-6,18.71,18.71,0,0,1-1.5-7.8,25.74,25.74,0,0,1,2.4-11.1,26.87,26.87,0,0,1,6.67-8.85,30,30,0,0,1,10.2-5.77,39.88,39.88,0,0,1,13-2,60.07,60.07,0,0,1,16.57,2.25q7.88,2.25,15.83,9.15l-10.8,17.1a77.29,77.29,0,0,0-12.3-6.82,24.65,24.65,0,0,0-9.3-2,8.13,8.13,0,0,0-4.2,1,3.29,3.29,0,0,0-1.65,3.07,4.21,4.21,0,0,0,2.4,3.68q2.38,1.43,9.45,3.22a108.14,108.14,0,0,1,14.4,4.73,37.65,37.65,0,0,1,9.37,5.39,17,17,0,0,1,5,6.61,22.46,22.46,0,0,1,1.5,8.47,25.51,25.51,0,0,1-2.25,11,23.12,23.12,0,0,1-6.53,8.25,29.71,29.71,0,0,1-10.35,5.25A48.26,48.26,0,0,1,1035.6,113.1Z"/><path class="cls-16" d="M1078.49,111.6V84h23.1v27.6Z"/></g></g></svg>