<svg xmlns="http://www.w3.org/2000/svg" viewBox="0 0 67 67"><defs><style>.cls-1{fill:#a8c69f;}.cls-2{fill:#1a1a1a;}</style></defs><g id="Laag_2" data-name="Laag 2"><g id="Laag_1-2" data-name="Laag 1"><rect class="cls-1" width="67" height="67" rx="33.5"/><path class="cls-2" d="M29.47,32l-.24,3a.87.87,0,0,1-.87.78l-13.17,0A2.12,2.12,0,0,1,13,33.42l1.73-21.63a2.55,2.55,0,0,1,2.54-2.27,2.22,2.22,0,0,1,1.61.67,2.09,2.09,0,0,1,.56,1.61L18,30.39a.72.72,0,0,0,.74.78l10,0A.72.72,0,0,1,29.47,32Z"/><path class="cls-2" d="M54,33.58,52.25,55.22a2.43,2.43,0,0,1-.82,1.6,2.59,2.59,0,0,1-1.72.66l-18.13-.07a2.11,2.11,0,0,1-2.17-2.28l3.47-43.28a2.54,2.54,0,0,1,2.54-2.26,2.22,2.22,0,0,1,1.61.67,2.08,2.08,0,0,1,.56,1.61L34.36,52.1a.73.73,0,0,0,.75.78l11.81,0a.88.88,0,0,0,.87-.77L49,36.61a.72.72,0,0,0-.74-.78l-10,0a.73.73,0,0,1-.75-.78l.24-3a.88.88,0,0,1,.87-.78l13.17.05A2.12,2.12,0,0,1,54,33.58Z"/></g></g></svg>