<?xml version="1.0" encoding="utf-8"?>
<!-- Generator: Adobe Illustrator 26.0.1, SVG Export Plug-In . SVG Version: 6.00 Build 0)  -->
<svg version="1.1" id="Laag_1" xmlns="http://www.w3.org/2000/svg" xmlns:xlink="http://www.w3.org/1999/xlink" x="0px" y="0px"
	 viewBox="0 0 67 67" style="enable-background:new 0 0 67 67;" xml:space="preserve">
<style type="text/css">
	.st0{fill:#F4AA00;}
	.st1{fill:#1A1A1A;}
</style>
<g id="Laag_2_00000044900390347604007170000006103846015859593646_">
	<g id="Laag_1-2">
		<path class="st0" d="M33.5,0L33.5,0C52,0,67,15,67,33.5l0,0C67,52,52,67,33.5,67l0,0C15,67,0,52,0,33.5l0,0C0,15,15,0,33.5,0z"/>
		<path class="st1" d="M29.5,32l-0.2,3c0,0.4-0.4,0.8-0.9,0.8H15.2c-1.2,0-2.2-0.9-2.2-2c0-0.1,0-0.2,0-0.3l1.7-21.6
			c0.1-1.3,1.2-2.3,2.5-2.3c0.6,0,1.2,0.2,1.6,0.7c0.4,0.4,0.6,1,0.6,1.6L18,30.4c0,0.4,0.3,0.7,0.7,0.8c0,0,0.1,0,0.1,0h10
			c0.4,0,0.7,0.3,0.7,0.7C29.5,31.9,29.5,32,29.5,32z"/>
		<path class="st1" d="M54,33.6l-1.8,21.6c-0.1,0.6-0.4,1.2-0.8,1.6c-0.5,0.4-1.1,0.7-1.7,0.7l-18.1-0.1c-1.2,0-2.1-0.9-2.2-2
			c0-0.1,0-0.2,0-0.2l3.5-43.3c0.1-1.3,1.2-2.3,2.5-2.3c0.6,0,1.2,0.2,1.6,0.7c0.4,0.4,0.6,1,0.6,1.6l-3.2,40.2
			c0,0.4,0.3,0.8,0.7,0.8c0,0,0,0,0.1,0h11.8c0.4,0,0.8-0.3,0.9-0.8L49,36.6c0-0.4-0.3-0.7-0.7-0.8c0,0-0.1,0-0.1,0h-10
			c-0.4,0-0.7-0.3-0.8-0.7c0,0,0,0,0-0.1l0.2-3c0.1-0.4,0.4-0.8,0.9-0.8l13.2,0c1.2-0.1,2.2,0.9,2.2,2C54,33.4,54,33.5,54,33.6z"/>
	</g>
</g>
</svg>
