<svg xmlns="http://www.w3.org/2000/svg" viewBox="0 0 258.62 302.68"><defs><style>.cls-1{fill:#1a1a1a;}</style></defs><g id="Laag_2" data-name="Laag 2"><g id="Laag_1-2" data-name="Laag 1"><path class="cls-1" d="M103.87,141.81l-1.51,18.87a5.49,5.49,0,0,1-5.48,4.89l-83.13-.3c-8.21,0-14.34-6.48-13.7-14.41L11,14.29C11.62,6.36,18.79,0,27,0A14,14,0,0,1,37.15,4.24,13,13,0,0,1,40.69,14.4l-9.4,117.31A4.56,4.56,0,0,0,36,136.64l63.2.24A4.56,4.56,0,0,1,103.87,141.81Z"/><path class="cls-1" d="M258.58,151.82,247.63,288.4a15.25,15.25,0,0,1-5.16,10.13,16.25,16.25,0,0,1-10.84,4.15l-114.41-.42c-8.2,0-14.34-6.48-13.7-14.4L125.4,14.72C126,6.79,133.2.39,141.4.42a13.94,13.94,0,0,1,10.16,4.24,13,13,0,0,1,3.54,10.17L134.76,268.71a4.58,4.58,0,0,0,4.69,4.94l74.55.27a5.48,5.48,0,0,0,5.47-4.89L227.33,171a4.56,4.56,0,0,0-4.69-4.93l-63.19-.23a4.57,4.57,0,0,1-4.69-4.94L156.27,142a5.49,5.49,0,0,1,5.48-4.89l83.12.31C253.08,137.45,259.21,143.89,258.58,151.82Z"/></g></g></svg>