<svg xmlns="http://www.w3.org/2000/svg" viewBox="0 0 180.83 216.05"><defs><style>.cls-1{fill:#c2a89d;}.cls-2{fill:#1d1d1b;}.cls-3{fill:#e5c2a8;}.cls-4{fill:#efe7dc;}.cls-5{fill:#496f76;}.cls-6{fill:#e3e5e5;}.cls-7{fill:#eecfb4;}.cls-8{fill:#edc9ae;}.cls-9{fill:#3f3c38;}.cls-10{fill:#dbb8a1;}.cls-11{fill:#704737;}.cls-12{fill:#4a2f24;}.cls-13{fill:#38241c;}</style></defs><g id="Laag_2" data-name="Laag 2"><g id="Laag_2-2" data-name="Laag 2"><path class="cls-1" d="M103.55,18.24c0-2.42-3-7.35-5.4-9.29S88.43-2.28,61.65.52s-30.46,29-30.46,29"/><path class="cls-1" d="M1.06,72S-9.53,46.53,36.27,27.31s77.32-6.7,77.32-6.7S154.2,34,136.28,65.54s-86,32.19-86,32.19S20.71,105.93,1.06,72Z"/><path class="cls-2" d="M28.59,96.3s-9.29,9.45-9.76,13.82c0,0,2.37-4.57,4-5.59,0,0-4.58,7-4.78,11.69a55.52,55.52,0,0,0,1.22,11.27l3.35,6.4L48,116.22,45.48,92.45l-6-19.81L36.54,60.35l-6.13-1.93s-3.52,5.79-3.52,8.43-.71,6.1-.1,8.74,2,4.57,2.43,6.6,1.73,2,1.93,4.67,1.51,3.76,1.87,5.79S28.59,96.3,28.59,96.3Z"/><polygon class="cls-3" points="15.36 210.17 16.96 216.05 39.9 216.05 35.12 203.45 15.36 210.17"/><path class="cls-4" d="M180.83,180v36.1H158.74l-23.57-43s-3.1-5-6.69-5.87-8.07-4.48-8.07-4.48-8.64-7.91-13.45-13.53c-4.45-5.21-22.63-10.54-25.34-11.31a.85.85,0,0,1-.54-.44,2.64,2.64,0,0,1,1.13-4,.71.71,0,0,1,.45-.07c.94.18,4.52.88,7.18,1.51,3.1.74,4.41-.32,5.79.08a.24.24,0,0,0,.17,0,.13.13,0,0,0,0-.1c.14-1-3.93-7.43,6-8.05h.06l0-.06c-.41-.6-3.65-5.75,3.38-6.93h.08a.31.31,0,0,1,0-.07c-.13-.74-1.06-7.2,7.93-6.2a45.21,45.21,0,0,0,9.21,1.71,19.08,19.08,0,0,1,8.4,2.69s5.7,2.85,7.58-1.31a34.83,34.83,0,0,0,2.42-9s-.47-5.78,3.12-9.05,7.5,0,7.5,0,.57,2.85-.08,3.91-.82,4.65-.82,4.65a61,61,0,0,1,.33,6.44,48.14,48.14,0,0,0-.9,7.58,9,9,0,0,1-1,4.15s0,8.16-.32,9.79.73,7.66,2.77,10.35S160,157,160,157,173,175,180.83,180Z"/><path class="cls-5" d="M180.83,131.78V180C173,175,160,157,160,157s-6.52-8.88-8.56-11.57-3.1-8.72-2.77-10.35.32-9.79.32-9.79a10.46,10.46,0,0,0,1-4.15c.08-2.52.74-6.36.9-7.58a61,61,0,0,0-.33-6.44s.17-3.59.82-4.65.08-3.91.08-3.91-3.91-3.26-7.5,0-3.12,9.05-3.12,9.05a34.83,34.83,0,0,1-2.42,9c-1.88,4.16-7.58,1.31-7.58,1.31a19.08,19.08,0,0,0-8.4-2.69,45.21,45.21,0,0,1-9.21-1.71c-9.54-1.06-7.91,6.27-7.91,6.27-7.58,1.23-3.42,7-3.42,7-11.09.66-4.89,8.56-6.28,8.15s-2.69.66-5.79-.08-7.41-1.55-7.41-1.55c-3.26,1.47-1.15,4.41-1.15,4.41s20.87,5.78,25.68,11.41,13.45,13.53,13.45,13.53,4.49,3.67,8.07,4.48,6.69,5.87,6.69,5.87l23.57,43H39.9l-3.58-9.53c-5.76,3.89-27.38,4-27.38,3.42s-.78-3.73-.78-5.44-5.91-19.92-5.44-23c.18-1.21-.19-5.35-.72-9.95a53.35,53.35,0,0,1,9.63-37.42c2.4-3.3,4.89-5.81,7.2-6.44,7.2-2,23.26-12.56,27.06-15.12l.82-.55L100,95s6.19.93,7.83.72a38.32,38.32,0,0,1,5.67,0c3.07.07,8.27.07,28.76,0S180.83,131.78,180.83,131.78Z"/><path class="cls-6" d="M101,106.37a49.77,49.77,0,0,0-.65,6.52,12.72,12.72,0,0,1-.29,2.56c-1.17,6-5.48,16.61-5.48,16.61a32.78,32.78,0,0,1-3.17,6.46c-3.36,5.43-9.68,12.62-20.3,14.66a33.67,33.67,0,0,1-11.12.67c-6.55-1-6.59-5.11-7.05-6.13-.71-1.57-2.06-5.67-3.81-9.88s-4.23-10.63-4.85-12.9c-.05-.17-.09-.36-.14-.57a33.67,33.67,0,0,1-.69-6.1,7.7,7.7,0,0,1,.18-2l0-.1a3.41,3.41,0,0,0,.17-2.23v0h0L46.71,112l2-.65L60.77,133.4,79,136.69l12.26-19,5.5-19.13,1.51-1.72L100,95C101.73,98.64,101.46,102.69,101,106.37Z"/><path class="cls-7" d="M114.26,53.43l-2.6-.69s1.67,8.52-3.92,13c0,0-1.23,21.31-7.77,29.26L98.8,96.35l-.21.23c-1.07,1.25-1.81,2-1.81,2l-.53,5.65c-.15,1.85-1.86,7-2,12.84s-3.25,16.1-7.9,22.61-15.94,8.82-21.82,9.9-7.74-2.47-7.74-2.47S48.26,132.88,46.71,112a126.85,126.85,0,0,0-1.59-12.67,111.83,111.83,0,0,0-6.55-23.21s-8.46,2.75-10.65-8.38c-1.44-7.35,6.78-16,16.66-21.41a46.52,46.52,0,0,1,9.26-3.86A31.38,31.38,0,0,1,60,41.28c14.32-1.15,40.14-2.56,52.46,9.19l2.16.36Z"/><path class="cls-8" d="M98.59,96.58c-1.07,1.25-1.81,2-1.81,2l-.53,5.65c-.15,1.85-1.86,7-2,12.84s-3.25,16.1-7.9,22.61-15.94,8.82-21.82,9.9-7.74-2.47-7.74-2.47S48.26,132.88,46.71,112a126.85,126.85,0,0,0-1.59-12.67L44,93.7c7.67,5,19.79,9.67,32.05,12,10.43,2,19.72-6.31,22.26-8.83Z"/><path class="cls-3" d="M180.83,180v36.1H158.74l-23.57-43s-3.1-5-6.69-5.87-8.07-4.48-8.07-4.48-8.64-7.91-13.45-13.53c-4.45-5.21-22.63-10.54-25.34-11.31a.85.85,0,0,1-.54-.44,2.64,2.64,0,0,1,1.13-4,.71.71,0,0,1,.45-.07c.94.18,4.52.88,7.18,1.51,3.1.74,4.41-.32,5.79.08a.24.24,0,0,0,.17,0,.13.13,0,0,0,0-.1c.14-1-3.93-7.43,6-8.05h.06l0-.06c-.41-.6-3.65-5.75,3.38-6.93h.08a.31.31,0,0,1,0-.07c-.13-.74-1.06-7.2,7.93-6.2a45.21,45.21,0,0,0,9.21,1.71,19.08,19.08,0,0,1,8.4,2.69s5.7,2.85,7.58-1.31a34.83,34.83,0,0,0,2.42-9s-.47-5.78,3.12-9.05,7.5,0,7.5,0,.57,2.85-.08,3.91-.82,4.65-.82,4.65a61,61,0,0,1,.33,6.44,48.14,48.14,0,0,0-.9,7.58,9,9,0,0,1-1,4.15s0,8.16-.32,9.79.73,7.66,2.77,10.35S160,157,160,157,173,175,180.83,180Z"/><path class="cls-9" d="M82.3,134.3a3.85,3.85,0,0,0-.76,3s4.25,1.78,5.2.31-1.18-2.55-2-2.79S82.3,134.3,82.3,134.3Z"/><path class="cls-10" d="M109.83,140.55l-.08.06a9.9,9.9,0,0,0-3.94-2.41c-2.53-.88-9.51-3-10-3.17a.13.13,0,0,0,0-.1c.56.17,7.49,2.29,10,3.17A10.09,10.09,0,0,1,109.83,140.55Z"/><path class="cls-10" d="M108.47,128.78l0,.09-6.59-2v0h.06l0-.06v0Z"/><path class="cls-10" d="M113.72,121v.1l-8.46-1.16h.08a.31.31,0,0,1,0-.07Z"/><path class="cls-9" d="M151.6,99.43l-.37.08s-2.39.7-3,1.75-.77,1.76-.35,2.32,3.12.1,3.12.1a10.44,10.44,0,0,1,.45-1.23,5.42,5.42,0,0,0,.29-1.48Z"/><polygon class="cls-11" points="110.68 50.16 114.65 50.83 114.26 53.43 111.66 52.74 110.68 50.16"/><polygon class="cls-11" points="55.14 42.11 59.02 42.39 58.07 44.59 53.84 44.59 53.84 42.46 55.14 42.11"/><path class="cls-12" d="M53.84,42.46v2.13L43.09,47.16l1.49-.84A46.52,46.52,0,0,1,53.84,42.46Z"/><path class="cls-13" d="M58.91,42.46a6.76,6.76,0,0,0-2.94,6C56.23,53.13,58,63,68.62,63.2c13.87.22,13.76-13.65,13.76-13.65a6.56,6.56,0,0,1,7.22.83S85.71,66.16,99.65,67.57c7.22.72,10.3-3.19,11.58-7.13a14.13,14.13,0,0,0-2.82-14,9.7,9.7,0,0,0-6.7-3.34c-7.79-.43-11.14,4.22-11.14,4.22a12.08,12.08,0,0,0-9-.82s-8-13.23-22.57-4.15Z"/><path class="cls-11" d="M79.13,45.2c-2.63-3-9.26-8.35-19-1.82a6.64,6.64,0,0,0-3,5.83c.16,3.76,1.51,9.44,7.61,12.43,0,0,15.24,4.84,16.35-11.79a8.76,8.76,0,0,0-.1-1A7.33,7.33,0,0,0,79.13,45.2Z"/><path class="cls-11" d="M93.79,46.22c3.41-1.92,9.67-4.17,14.29,1.46a12.57,12.57,0,0,1,2.69,9.12c-.46,5-3.08,12-14.62,8.93,0,0-7.59-2.36-5.42-15.16A6.19,6.19,0,0,1,93.79,46.22Z"/></g></g></svg>