<svg xmlns="http://www.w3.org/2000/svg" viewBox="0 0 1017.07 1215.16"><defs><style>.cls-1{fill:#c2a89d;}.cls-2{fill:#1d1d1b;}.cls-3{fill:#e5c2a8;}.cls-4{fill:#efe7dc;}.cls-5{fill:#496f76;}.cls-6{fill:#e3e5e5;}.cls-7{fill:#eecfb4;}.cls-8{fill:#edc9ae;}.cls-9{fill:#3f3c38;}.cls-10{fill:#dbb8a1;}.cls-11{fill:#704737;}.cls-12{fill:#4a2f24;}.cls-13{fill:#38241c;}</style></defs><g id="Laag_2" data-name="Laag 2"><g id="Laag_2-2" data-name="Laag 2"><path class="cls-1" d="M582.43,102.57c0-13.58-17-41.3-30.37-52.24S497.38-12.84,346.73,3s-171.3,162.8-171.3,162.8"/><path class="cls-1" d="M6,405.09S-53.58,261.73,204,153.6s434.94-37.66,434.94-37.66,228.41,75.32,127.57,252.7S283,549.66,283,549.66,116.51,595.83,6,405.09Z"/><path class="cls-2" d="M160.82,541.63s-52.28,53.19-54.93,77.76c0,0,13.35-25.71,22.49-31.43,0,0-25.71,39.42-26.85,65.7s6.86,63.42,6.86,63.42l18.85,36,142.83-99.41L255.78,520l-33.7-111.41-16.57-69.13L171,328.59S151.23,361.15,151.23,376s-4,34.27-.57,49.13,11.43,25.71,13.71,37.13,9.72,11.43,10.86,26.28,8.46,21.14,10.51,32.57S160.82,541.63,160.82,541.63Z"/><polygon class="cls-3" points="86.39 1182.13 95.41 1215.16 224.4 1215.16 197.54 1144.33 86.39 1182.13"/><path class="cls-4" d="M1017.07,1012.12v203H892.82L760.25,973.59s-17.43-28.4-37.63-33-45.39-25.19-45.39-25.19-48.59-44.49-75.65-76.1C576.55,810,474.3,780,459.06,775.66a4.81,4.81,0,0,1-3-2.47c-2.42-4.45-6.69-15.64,6.36-22.28a4,4,0,0,1,2.53-.39c5.28,1,25.42,5,40.38,8.49,17.44,4.17,24.81-1.8,32.57.45a1.24,1.24,0,0,0,.95,0,.72.72,0,0,0,.23-.56c.79-5.34-22.11-41.79,33.8-45.28h.34a3.48,3.48,0,0,0-.22-.33c-2.31-3.38-20.53-32.35,19-39v-.06c.11,0,.28-.06.45-.06a1.62,1.62,0,0,1-.12-.39c-.73-4.16-6-40.5,44.61-34.87a254.34,254.34,0,0,0,51.8,9.62A107.3,107.3,0,0,1,736,663.68s32.06,16,42.64-7.37,13.61-50.85,13.61-50.85-2.64-32.51,17.55-50.9,42.18,0,42.18,0,3.21,16-.45,22-4.61,26.16-4.61,26.16,2.76,29.3,1.86,36.22-4.9,23.51-5.06,42.63c-.12,14.12-5.52,23.34-5.52,23.34s0,45.9-1.8,55.07,4.11,43.08,15.58,58.21,48.15,65.08,48.15,65.08S973.14,984.16,1017.07,1012.12Z"/><path class="cls-5" d="M1017.07,741.18v270.94c-43.93-28-117-128.86-117-128.86s-36.67-50-48.15-65.08-17.43-49-15.58-58.21,1.8-55.07,1.8-55.07a58.28,58.28,0,0,0,5.52-23.34c.44-14.14,4.16-35.77,5.06-42.63s-1.86-36.22-1.86-36.22,1-20.2,4.61-26.16.45-22,.45-22-22-18.34-42.18,0-17.55,50.9-17.55,50.9-3.09,27.51-13.61,50.85S736,663.68,736,663.68a107.3,107.3,0,0,0-47.24-15.13,254.34,254.34,0,0,1-51.8-9.62c-53.66-6-44.49,35.26-44.49,35.26-42.64,6.92-19.24,39.43-19.24,39.43-62.38,3.72-27.5,48.15-35.32,45.84s-15.13,3.72-32.57-.45-41.68-8.72-41.68-8.72c-18.33,8.27-6.46,24.81-6.46,24.81s117.38,32.51,144.43,64.18,75.65,76.1,75.65,76.1,25.26,20.64,45.39,25.19,37.63,33,37.63,33l132.57,241.57H224.4l-20.13-53.6c-32.4,21.88-154,22.73-154,19.24s-4.38-21-4.38-30.6-33.24-112-30.6-129.53c1-6.81-1.07-30.09-4-56C2.79,890.35,21.3,814.81,65.39,754.23c13.5-18.56,27.51-32.68,40.5-36.22,40.5-11,130.83-70.64,152.2-85,3-2,4.61-3.1,4.61-3.1l299.57-95.78s34.81,5.23,44,4,14.62-.4,31.89,0,46.51.39,161.76,0S1017.07,741.18,1017.07,741.18Z"/><path class="cls-6" d="M568.06,598.26c-1.69,13.5-3.88,26.1-3.65,36.68a71.66,71.66,0,0,1-1.64,14.39C556.19,683.14,532,742.76,532,742.76s-5.17,16-17.83,36.33c-18.9,30.54-54.44,71-114.18,82.46-28,5.4-48.09,6-62.54,3.77-36.84-5.51-37.07-28.74-39.65-34.48-4-8.83-11.59-31.89-21.43-55.57s-23.8-59.79-27.28-72.56c-.28-1-.51-2-.79-3.2a189.42,189.42,0,0,1-3.88-34.31c0-4.84.28-8.84,1-11.2.06-.22.11-.39.17-.56,2.64-6.75,1.24-11.64,1-12.54v-.12l-.06,0,.11-.06,16.14-10.8L274,626.22l67.84,124.07L444.43,768.8l69-106.64,30.94-107.6,8.49-9.67,9.45-10.8C572.17,554.79,570.65,577.56,568.06,598.26Z"/><path class="cls-7" d="M642.64,300.5,628,296.62s9.39,47.92-22,72.89c0,0-6.92,119.86-43.7,164.58-2.36,2.81-4.56,5.45-6.58,7.81-.4.46-.79.91-1.18,1.3-6,7-10.18,11.36-10.18,11.36l-3,31.78c-.85,10.4-10.47,39.15-11.31,72.22s-18.28,90.55-44.43,127.17S396,835.34,362.88,841.41s-43.54-13.89-43.54-13.89-47.92-80.15-56.64-197.65a710,710,0,0,0-8.94-71.26c-14.06-78.86-36.84-130.55-36.84-130.55s-47.58,15.47-59.9-47.13c-8.1-41.34,38.13-90.16,93.7-120.42a261,261,0,0,1,52.09-21.71,176.26,176.26,0,0,1,34.87-6.64c80.54-6.47,225.77-14.4,295.06,51.69l12.15,2Z"/><path class="cls-8" d="M554.51,543.2c-6,7-10.18,11.36-10.18,11.36l-3,31.78c-.85,10.4-10.47,39.15-11.31,72.22s-18.28,90.55-44.43,127.17S396,835.34,362.88,841.41s-43.54-13.89-43.54-13.89-47.92-80.15-56.64-197.65a710,710,0,0,0-8.94-71.26L247.39,527c43.14,27.84,111.27,54.39,180.23,67.55,58.66,11.25,110.91-35.49,125.2-49.66Z"/><path class="cls-3" d="M1017.07,1012.12v203H892.82L760.25,973.59s-17.43-28.4-37.63-33-45.39-25.19-45.39-25.19-48.59-44.49-75.65-76.1C576.55,810,474.3,780,459.06,775.66a4.81,4.81,0,0,1-3-2.47c-2.42-4.45-6.69-15.64,6.36-22.28a4,4,0,0,1,2.53-.39c5.28,1,25.42,5,40.38,8.49,17.44,4.17,24.81-1.8,32.57.45a1.24,1.24,0,0,0,.95,0,.72.72,0,0,0,.23-.56c.79-5.34-22.11-41.79,33.8-45.28h.34a3.48,3.48,0,0,0-.22-.33c-2.31-3.38-20.53-32.35,19-39v-.06c.11,0,.28-.06.45-.06a1.62,1.62,0,0,1-.12-.39c-.73-4.16-6-40.5,44.61-34.87a254.34,254.34,0,0,0,51.8,9.62A107.3,107.3,0,0,1,736,663.68s32.06,16,42.64-7.37,13.61-50.85,13.61-50.85-2.64-32.51,17.55-50.9,42.18,0,42.18,0,3.21,16-.45,22-4.61,26.16-4.61,26.16,2.76,29.3,1.86,36.22-4.9,23.51-5.06,42.63c-.12,14.12-5.52,23.34-5.52,23.34s0,45.9-1.8,55.07,4.11,43.08,15.58,58.21,48.15,65.08,48.15,65.08S973.14,984.16,1017.07,1012.12Z"/><path class="cls-9" d="M462.92,755.39s-6.19,7.26-4.3,17c0,0,23.91,10,29.27,1.74s-6.66-14.35-11-15.66S462.92,755.39,462.92,755.39Z"/><path class="cls-10" d="M617.73,790.51l-.45.34c-.06-.06-7.54-8.5-22.16-13.56-14.23-4.95-53.49-17-56.31-17.83a.72.72,0,0,0,.23-.56c3.15,1,42.13,12.88,56.24,17.83C610.08,781.9,617.61,790.4,617.73,790.51Z"/><path class="cls-10" d="M610.08,724.31l-.17.51-37.07-11.08v-.12h.34a3.48,3.48,0,0,0-.22-.33v-.12Z"/><path class="cls-10" d="M639.61,680.27l-.06.56L592,674.31v-.06c.11,0,.28-.06.45-.06a1.62,1.62,0,0,1-.12-.39Z"/><path class="cls-9" d="M852.67,559.22l-2.08.47s-13.42,3.95-17,9.87-4.34,9.87-2,13,17.58.56,17.58.56a52.22,52.22,0,0,1,2.53-6.92c1.16-2.09,1.6-8.3,1.6-8.3Z"/><polygon class="cls-11" points="622.53 282.1 644.88 285.89 642.65 300.52 628.04 296.64 622.53 282.1"/><polygon class="cls-11" points="310.12 236.83 331.94 238.4 326.6 250.78 302.81 250.78 302.81 238.8 310.12 236.83"/><path class="cls-12" d="M302.81,238.8v12l-60.48,14.48,8.39-4.75A261,261,0,0,1,302.81,238.8Z"/><path class="cls-13" d="M331.33,238.8a38,38,0,0,0-16.5,33.65c1.46,26.36,11.6,82.09,71.11,83,78,1.24,77.39-76.76,77.39-76.76s20-11.76,40.64,4.65c0,0-21.88,88.75,56.53,96.66,40.61,4.09,57.91-17.91,65.15-40.06,8.87-27.16,3.44-57.53-15.9-78.56-9-9.76-21.29-17.85-37.7-18.76-43.77-2.43-62.61,23.7-62.61,23.7a68.38,68.38,0,0,0-50.56-4.6S414,187.34,331.94,238.4Z"/><path class="cls-11" d="M445,254.25c-14.78-16.7-52.06-47-106.68-10.28a37.46,37.46,0,0,0-16.71,32.8c.94,21.15,8.51,53.09,42.83,69.94,0,0,85.7,27.21,91.94-66.33a46.21,46.21,0,0,0-.56-5.45C454.75,267.1,450.29,260.17,445,254.25Z"/><path class="cls-11" d="M527.51,260c19.22-10.79,54.42-23.43,80.39,8.21,11.7,14.26,16.82,32.89,15.13,51.27-2.6,28.22-17.34,67.5-82.22,50.24,0,0-42.7-13.27-30.47-85.24A34.7,34.7,0,0,1,527.51,260Z"/></g></g></svg>