<?xml version="1.0" encoding="utf-8"?>
<!-- Generator: Adobe Illustrator 25.4.1, SVG Export Plug-In . SVG Version: 6.00 Build 0)  -->
<svg version="1.1" id="Laag_1" xmlns="http://www.w3.org/2000/svg" xmlns:xlink="http://www.w3.org/1999/xlink" x="0px" y="0px"
	 viewBox="0 0 1200 1181.3" style="enable-background:new 0 0 1200 1181.3;" xml:space="preserve">
<style type="text/css">
	.st0{fill:#FCE7D8;}
	.st1{fill:#A0C36B;}
	.st2{fill:#F0883C;}
	.st3{fill:#FFDE2D;}
</style>
<rect x="0" y="71.9" class="st0" width="1200" height="1109.4"/>
<g>
	<g>
		<path class="st1" d="M392,950l19.4-59.2c1.5-4.6,4.2-6.6,8.4-6.6c4.8,0,9.5,2.9,9.5,8.8c0,1.1-0.4,2.9-0.9,4l-27.1,80.3
			c-1.3,3.7-4,5.9-8.6,5.9c-4.6,0-7.5-2.4-8.8-6.2l-22.4-60.9l-22.2,60.9c-1.3,3.5-4,6.2-8.8,6.2s-7.7-2.4-8.6-5.9L294.8,897
			c-0.4-1.1-0.9-2.9-0.9-4c0-5.9,4.6-8.8,9.5-8.8c4.2,0,6.8,2,8.4,6.6l19.4,59.2l22-59.6c1.3-3.7,3.7-6.2,8.4-6.2
			c4.6,0,7,2.4,8.4,6.2L392,950z"/>
		<path class="st1" d="M543.4,972.9c0,5.7-4,10.3-10.3,10.3c-6.2,0-10.1-4.6-10.1-10.3v-4.8c-6.2,9.2-17.8,16.1-32.1,16.1
			c-30.8,0-48.6-22.4-48.6-50.4c0-27.5,19.8-50.4,50.8-50.4c31.7,0,50.4,20.7,50.4,50.4V972.9z M492.8,901
			c-17.6,0-29.9,14.7-29.9,32.8c0,18.9,10.3,32.8,29.9,32.8c18.3,0,29.9-15.6,29.9-32.8C522.7,913.5,510.4,901,492.8,901z"/>
		<path class="st1" d="M583.2,983.3c-6.2,0-10.3-4.6-10.3-10.3V843.6c0-5.7,4.2-10.3,10.3-10.3c6.2,0,10.3,4.6,10.3,10.3v79
			l46.2-36.1c1.8-1.5,4.4-2.2,6.4-2.2c5.5,0,9.5,4,9.5,9c0,3.3-2,5.7-4.8,7.9L621,924.3l33.9,43.6c1.3,1.8,2.2,3.5,2.2,5.9
			c0,5.1-3.5,9.5-9.9,9.5c-3.1,0-5.3-1.5-7-4l-33.9-43.6l-12.8,10.3v26.8C593.5,978.7,589.4,983.3,583.2,983.3z"/>
		<path class="st1" d="M696.1,845.1c6.6,0,12.1,5.5,12.1,12.1c0,6.6-5.5,12.1-12.1,12.1c-6.6,0-12.1-5.5-12.1-12.1
			C684,850.6,689.5,845.1,696.1,845.1z M696.1,983.3c-6.2,0-10.3-4.6-10.3-10.3v-78.3c0-5.7,4.4-10.3,10.3-10.3
			c5.9,0,10.3,4.6,10.3,10.3v78.3C706.4,978.7,702.2,983.3,696.1,983.3z"/>
		<path class="st1" d="M799.4,984.1c-14.7,0-27.9-7.5-34.5-18.9v7.5c0,5.7-3.7,10.6-10.1,10.6s-9.9-4.6-9.9-10.3V843.6
			c0-5.7,4.2-10.3,10.3-10.3c6.2,0,10.3,4.6,10.3,10.3v58.7c7-11.2,19.1-18.9,33.9-18.9c25.3,0,46,20,46,50.4
			C845.4,963,824.7,984.1,799.4,984.1z M795.3,900.6c-17.8,0-29.7,15.6-29.7,33.2s11.9,33.2,29.7,33.2c17.8,0,29.5-13.4,29.5-33.2
			C824.7,914,813.1,900.6,795.3,900.6z"/>
		<path class="st1" d="M885.9,845.1c6.6,0,12.1,5.5,12.1,12.1c0,6.6-5.5,12.1-12.1,12.1c-6.6,0-12.1-5.5-12.1-12.1
			C873.8,850.6,879.3,845.1,885.9,845.1z M885.9,983.3c-6.2,0-10.3-4.6-10.3-10.3v-78.3c0-5.7,4.4-10.3,10.3-10.3
			c5.9,0,10.3,4.6,10.3,10.3v78.3C896.2,978.7,892.1,983.3,885.9,983.3z"/>
	</g>
	<g>
		<g>
			<path class="st2" d="M494.1,581.3c-7.8-23.4-12-48.4-12-74.5c0-26.4,4.4-51.7,12.3-75.4c1.9,0.7,1.5,0.5-0.6-0.2
				c-8.1-2.8-16.8-4.4-26.1-4.4c-44.1,0-80,35.9-80,80c0,44.1,35.9,80,80,80c8.5,0,16.7-1.7,24.5-4.8
				C494.1,581.3,494.8,581.1,494.1,581.3z"/>
		</g>
		<g>
			<path class="st2" d="M511.6,621.4c-13.5,5.7-28,9-43.9,9c-68.1,0-123.5-55.4-123.5-123.5c0-68.1,55.4-123.5,123.5-123.5
				c16.3,0,31,3,44.4,8.2c21-37.6,52-68.8,89.3-90.2c-35.1-20.4-75.8-32.2-119.4-32.2c-131.3,0-237.7,106.4-237.7,237.7
				c0,131.3,106.4,237.8,237.7,237.8c43.5,0,84.3-11.7,119.4-32.2C563.8,690.9,532.7,659.4,511.6,621.4z"/>
		</g>
	</g>
	<g>
		<g>
			<path class="st3" d="M718.9,270.1c-41.2,0-79.9,10.5-113.6,29c-0.9,0.5-1.7,1-2.6,1.5l-1.2,0.7c37,21.5,67.7,52.8,88.5,90.2
				c13-5.2,27.1-8.2,42.3-8.2c68.1,0,123.6,55.4,123.6,123.5c0,68.1-55.4,123.5-123.6,123.5c-15.7,0-30-2.8-43.1-7.7
				c0.1,0.1,0.3,0.1,0.4,0.2c-20.8,37.2-51.3,68.2-88.1,89.6l1.1,0.7c34.3,19.4,74,30.5,116.3,30.5c130.8,0,236.8-106,236.8-236.8
				C955.6,376.1,849.6,270.1,718.9,270.1z"/>
		</g>
		<g>
			<path class="st3" d="M732.3,426.9c-7.8,0-15.2,1.3-22.4,3.8l-2.3,0.9c7.9,23.7,12.2,49,12.2,75.4c0,26.6-4.4,52.1-12.4,75.9
				c7.8,2.6,16,4,24.9,4c44.1,0,80-35.9,80-80C812.3,462.8,776.4,426.9,732.3,426.9z"/>
		</g>
	</g>
	<g>
		<g>
			<g>
				<path class="st1" d="M600.2,469.4c25.3-32.4,53.7-63.6,89.8-77.9c-20.8-37.4-51.5-68.7-88.5-90.2
					c-37.4,21.4-68.3,52.6-89.3,90.2C549.1,405.8,576.4,437,600.2,469.4z"/>
			</g>
			<g>
				<path class="st1" d="M599,542.9c-25.6,33.1-52.9,63.8-87.3,78.5c21,38,52.2,69.5,89.8,91.1c36.8-21.4,67.3-52.4,88.1-89.6
					C651.4,608.6,623.4,576.3,599,542.9z"/>
			</g>
			<g>
				<path class="st1" d="M626.5,506.6c24.4,34.4,48.7,65.5,80.9,76.3c8-23.9,12.4-49.4,12.4-76c0-26.4-4.3-51.7-12.2-75.4
					C677.1,442.9,651.3,474,626.5,506.6z"/>
			</g>
			<g>
				<path class="st1" d="M572.6,505.7c-23.5-33.2-47.1-63-78.2-74.2c-8,23.7-12.3,49-12.3,75.4c0,26,4.2,51,12,74.5
					C522.7,569.3,547.4,539,572.6,505.7z"/>
			</g>
		</g>
	</g>
</g>
<g>
	<path d="M443.9,31h27.2l-32.6,79.9h-23.5l-10.8-30.4l-10.8,30.4h-23.5L337.1,31h27.2l19.3,53.6l5-17.2L374.3,31h22.9l6.8,23.4
		l6.8-23.4h22.9l-14.3,36.4l5,17.2L443.9,31z"/>
	<path d="M498.3,112.4c-3.9,0-7.6-0.7-11.1-2c-3.4-1.3-6.4-3.1-8.9-5.4c-2.5-2.3-4.4-5-5.8-8.1c-1.4-3.1-2.1-6.5-2.1-10.2
		c0-4,0.9-7.7,2.6-11.1c1.7-3.3,4.1-6.2,7.1-8.7c3-2.4,6.7-4.3,10.9-5.6c4.2-1.3,8.8-2,13.9-2c6.5,0,11.8,1,16.1,3V60
		c0-3.7-1.1-6.5-3.3-8.4c-2.2-1.8-5.7-2.7-10.6-2.7c-4.6,0-8.8,0.7-12.6,2.2c-3.8,1.5-7.9,3.6-12.1,6.5L474,39.6
		c10.5-6.8,22.5-10.2,36-10.2c12.8,0,22.6,2.8,29.5,8.5c6.9,5.7,10.3,14.2,10.3,25.5V79c0,2.7,0.4,4.6,1.2,5.7
		c0.8,1.1,2.2,1.7,4.3,1.9v24.3c-2.3,0.5-4.5,0.9-6.6,1.1c-2.1,0.3-3.9,0.4-5.5,0.4c-5.2,0-9.1-0.9-11.8-2.8
		c-2.7-1.9-4.4-4.6-5.2-8.3l-0.6-2.9c-3.5,4.6-7.6,8-12.3,10.4C508.5,111.2,503.5,112.4,498.3,112.4z M506.9,91.7
		c1.7,0,3.5-0.3,5.3-0.8c1.8-0.6,3.4-1.3,4.9-2.2c1.1-0.8,2-1.7,2.7-2.7c0.7-1,1.1-1.9,1.1-3v-5.9c-1.7-0.6-3.6-1.1-5.6-1.5
		c-2-0.4-3.8-0.6-5.5-0.6c-3.5,0-6.5,0.9-8.8,2.6c-2.3,1.7-3.5,3.9-3.5,6.5c0,2.2,0.9,4.1,2.7,5.5C501.9,91,504.2,91.7,506.9,91.7z"
		/>
	<path d="M618.4,110.9l-18.1-29.2l-5.8,6.4v22.8h-28.9V0h28.9v60.6L615.8,31h30.4l-27.5,34.9l30.2,45H618.4z"/>
	<path d="M654.1,24.3V0h28.9v24.3H654.1z M654.1,110.9V31h28.9v79.9H654.1z"/>
	<path d="M748.4,112.4c-12,0-20.7-4.7-25.8-14v12.5h-25.1V0h28.9v42.8c2.3-4.4,5.6-7.7,9.9-9.9c4.3-2.3,9.3-3.4,15-3.4
		c4.9,0,9.4,1.1,13.6,3.2c4.2,2.1,7.8,5,10.9,8.7c3,3.7,5.4,8.1,7.1,13.2c1.7,5.1,2.6,10.7,2.6,16.6c0,6-0.9,11.5-2.8,16.5
		c-1.9,5-4.5,9.3-7.7,13c-3.3,3.6-7.2,6.5-11.8,8.6C758.5,111.3,753.6,112.4,748.4,112.4z M740,88.1c4.8,0,8.6-1.5,11.5-4.6
		c2.9-3,4.3-7.1,4.3-12.1c0-2.4-0.4-4.7-1.1-6.8c-0.8-2.1-1.8-4-3-5.6c-1.3-1.6-2.8-2.9-4.6-3.8c-1.8-0.9-3.7-1.4-5.8-1.4
		c-3,0-5.9,1.1-8.7,3.3c-2.7,2.2-4.8,5-6.2,8.6v14.3C730.1,85.3,734.6,88.1,740,88.1z"/>
	<path d="M795.7,24.3V0h28.9v24.3H795.7z M795.7,110.9V31h28.9v79.9H795.7z"/>
	<path d="M839.5,110.9V82.9h23.4v27.9H839.5z"/>
</g>
</svg>
