<svg xmlns="http://www.w3.org/2000/svg" id="Laag_1" x="0" y="0" version="1.1" viewBox="0 0 1200 1172.8" xml:space="preserve"><style>.st2{fill:#802022}.st3{fill:#f9cc1b}</style><path fill="#e6d2d3" d="M0 63.4h1200v1109.4H0z"/><circle cx="600" cy="618.1" r="470.9" fill="#fff5e6"/><path d="M507.9 831.6c120.3-25 248 26.5 248 26.5l-45.5-145.4-63.1-20.5-22-71.9 108.6 42.6 19.1 93.9 55.8 25-23.5-113s7-101-50.8-146.6l5.3-39.7-210-33.8-89.4 98.3-13.2 142.4 26.5 8.2 24.9 50.5-19.1 91 48.4-7.5z" class="st2"/><path d="M819.3 451s-131.8-119.2-310.6-52.7-118.1 288.8-118.1 288.8l13.8 44.7 49.3-34.4s-16-126.1 61.9-183.4c77.9-57.3 188-24.1 218.9 8l84.8-71z" class="st2"/><g><path d="M645.2 971.6c38.7-11.5 75.4-2.3 112 8.3.1.8.2 1.7.4 2.5-3.6 1.1-7.2 2.1-10.8 3.2-17.7 5.7-35.2 12.5-53.2 17.1-25.9 6.6-51.1 4.7-73.4-12-5.2-3.9-9.4-9.3-14-13.9 47-51.8 56.9-58.6 103.5-71.1-2.4 4.3-3.9 7.9-6.1 10.9-11.6 16.4-25.4 30.4-43 40.5-5.8 3.3-11 7.7-16.4 11.6.2 1 .6 2 1 2.9zM490.5 905c27 11.3 55.9 15.2 74.2 40.2 8 11 18 20.5 27.8 31.4-8.9 14.9-23.7 22.8-40.9 27.1-17.2 4.3-34.4 2.7-51.1-2.1-19.5-5.7-38.6-12.8-59.7-19.8 18.9-9 38-12.4 57-13.7 18.8-1.3 37.8.4 57.7.7-5.1-3.6-10-7.9-15.6-11.1-17.9-10.2-32-24.3-43.8-41-1.5-2.1-2.9-4.4-4.1-6.7-.4-.9-.6-2.1-1.5-5z" class="st3"/><path d="M721.6 955.6c19.9-13.2 93-19.1 117.9-10-18.1 7.4-35.8 16-54.4 21.6-8.2 2.5-18.5-.3-27.5-2.1-11.9-2.4-23.6-6.1-36-9.5zM359.2 942.6c41.6-4.1 80.6-2.3 118.3 12.3-73.5 21.1-62.7 16.5-118.3-12.3zM185.8 570.3c22.9 32.9 34.2 67.2 33.2 105.3-.9.5-1.7 1.1-2.6 1.6-9.3-12.4-20-24-27.2-37.5-4.1-7.6-3-18.2-3.3-27.5-.5-13.1-.1-26.3-.1-41.9zM980.7 678.2c-1-40.7 10.4-75 33.5-105.9 0 10.8.3 21.6-.1 32.5-.4 10.2-.6 20.5-2.5 30.5-1.2 6.3-4.7 12.6-8.6 17.7-6.2 8.2-13.7 15.6-22.3 25.2zM499.9 947.3c-26.8-2.3-77.8-46.8-84.3-73 40.1 10 63.5 39.4 84.3 73zM700 947.1c20.3-33.2 43.8-62.6 83.7-72.8-.6 21.3-59.8 73.1-83.7 72.8zM948.8 749.5c13.6-32.7 32.6-61.5 61.3-85.6-.5 24.5-4.7 46.2-21.6 61.9-11 10.2-25.2 17.1-38 25.5-.6-.6-1.2-1.2-1.7-1.8zM248.7 751.7c-8.9-6.4-17.4-13.8-26.9-19.1-26.8-14.8-29.9-40.3-31.5-66.9 27.9 22.6 47.2 51.1 60.5 84-.7.6-1.4 1.3-2.1 2zM354.8 884.5c-41.5-5.4-78-14.7-97.4-54.6 36 10.2 68.9 26.1 97.4 54.6zM942.3 829.8c-19.5 40.1-56.1 49.4-97.2 54.6 28.1-28.5 61.2-44 97.2-54.6zM214.9 590.3c-23.9-25.3-26.5-72.9-5.4-100.4 14.9 32.9 12.5 66.4 5.4 100.4zM984.8 590.2c-7-33.8-9.6-67.3 5.1-99.8 21.4 20.6 18.7 75.6-5.1 99.8zM787.7 925.6c33.1-22.7 71.6-27.9 109.9-35.7-28.2 39.7-70.4 33.6-109.9 35.7zM412.1 925.6c-39.6-2-81.8 4.2-109.9-35.7 38.2 7.8 76.7 13.2 109.9 35.7zM290.2 822.7c-28.3.2-70-38.5-79.2-73.6 32.5 19.2 58.5 42.7 79.2 73.6zM909.1 823.3c21-31.6 47.2-54.9 78.7-73.8-3.7 30.3-45.9 70.4-78.7 73.8zM225.9 505.6c-15.2-33.7-5.2-72.8 17.2-96.5 6.3 34.3-2.4 65-17.2 96.5zM973.6 505.7c-14.5-31.6-23.4-62.3-17.1-96.5 22.5 17.6 31.6 68 17.1 96.5zM351.1 829.4c28.7 20.9 52.6 45 63.6 79-24.6-2.4-59-44.7-63.6-79zM784.8 908.9c11.2-34.5 35.1-58.6 63.1-79-4 31.9-32.9 71.7-63.1 79zM237.1 549.7c-9-26.4 12.3-67.5 43.4-83.8-5.9 32.6-26.1 56.9-43.4 83.8zM918.9 465.7c31.9 17.3 53.1 58.6 43.6 83.8-17.1-26.4-37.2-50.8-43.6-83.8zM677.5 230.5c36.7-3.3 69.9 9.6 80.7 31.5-28.5 2.9-72.9-15.3-80.7-31.5zM440.3 261.8c21.2-28.1 50.3-32.9 82.1-31.5-8.7 16.9-53.1 34.8-82.1 31.5zM293.5 337.4c1.7 20.8-15.7 62.4-34.2 81.8-8-30 5.2-61.5 34.2-81.8zM289.9 791.1c-19.2-18.4-34.5-71.1-22.8-92.6 17.1 26.2 26.7 65.3 22.8 92.6zM933.5 696.5c8.5 37-3.6 66.8-22.7 95.9-6.1-20.4 3.8-62.6 22.7-95.9zM905.2 335.9c32.7 28.1 41.8 50.1 35.2 84.8-18-26-31.6-52.4-35.2-84.8zM894 352.6c-25.3-19.7-46.5-40.2-55.7-71 24.3 6.7 52.2 37.4 55.7 71zM306.1 350.6c2.8-30.1 27.5-59.3 53.9-69.2-.6 21.8-33 58.2-53.9 69.2zM947.4 619.7c17 12.1 24.2 67.7 5.9 89.4-9-29.2-12.4-58.6-5.9-89.4zM246.4 709.5c-16.6-23.6-13.1-74 5.9-89.5 6.5 30.1 3 59.6-5.9 89.5zM347.6 856.5c-23.4-9.3-47.7-55.4-42.3-80.1 22.2 22.8 35.2 49.4 42.3 80.1zM852.1 856.6c6.7-30.8 20.3-57.2 41.5-79.8 8.4 19.7-16.9 69-41.5 79.8zM265.5 538.8c-.1 27.2-13.6 57.7-35.1 79.7-5.6-29.2 9.8-61.3 35.1-79.7zM933.8 537.5c25.8 21.9 39.2 47.6 36.6 80.9-17.9-12-34.1-47.5-36.6-80.9zM880.2 394.3c29.6 7.8 60.6 40.2 61.3 63.9-24.7-17-48-34.6-61.3-63.9zM256.4 458.5c10.3-33.3 31.7-52.6 61.5-64.7-2.9 17.9-31.6 48.3-61.5 64.7zM763.7 242.2c30.3 8.9 53.3 22.6 61.8 53.7-29.5-6.8-45.7-28.4-61.8-53.7zM436 242c-16.1 25.4-32.3 47-61.9 53.9 8.6-31 31.7-44.7 61.9-53.9zM905.7 389c-27.3-5.3-48.3-19.1-66.9-37.5 16.8-8.1 56.1 13.6 66.9 37.5zM294.6 387.6c10.7-22.4 45.7-42 65.7-37.2-11.2 16.9-46.9 37.3-65.7 37.2zM468.8 277.9c-18.4 19.5-41.9 23.4-69.3 22 19.9-21.5 43.9-23.7 69.3-22zM730.3 277.1c25.8-1.4 49.5 1.6 68.8 21.2-19.8 7.1-57.7-4.6-68.8-21.2zM856.1 334.7c-24.4-.6-45.6-6-62.6-24 21.7-5.4 52.5 6.1 62.6 24zM344.4 333.5c15.5-20.2 36.8-25.1 63.1-24.2-18.2 19.4-39.5 24.7-63.1 24.2z" class="st3"/></g><g><path d="M143 42.9h13.8l-16.6 40.5h-11.9L122.8 68l-5.5 15.4h-11.9L88.9 42.9h13.8l9.8 27.2 2.5-8.7-7.2-18.5h11.6l3.5 11.9 3.5-11.9H138l-7.2 18.5 2.5 8.7 9.7-27.2zM178.2 84.2c-3.5 0-6.7-.6-9.5-1.7s-5.1-2.6-7-4.5c-1.9-1.9-3.3-4.1-4.3-6.5-1-2.5-1.5-5.1-1.5-7.8 0-2.9.5-5.7 1.4-8.3.9-2.6 2.4-4.9 4.2-6.9 1.9-2 4.2-3.5 6.9-4.7 2.7-1.2 5.9-1.7 9.6-1.7 3.6 0 6.8.6 9.5 1.7 2.8 1.2 5.1 2.7 7 4.6 1.9 1.9 3.3 4.2 4.2 6.7.9 2.5 1.4 5.2 1.4 8 0 .8 0 1.6-.1 2.3s-.2 1.5-.3 2.1h-28.4c.2 2.2.9 3.7 2.4 4.7 1.4 1 3 1.4 4.7 1.4 1.6 0 3.1-.4 4.5-1.1 1.4-.7 2.3-1.7 2.8-3l12.4 3.5c-1.6 3.2-4.2 5.9-7.6 7.9-3.1 2.2-7.3 3.3-12.3 3.3zm6.5-25.4c-.3-2-1-3.5-2.2-4.6-1.2-1.1-2.7-1.7-4.5-1.7-1.8 0-3.4.6-4.5 1.7-1.2 1.1-1.9 2.7-2.2 4.6h13.4zM230.9 84.2c-6.1 0-10.5-2.4-13.1-7.1v6.3h-12.7V27.2h14.6v21.7c1.2-2.2 2.8-3.9 5-5 2.2-1.2 4.7-1.7 7.6-1.7 2.5 0 4.8.5 6.9 1.6 2.1 1.1 4 2.6 5.5 4.4 1.5 1.9 2.7 4.1 3.6 6.7.9 2.6 1.3 5.4 1.3 8.4s-.5 5.8-1.4 8.4c-1 2.5-2.3 4.7-3.9 6.6-1.7 1.8-3.7 3.3-6 4.4s-4.7 1.5-7.4 1.5zm-4.2-12.4c2.4 0 4.4-.8 5.8-2.3s2.2-3.6 2.2-6.2c0-1.2-.2-2.4-.6-3.5s-.9-2-1.5-2.8c-.6-.8-1.4-1.5-2.3-1.9-.9-.5-1.9-.7-3-.7-1.5 0-3 .6-4.4 1.7-1.4 1.1-2.4 2.6-3.2 4.4v7.2c2 2.7 4.3 4.1 7 4.1zM266.9 84.2c-2 0-3.9-.3-5.6-1-1.7-.7-3.2-1.6-4.5-2.7-1.3-1.2-2.2-2.5-3-4.1-.7-1.6-1.1-3.3-1.1-5.2 0-2.1.4-3.9 1.3-5.6.9-1.7 2.1-3.2 3.6-4.4 1.5-1.2 3.4-2.2 5.5-2.8 2.1-.7 4.5-1 7-1 3.3 0 6 .5 8.2 1.5v-1.2c0-1.9-.6-3.3-1.7-4.2-1.1-.9-2.9-1.4-5.4-1.4-2.3 0-4.4.4-6.4 1.1-2 .7-4 1.8-6.2 3.3l-4.2-9.1c5.3-3.4 11.4-5.2 18.2-5.2 6.5 0 11.4 1.4 14.9 4.3s5.2 7.2 5.2 12.9v7.9c0 1.4.2 2.3.6 2.9s1.1.9 2.2 1v12.3c-1.2.3-2.3.4-3.3.6-1.1.1-2 .2-2.8.2-2.6 0-4.6-.5-6-1.4-1.4-.9-2.2-2.3-2.7-4.2l-.3-1.5c-1.8 2.3-3.9 4.1-6.2 5.3-2.1 1-4.6 1.7-7.3 1.7zm4.4-10.5c.9 0 1.8-.1 2.7-.4.9-.3 1.7-.7 2.5-1.1.6-.4 1-.9 1.4-1.3.4-.5.5-1 .5-1.5v-3c-.9-.3-1.8-.6-2.8-.8-1-.2-2-.3-2.8-.3-1.8 0-3.3.4-4.5 1.3-1.2.9-1.8 2-1.8 3.3 0 1.1.4 2.1 1.3 2.8 1 .6 2.1 1 3.5 1zM329 81.1c-2.1.9-4.2 1.6-6.6 2.2-2.3.6-4.6.9-6.9.9-1.6 0-3.2-.2-4.7-.6-1.5-.4-2.8-1.1-3.9-2-1.1-.9-2-2.1-2.6-3.6-.6-1.5-1-3.3-1-5.5V53.9h-5v-11h5V30.2H318v12.7h7.9v11H318v13.4c0 1.3.3 2.3.8 2.8.6.5 1.3.8 2.3.8.7 0 1.5-.1 2.5-.3.9-.2 1.8-.6 2.8-1l2.6 11.5zM332.9 27.2h14.6v40.1c0 3.1 1.3 4.6 3.8 4.6.6 0 1.3-.1 2-.3.7-.2 1.4-.5 2-.8l1.8 10.8c-1.7.8-3.7 1.5-5.9 1.9-2.2.5-4.2.7-6.2.7-3.9 0-6.9-1-9-3-2.1-2-3.2-4.9-3.2-8.7V27.2zM372.5 84.2c-2 0-3.9-.3-5.6-1-1.7-.7-3.2-1.6-4.5-2.7-1.3-1.2-2.2-2.5-3-4.1-.7-1.6-1.1-3.3-1.1-5.2 0-2.1.4-3.9 1.3-5.6.9-1.7 2.1-3.2 3.6-4.4 1.5-1.2 3.4-2.2 5.5-2.8 2.1-.7 4.5-1 7-1 3.3 0 6 .5 8.2 1.5v-1.2c0-1.9-.6-3.3-1.7-4.2-1.1-.9-2.9-1.4-5.4-1.4-2.3 0-4.4.4-6.4 1.1-2 .7-4 1.8-6.2 3.3l-4.2-9.1c5.3-3.4 11.4-5.2 18.2-5.2 6.5 0 11.4 1.4 14.9 4.3s5.2 7.2 5.2 12.9v7.9c0 1.4.2 2.3.6 2.9s1.1.9 2.2 1v12.3c-1.2.3-2.3.4-3.3.6-1.1.1-2 .2-2.8.2-2.6 0-4.6-.5-6-1.4-1.4-.9-2.2-2.3-2.7-4.2l-.3-1.5c-1.8 2.3-3.9 4.1-6.2 5.3-2.1 1-4.7 1.7-7.3 1.7zm4.4-10.5c.9 0 1.8-.1 2.7-.4.9-.3 1.7-.7 2.5-1.1.6-.4 1-.9 1.4-1.3.4-.5.5-1 .5-1.5v-3c-.9-.3-1.8-.6-2.8-.8-1-.2-2-.3-2.8-.3-1.8 0-3.3.4-4.5 1.3-1.2.9-1.8 2-1.8 3.3 0 1.1.4 2.1 1.3 2.8.9.6 2.1 1 3.5 1zM423.4 84.2c-3.5 0-7-.6-10.4-1.7-3.4-1.2-6.3-2.8-8.6-5l5-8.8c2.5 1.7 4.9 3 7.3 3.9 2.3.9 4.5 1.4 6.4 1.4 2.1 0 3.1-.6 3.1-1.9 0-.7-.4-1.3-1.2-1.8-.8-.5-2.3-1.1-4.7-1.8-2.9-.8-5.3-1.6-7.2-2.4-1.9-.8-3.5-1.7-4.7-2.6-1.2-.9-2.1-2-2.6-3.1s-.8-2.5-.8-4c0-2.1.4-4 1.2-5.7s2-3.3 3.4-4.5 3.2-2.3 5.2-3c2-.7 4.2-1 6.7-1 3 0 5.8.4 8.5 1.2 2.7.8 5.4 2.3 8.1 4.7l-5.5 8.8c-2.5-1.6-4.6-2.8-6.3-3.5-1.7-.7-3.3-1-4.8-1-.9 0-1.6.2-2.2.5-.6.3-.8.9-.8 1.6 0 .8.4 1.4 1.2 1.9.8.5 2.4 1 4.9 1.7 2.9.8 5.4 1.6 7.4 2.4 2 .8 3.6 1.8 4.8 2.8 1.2 1 2.1 2.1 2.6 3.4.5 1.3.8 2.7.8 4.4 0 2.1-.4 4-1.2 5.6-.8 1.6-1.9 3.1-3.3 4.2s-3.2 2.1-5.3 2.7c-2.1.2-4.4.6-7 .6zM503.3 83.4h-14.6V60.6c0-2-.5-3.5-1.3-4.4-.9-.9-2-1.3-3.3-1.3-.5 0-1 .1-1.7.4-.6.3-1.3.7-1.9 1.2-.6.5-1.2 1.1-1.8 1.8-.6.7-1 1.5-1.4 2.4v22.7h-14.6V27.2h14.6v21.7c1.4-2.2 3.3-3.9 5.6-5 2.3-1.2 4.9-1.7 7.8-1.7 2.8 0 5.1.5 6.8 1.5 1.7 1 3 2.2 3.8 3.7s1.4 3 1.7 4.7c.3 1.7.4 3.3.4 4.8v26.5zM530.3 84.2c-3.5 0-6.7-.6-9.5-1.7s-5.1-2.6-7-4.5c-1.9-1.9-3.3-4.1-4.3-6.5-1-2.5-1.5-5.1-1.5-7.8 0-2.9.5-5.7 1.4-8.3.9-2.6 2.4-4.9 4.2-6.9 1.9-2 4.2-3.5 6.9-4.7 2.7-1.2 5.9-1.7 9.6-1.7 3.6 0 6.8.6 9.5 1.7 2.8 1.2 5.1 2.7 7 4.6 1.9 1.9 3.3 4.2 4.2 6.7.9 2.5 1.4 5.2 1.4 8 0 .8 0 1.6-.1 2.3s-.2 1.5-.3 2.1h-28.4c.2 2.2.9 3.7 2.4 4.7 1.4 1 3 1.4 4.7 1.4 1.6 0 3.1-.4 4.5-1.1 1.4-.7 2.3-1.7 2.8-3l12.4 3.5c-1.6 3.2-4.2 5.9-7.6 7.9-3.1 2.2-7.3 3.3-12.3 3.3zm6.5-25.4c-.3-2-1-3.5-2.2-4.6-1.2-1.1-2.7-1.7-4.5-1.7-1.8 0-3.4.6-4.5 1.7-1.2 1.1-1.9 2.7-2.2 4.6h13.4zM585.2 81.1c-2.1.9-4.2 1.6-6.6 2.2-2.3.6-4.6.9-6.9.9-1.6 0-3.2-.2-4.7-.6-1.5-.4-2.8-1.1-3.9-2-1.1-.9-2-2.1-2.6-3.6-.6-1.5-1-3.3-1-5.5V53.9h-5v-11h5V30.2h14.6v12.7h7.9v11h-7.9v13.4c0 1.3.3 2.3.8 2.8.6.5 1.3.8 2.3.8.7 0 1.5-.1 2.5-.3.9-.2 1.8-.6 2.8-1l2.7 11.5zM634.2 55.4c-2.8 0-5.4.3-7.7.9-2.3.6-4 1.6-5.2 3.1v24h-14.6V42.9h13.4v7.7c1.4-2.7 3.2-4.8 5.4-6.3 2.1-1.5 4.4-2.2 6.9-2.2 1 0 1.6 0 1.8.1v13.2zM658.7 84.2c-3.6 0-6.8-.6-9.6-1.7-2.7-1.2-5.1-2.7-6.9-4.6-1.9-1.9-3.3-4.2-4.2-6.7-1-2.5-1.4-5.2-1.4-8s.5-5.4 1.4-8c.9-2.5 2.4-4.8 4.2-6.7 1.9-1.9 4.2-3.5 6.9-4.6 2.7-1.2 5.9-1.7 9.6-1.7 3.6 0 6.8.6 9.5 1.7 2.8 1.2 5.1 2.7 7 4.6 1.9 1.9 3.3 4.2 4.2 6.7.9 2.5 1.4 5.2 1.4 8s-.5 5.4-1.4 8c-1 2.5-2.4 4.8-4.2 6.7-1.9 1.9-4.2 3.5-7 4.6-2.7 1.1-5.9 1.7-9.5 1.7zm-7.2-21.1c0 2.7.7 4.9 2 6.4s3.1 2.3 5.2 2.3 3.8-.8 5.2-2.3c1.3-1.5 2-3.7 2-6.4s-.7-4.9-2-6.4-3.1-2.3-5.2-2.3-3.8.8-5.2 2.3c-1.3 1.6-2 3.7-2 6.4zM751.3 83.4h-14.6V60.6c0-2-.4-3.5-1.2-4.4-.8-.9-1.8-1.3-2.9-1.3-1.2 0-2.4.5-3.7 1.6a9.64 9.64 0 0 0-2.9 4.2v22.7h-14.6V60.6c0-2-.4-3.5-1.2-4.4-.8-.9-1.8-1.3-2.9-1.3-1.2 0-2.4.5-3.7 1.6a9.64 9.64 0 0 0-2.9 4.2v22.7H686V42.9h13.2v6c1.4-2.2 3.4-3.9 5.9-5 2.5-1.2 5.5-1.7 8.9-1.7 1.6 0 3.1.2 4.3.6 1.2.4 2.3.9 3.2 1.6.9.7 1.6 1.4 2.2 2.2.5.8 1 1.7 1.3 2.6 1.4-2.2 3.4-3.9 5.9-5.2 2.5-1.2 5.3-1.8 8.5-1.8 2.7 0 4.8.5 6.4 1.5 1.6 1 2.8 2.2 3.6 3.7.8 1.5 1.4 3.1 1.6 4.8.3 1.7.4 3.2.4 4.6v26.6zM778.3 84.2c-3.5 0-6.7-.6-9.5-1.7s-5.1-2.6-7-4.5c-1.9-1.9-3.3-4.1-4.3-6.5-1-2.5-1.5-5.1-1.5-7.8 0-2.9.5-5.7 1.4-8.3.9-2.6 2.4-4.9 4.2-6.9 1.9-2 4.2-3.5 6.9-4.7 2.7-1.2 5.9-1.7 9.6-1.7 3.6 0 6.8.6 9.5 1.7 2.8 1.2 5.1 2.7 7 4.6 1.9 1.9 3.3 4.2 4.2 6.7.9 2.5 1.4 5.2 1.4 8 0 .8 0 1.6-.1 2.3s-.2 1.5-.3 2.1h-28.4c.2 2.2.9 3.7 2.4 4.7 1.4 1 3 1.4 4.7 1.4 1.6 0 3.1-.4 4.5-1.1 1.4-.7 2.3-1.7 2.8-3l12.4 3.5c-1.6 3.2-4.2 5.9-7.6 7.9-3.1 2.2-7.3 3.3-12.3 3.3zm6.5-25.4c-.3-2-1-3.5-2.2-4.6-1.2-1.1-2.7-1.7-4.5-1.7-1.8 0-3.4.6-4.5 1.7-1.2 1.1-1.9 2.7-2.2 4.6h13.4zM805.3 39.5V27.2h14.6v12.3h-14.6zm0 43.9V42.9h14.6v40.5h-14.6zM868 83.4h-14.6V60.6c0-2-.5-3.5-1.3-4.4-.9-.9-1.9-1.3-3.1-1.3-1.2 0-2.5.5-3.9 1.6s-2.4 2.5-3.1 4.2v22.7h-14.6V42.9h13.2v6c1.4-2.2 3.5-3.9 6-5 2.6-1.2 5.7-1.7 9.2-1.7 2.8 0 5 .5 6.6 1.5s2.8 2.2 3.7 3.7c.8 1.5 1.4 3.1 1.7 4.8.3 1.7.4 3.2.4 4.6v26.6zM891.8 84.2c-3.5 0-7-.6-10.4-1.7-3.4-1.2-6.3-2.8-8.6-5l5-8.8c2.5 1.7 4.9 3 7.3 3.9 2.3.9 4.5 1.4 6.4 1.4 2.1 0 3.1-.6 3.1-1.9 0-.7-.4-1.3-1.2-1.8-.8-.5-2.3-1.1-4.7-1.8-2.9-.8-5.3-1.6-7.2-2.4-1.9-.8-3.5-1.7-4.7-2.6-1.2-.9-2.1-2-2.6-3.1s-.8-2.5-.8-4c0-2.1.4-4 1.2-5.7s2-3.3 3.4-4.5 3.2-2.3 5.2-3c2-.7 4.2-1 6.7-1 3 0 5.8.4 8.5 1.2 2.7.8 5.4 2.3 8.1 4.7l-5.5 8.8c-2.5-1.6-4.6-2.8-6.3-3.5-1.7-.7-3.3-1-4.8-1-.9 0-1.6.2-2.2.5-.6.3-.8.9-.8 1.6 0 .8.4 1.4 1.2 1.9.8.5 2.4 1 4.9 1.7 2.9.8 5.4 1.6 7.4 2.4 2 .8 3.6 1.8 4.8 2.8 1.2 1 2.1 2.1 2.6 3.4.5 1.3.8 2.7.8 4.4 0 2.1-.4 4-1.2 5.6-.8 1.6-1.9 3.1-3.3 4.2s-3.2 2.1-5.3 2.7c-2 .2-4.4.6-7 .6zM933.6 84.2c-3.5 0-6.7-.6-9.5-1.7s-5.1-2.6-7-4.5c-1.9-1.9-3.3-4.1-4.3-6.5-1-2.5-1.5-5.1-1.5-7.8 0-2.9.5-5.7 1.4-8.3.9-2.6 2.4-4.9 4.2-6.9 1.9-2 4.2-3.5 6.9-4.7 2.7-1.2 5.9-1.7 9.6-1.7 3.6 0 6.8.6 9.5 1.7 2.8 1.2 5.1 2.7 7 4.6 1.9 1.9 3.3 4.2 4.2 6.7.9 2.5 1.4 5.2 1.4 8 0 .8 0 1.6-.1 2.3s-.2 1.5-.3 2.1H927c.2 2.2.9 3.7 2.4 4.7 1.4 1 3 1.4 4.7 1.4 1.6 0 3.1-.4 4.5-1.1 1.4-.7 2.3-1.7 2.8-3l12.4 3.5c-1.6 3.2-4.2 5.9-7.6 7.9-3.4 2.2-7.6 3.3-12.6 3.3zm6.5-25.4c-.3-2-1-3.5-2.2-4.6-1.2-1.1-2.7-1.7-4.5-1.7-1.8 0-3.4.6-4.5 1.7-1.2 1.1-1.9 2.7-2.2 4.6h13.4zM1005.4 55.4c-2.8 0-5.4.3-7.7.9-2.3.6-4 1.6-5.2 3.1v24h-14.6V42.9h13.4v7.7c1.4-2.7 3.2-4.8 5.4-6.3 2.1-1.5 4.4-2.2 6.9-2.2 1 0 1.6 0 1.8.1v13.2zM1009.9 39.5V27.2h14.6v12.3h-14.6zm0 43.9V42.9h14.6v40.5h-14.6z"/><path d="M1031 99.5c-2.2 0-4.2-.4-6.2-1.1-2-.7-3.7-1.7-5.3-3.1l6-9.9c.9 1 2.1 1.5 3.6 1.5 2.1 0 3.1-1.1 3.1-3.3V42.9h14.6v39.6c0 2.5-.4 4.8-1.2 6.9-.8 2.1-1.9 3.9-3.3 5.4-1.4 1.5-3.1 2.7-5 3.5-1.8.8-4 1.2-6.3 1.2zm1.3-60V27.2h14.6v12.3h-14.6zM1081 83.4l-9.2-14.8-2.9 3.2v11.5h-14.6V27.2h14.6v30.7l10.8-15h15.4l-13.9 17.7 15.3 22.8H1081zM1099.3 83.4V69.2h11.9v14.2h-11.9z"/></g></svg>