<svg xmlns="http://www.w3.org/2000/svg" viewBox="0 0 1500 1500"><defs><style>.cls-1{fill:#e6d2d3;}.cls-2{fill:#fff5e6;}.cls-3{fill:#802022;}.cls-4{fill:#f9cc1b;}</style></defs><g id="Laag_5" data-name="Laag 5"><rect class="cls-1" x="150" y="240.14" width="1200" height="1109.41"/><circle class="cls-2" cx="750" cy="794.85" r="470.89"/><path class="cls-3" d="M657.9,1008.36c120.35-25,248,26.49,248,26.49L860.44,889.47l-63.11-20.54-22-71.92,108.61,42.56L903,933.5l55.77,25-23.48-113s7-101-50.8-146.64l5.3-39.75-210-33.75-89.42,98.33L577.18,866l26.49,8.18,24.88,50.53-19.08,91Z"/><path class="cls-3" d="M969.31,627.74S837.5,508.53,658.69,575,540.63,863.85,540.63,863.85l13.76,44.7,49.28-34.38s-16-126.08,61.9-183.39,188-24.07,218.92,8Z"/><path class="cls-4" d="M795.21,1148.33c38.68-11.46,75.38-2.29,111.95,8.27l.37,2.53c-3.59,1.08-7.19,2.08-10.76,3.23-17.73,5.74-35.22,12.47-53.24,17.06-25.9,6.58-51.13,4.66-73.39-12-5.23-3.92-9.39-9.27-14-13.9,47-51.82,56.86-58.63,103.45-71.07-2.39,4.33-3.93,7.86-6.12,10.93-11.63,16.36-25.41,30.42-43,40.54-5.79,3.33-11,7.72-16.41,11.63Z"/><path class="cls-4" d="M640.53,1081.68c27,11.32,55.91,15.19,74.23,40.23,8,11,18,20.52,27.79,31.41-8.94,14.88-23.74,22.81-40.92,27.11s-34.4,2.71-51.06-2.14c-19.52-5.69-38.65-12.75-59.74-19.82,18.94-9,38-12.43,57-13.73,18.8-1.29,37.8.35,57.74.73-5.07-3.65-10-7.89-15.58-11.08-17.87-10.23-32-24.29-43.81-41a76.91,76.91,0,0,1-4.13-6.71C641.56,1085.79,641.42,1084.64,640.53,1081.68Z"/><path class="cls-4" d="M871.56,1132.35c19.88-13.2,93-19.12,117.87-10-18.07,7.38-35.76,16-54.36,21.56-8.24,2.49-18.46-.28-27.5-2.08C895.66,1139.43,884,1135.69,871.56,1132.35Z"/><path class="cls-4" d="M509.24,1119.37c41.59-4,80.62-2.31,118.3,12.3C554,1152.72,564.82,1148.14,509.24,1119.37Z"/><path class="cls-4" d="M335.8,747.05C358.7,780,370,814.25,369,852.32l-2.56,1.62c-9.26-12.41-20-24-27.22-37.51-4.09-7.6-3-18.23-3.34-27.53C335.44,775.79,335.8,762.66,335.8,747.05Z"/><path class="cls-4" d="M1130.69,854.93c-1-40.72,10.43-75,33.53-105.91,0,10.81.29,21.64-.09,32.45-.36,10.18-.56,20.51-2.5,30.45-1.22,6.27-4.67,12.57-8.59,17.75C1146.78,838,1139.29,845.35,1130.69,854.93Z"/><path class="cls-4" d="M649.87,1124c-26.78-2.32-77.82-46.77-84.34-73C605.69,1061,629.07,1090.42,649.87,1124Z"/><path class="cls-4" d="M850,1123.84c20.29-33.21,43.79-62.59,83.72-72.81C933.07,1072.28,873.91,1124.16,850,1123.84Z"/><path class="cls-4" d="M1098.8,926.22c13.56-32.69,32.6-61.47,61.26-85.57-.52,24.48-4.71,46.2-21.65,61.89-11,10.23-25.2,17.09-38,25.46Z"/><path class="cls-4" d="M398.73,928.42c-8.94-6.42-17.37-13.79-26.94-19.09-26.77-14.81-29.94-40.28-31.46-66.94,27.89,22.57,47.18,51.15,60.52,84Z"/><path class="cls-4" d="M504.8,1061.25c-41.49-5.37-78-14.73-97.4-54.6C443.45,1016.81,476.29,1032.77,504.8,1061.25Z"/><path class="cls-4" d="M1092.26,1006.56c-19.5,40.09-56.1,49.4-97.25,54.62C1023.2,1032.62,1056.34,1017.08,1092.26,1006.56Z"/><path class="cls-4" d="M364.86,767.06c-23.95-25.34-26.52-72.92-5.37-100.42C374.44,699.54,372,733,364.86,767.06Z"/><path class="cls-4" d="M1134.79,767c-7-33.79-9.56-67.26,5.13-99.8C1161.3,687.71,1158.57,742.71,1134.79,767Z"/><path class="cls-4" d="M937.68,1102.37c33.07-22.7,71.57-27.94,109.91-35.75C1019.38,1106.36,977.23,1100.25,937.68,1102.37Z"/><path class="cls-4" d="M562.13,1102.36c-39.57-2-81.79,4.24-109.87-35.7C490.45,1074.42,528.93,1079.78,562.13,1102.36Z"/><path class="cls-4" d="M440.18,999.41c-28.28.16-70-38.48-79.22-73.62C393.45,945,419.49,968.54,440.18,999.41Z"/><path class="cls-4" d="M1059.12,1000c21-31.58,47.15-54.94,78.71-73.76C1134.07,956.47,1091.92,996.58,1059.12,1000Z"/><path class="cls-4" d="M376,682.36c-15.23-33.71-5.19-72.81,17.17-96.53C399.45,620.15,390.66,650.83,376,682.36Z"/><path class="cls-4" d="M1123.63,682.37c-14.53-31.61-23.43-62.27-17.08-96.47C1129,603.56,1138.11,653.9,1123.63,682.37Z"/><path class="cls-4" d="M501.1,1006.1c28.73,20.87,52.56,45,63.59,79C540.1,1082.69,505.66,1040.39,501.1,1006.1Z"/><path class="cls-4" d="M934.82,1085.63c11.17-34.54,35.12-58.63,63.08-79C993.92,1038.52,965,1078.34,934.82,1085.63Z"/><path class="cls-4" d="M387.14,726.4c-9-26.42,12.28-67.52,43.45-83.8C424.61,675.26,404.44,699.5,387.14,726.4Z"/><path class="cls-4" d="M1068.86,642.37c31.91,17.33,53.06,58.6,43.65,83.85C1095.35,699.87,1075.35,675.42,1068.86,642.37Z"/><path class="cls-4" d="M827.5,407.27c36.71-3.3,69.87,9.62,80.72,31.46C879.7,441.67,835.28,423.41,827.5,407.27Z"/><path class="cls-4" d="M590.28,438.53c21.22-28.12,50.35-32.92,82.13-31.52C663.69,423.93,619.26,441.77,590.28,438.53Z"/><path class="cls-4" d="M443.46,514.1c1.67,20.8-15.73,62.41-34.22,81.84C401.3,566,414.49,534.43,443.46,514.1Z"/><path class="cls-4" d="M439.85,967.77c-19.2-18.43-34.52-71.1-22.83-92.57C434.19,901.44,443.82,940.49,439.85,967.77Z"/><path class="cls-4" d="M1083.47,873.19c8.5,37-3.64,66.76-22.7,95.88C1054.72,948.7,1064.64,906.49,1083.47,873.19Z"/><path class="cls-4" d="M1055.22,512.6c32.67,28.1,41.78,50.08,35.23,84.8C1072.42,571.39,1058.79,545,1055.22,512.6Z"/><path class="cls-4" d="M1044,529.3c-25.32-19.74-46.46-40.22-55.75-71C1012.63,465.06,1040.5,495.67,1044,529.3Z"/><path class="cls-4" d="M456.11,527.32c2.82-30.09,27.53-59.25,53.9-69.2C509.39,479.9,477,516.33,456.11,527.32Z"/><path class="cls-4" d="M1097.35,796.45c17,12.13,24.21,67.7,5.92,89.4C1094.34,856.62,1090.92,827.26,1097.35,796.45Z"/><path class="cls-4" d="M396.39,886.18c-16.65-23.6-13.11-74,5.93-89.53C408.85,826.87,405.34,856.31,396.39,886.18Z"/><path class="cls-4" d="M497.62,1033.26c-23.36-9.34-47.69-55.4-42.33-80.13C477.48,975.89,490.51,1002.54,497.62,1033.26Z"/><path class="cls-4" d="M1002.14,1033.36c6.72-30.83,20.31-57.17,41.55-79.79C1052,973.19,1026.66,1022.53,1002.14,1033.36Z"/><path class="cls-4" d="M415.51,715.53c-.15,27.18-13.58,57.7-35.07,79.66C374.8,766,390.24,733.93,415.51,715.53Z"/><path class="cls-4" d="M1083.77,714.23c25.77,21.92,39.22,47.63,36.56,80.89C1102.5,783.14,1086.29,747.57,1083.77,714.23Z"/><path class="cls-4" d="M1030.19,571c29.61,7.78,60.56,40.25,61.26,63.91C1066.75,617.89,1043.52,600.27,1030.19,571Z"/><path class="cls-4" d="M406.39,635.26c10.25-33.3,31.73-52.62,61.53-64.72C465,588.39,436.32,618.78,406.39,635.26Z"/><path class="cls-4" d="M913.71,418.94c30.27,8.87,53.25,22.63,61.77,53.67C946,465.79,929.79,444.18,913.71,418.94Z"/><path class="cls-4" d="M586.05,418.76c-16.14,25.4-32.34,47-61.89,53.88C532.68,441.58,555.78,427.93,586.05,418.76Z"/><path class="cls-4" d="M1055.73,565.71c-27.29-5.3-48.28-19.1-66.92-37.51C1005.63,520.14,1044.94,541.81,1055.73,565.71Z"/><path class="cls-4" d="M444.6,564.34c10.68-22.43,45.73-42,65.7-37.15C499.07,544,463.37,564.41,444.6,564.34Z"/><path class="cls-4" d="M618.83,454.67c-18.43,19.46-41.91,23.38-69.29,21.95C569.4,455.14,593.41,452.91,618.83,454.67Z"/><path class="cls-4" d="M880.32,453.85c25.8-1.43,49.49,1.63,68.76,21.24C929.26,482.1,891.37,470.45,880.32,453.85Z"/><path class="cls-4" d="M1006.11,511.38c-24.42-.6-45.59-6-62.6-24C965.21,482,996,493.56,1006.11,511.38Z"/><path class="cls-4" d="M494.39,510.21c15.45-20.15,36.85-25.07,63.08-24.24C539.27,505.39,518,510.72,494.39,510.21Z"/><path d="M293,219.6h13.78l-16.55,40.5H278.31l-5.47-15.4-5.47,15.4H255.44l-16.56-40.5h13.78l9.78,27.18,2.54-8.7-7.23-18.48h11.62l3.47,11.86,3.46-11.86h11.63l-7.24,18.48,2.54,8.7Z"/><path d="M328.2,260.87a25.51,25.51,0,0,1-9.47-1.65,20.23,20.23,0,0,1-7-4.51,19.39,19.39,0,0,1-4.27-6.54,20.88,20.88,0,0,1-1.46-7.78,24.2,24.2,0,0,1,1.42-8.32,19.34,19.34,0,0,1,4.23-6.85,20.62,20.62,0,0,1,6.94-4.66,27.31,27.31,0,0,1,19.13,0,20.91,20.91,0,0,1,7,4.62,19.17,19.17,0,0,1,4.23,6.7,22.58,22.58,0,0,1,1.43,8c0,.77,0,1.55-.12,2.35s-.17,1.5-.27,2.12H321.58A5.69,5.69,0,0,0,324,249a8.31,8.31,0,0,0,4.69,1.42,9.8,9.8,0,0,0,4.51-1.08,5.43,5.43,0,0,0,2.81-3l12.4,3.54a19.56,19.56,0,0,1-7.59,7.93A24,24,0,0,1,328.2,260.87Zm6.47-25.33a7.55,7.55,0,0,0-2.16-4.62,6.94,6.94,0,0,0-9.08,0,7.55,7.55,0,0,0-2.16,4.62Z"/><path d="M381,260.87q-9.17,0-13.09-7.08v6.31H355.15V203.89h14.63v21.72a12,12,0,0,1,5-5.05,15.93,15.93,0,0,1,7.62-1.73,15,15,0,0,1,6.89,1.62,16.93,16.93,0,0,1,5.51,4.42,21,21,0,0,1,3.61,6.7,26.15,26.15,0,0,1,1.31,8.44,23.69,23.69,0,0,1-1.42,8.35,20.21,20.21,0,0,1-3.93,6.58,18,18,0,0,1-6,4.35A17.72,17.72,0,0,1,381,260.87Zm-4.24-12.32a7.64,7.64,0,0,0,5.81-2.31,8.54,8.54,0,0,0,2.2-6.16,10.29,10.29,0,0,0-2.12-6.31,7,7,0,0,0-2.31-1.93,6.39,6.39,0,0,0-3-.69,6.9,6.9,0,0,0-4.39,1.66,10.28,10.28,0,0,0-3.16,4.35v7.23C371.68,247.17,374,248.55,376.71,248.55Z"/><path d="M416.9,260.87a15.57,15.57,0,0,1-5.62-1,14.12,14.12,0,0,1-4.5-2.73,12.6,12.6,0,0,1-3-4.12,12.35,12.35,0,0,1-1.07-5.16,12,12,0,0,1,1.31-5.62,13.35,13.35,0,0,1,3.61-4.39,16.82,16.82,0,0,1,5.51-2.85,23.41,23.41,0,0,1,7.05-1,19,19,0,0,1,8.16,1.54v-1.23a5.21,5.21,0,0,0-1.66-4.24c-1.1-.92-2.89-1.38-5.35-1.38A17.87,17.87,0,0,0,415,229.8a32.29,32.29,0,0,0-6.16,3.27L404.58,224a33,33,0,0,1,18.25-5.16q9.71,0,14.94,4.31T443,236.08v7.85a5,5,0,0,0,.61,2.89,2.93,2.93,0,0,0,2.16,1V260.1c-1.18.26-2.3.45-3.35.58a23.08,23.08,0,0,1-2.81.19,10.4,10.4,0,0,1-6-1.42,6.64,6.64,0,0,1-2.65-4.2l-.31-1.46a18.6,18.6,0,0,1-6.24,5.27A16.32,16.32,0,0,1,416.9,260.87Zm4.39-10.47A9.3,9.3,0,0,0,424,250a10.28,10.28,0,0,0,2.46-1.12,6.17,6.17,0,0,0,1.39-1.35,2.51,2.51,0,0,0,.54-1.5v-3a20.37,20.37,0,0,0-2.85-.77,14,14,0,0,0-2.77-.31,7.33,7.33,0,0,0-4.47,1.31,4,4,0,0,0-1.77,3.31,3.39,3.39,0,0,0,1.35,2.77A5.28,5.28,0,0,0,421.29,250.4Z"/><path d="M479,257.87a45.32,45.32,0,0,1-6.58,2.19,28.08,28.08,0,0,1-6.89.89,17.6,17.6,0,0,1-4.7-.62,10.14,10.14,0,0,1-3.89-2,9.52,9.52,0,0,1-2.61-3.62,13.85,13.85,0,0,1-1-5.54V230.61h-5v-11h5V206.9H468v12.7H476v11H468V244a3.78,3.78,0,0,0,.85,2.81,3.19,3.19,0,0,0,2.31.81,10.3,10.3,0,0,0,2.46-.35,17,17,0,0,0,2.78-1Z"/><path d="M482.89,203.89h14.63V244q0,4.62,3.78,4.62a7.18,7.18,0,0,0,2-.31,8.48,8.48,0,0,0,2-.85l1.85,10.78a26.43,26.43,0,0,1-5.89,1.93,30.09,30.09,0,0,1-6.2.69c-3.9,0-6.91-1-9-3s-3.16-4.9-3.16-8.7Z"/><path d="M522.47,260.87a15.53,15.53,0,0,1-5.62-1,14.06,14.06,0,0,1-4.51-2.73,12.72,12.72,0,0,1-3-4.12,12.36,12.36,0,0,1-1.08-5.16,12.12,12.12,0,0,1,1.31-5.62,13.38,13.38,0,0,1,3.62-4.39,16.72,16.72,0,0,1,5.51-2.85,23.35,23.35,0,0,1,7-1,18.89,18.89,0,0,1,8.16,1.54v-1.23a5.24,5.24,0,0,0-1.65-4.24q-1.66-1.38-5.35-1.38a18,18,0,0,0-6.4,1.11,32.29,32.29,0,0,0-6.16,3.27L510.15,224a33,33,0,0,1,18.25-5.16q9.71,0,14.94,4.31t5.23,12.94v7.85a5,5,0,0,0,.62,2.89,2.93,2.93,0,0,0,2.15,1V260.1c-1.18.26-2.29.45-3.34.58a23.24,23.24,0,0,1-2.82.19,10.39,10.39,0,0,1-6-1.42,6.65,6.65,0,0,1-2.66-4.2l-.31-1.46a18.47,18.47,0,0,1-6.23,5.27A16.35,16.35,0,0,1,522.47,260.87Zm4.39-10.47a9.23,9.23,0,0,0,2.69-.42,10.18,10.18,0,0,0,2.47-1.12,6.33,6.33,0,0,0,1.38-1.35,2.51,2.51,0,0,0,.54-1.5v-3a19.65,19.65,0,0,0-2.85-.77,13.87,13.87,0,0,0-2.77-.31,7.3,7.3,0,0,0-4.46,1.31,4,4,0,0,0-1.78,3.31,3.39,3.39,0,0,0,1.35,2.77A5.31,5.31,0,0,0,526.86,250.4Z"/><path d="M573.37,260.87a32.18,32.18,0,0,1-10.4-1.73,23.69,23.69,0,0,1-8.62-5l5-8.78a38.48,38.48,0,0,0,7.28,3.92,17.49,17.49,0,0,0,6.43,1.39c2.05,0,3.08-.64,3.08-1.92a2.21,2.21,0,0,0-1.19-1.85,20,20,0,0,0-4.66-1.77,66.33,66.33,0,0,1-7.2-2.43,20.38,20.38,0,0,1-4.7-2.58,8.12,8.12,0,0,1-2.58-3.08,9.64,9.64,0,0,1-.77-4,13.26,13.26,0,0,1,1.23-5.7,13.84,13.84,0,0,1,3.43-4.54,15.36,15.36,0,0,1,5.24-3,20.49,20.49,0,0,1,6.66-1,30.78,30.78,0,0,1,8.5,1.16,21.64,21.64,0,0,1,8.13,4.69l-5.55,8.78a39.56,39.56,0,0,0-6.31-3.5,12.7,12.7,0,0,0-4.77-1,4.21,4.21,0,0,0-2.16.5,1.7,1.7,0,0,0-.85,1.58,2.16,2.16,0,0,0,1.24,1.89,21.23,21.23,0,0,0,4.85,1.65,55.21,55.21,0,0,1,7.39,2.43,19.24,19.24,0,0,1,4.81,2.77,8.59,8.59,0,0,1,2.58,3.39,11.49,11.49,0,0,1,.77,4.35,13.25,13.25,0,0,1-1.15,5.62,12,12,0,0,1-3.35,4.23,15.43,15.43,0,0,1-5.32,2.7A25,25,0,0,1,573.37,260.87Z"/><path d="M653.29,260.1H638.66V237.31a6,6,0,0,0-1.35-4.35,4.52,4.52,0,0,0-3.35-1.35,4.12,4.12,0,0,0-1.65.43,9.62,9.62,0,0,0-1.93,1.15,10.19,10.19,0,0,0-3.19,4.2V260.1H612.56V203.89h14.63v21.72a14.15,14.15,0,0,1,5.62-5.05,17.21,17.21,0,0,1,7.78-1.73,13.57,13.57,0,0,1,6.77,1.46,10.38,10.38,0,0,1,3.85,3.66,13,13,0,0,1,1.7,4.74,32.72,32.72,0,0,1,.38,4.77Z"/><path d="M680.32,260.87a25.51,25.51,0,0,1-9.47-1.65,20.14,20.14,0,0,1-7-4.51,19.41,19.41,0,0,1-4.28-6.54,21.08,21.08,0,0,1-1.46-7.78,24.21,24.21,0,0,1,1.43-8.32,19.34,19.34,0,0,1,4.23-6.85,20.48,20.48,0,0,1,6.93-4.66,27.33,27.33,0,0,1,19.14,0,20.76,20.76,0,0,1,7,4.62,19.05,19.05,0,0,1,4.24,6.7,22.57,22.57,0,0,1,1.42,8,23.51,23.51,0,0,1-.11,2.35c-.08.8-.17,1.5-.27,2.12H673.7a5.68,5.68,0,0,0,2.38,4.66,8.37,8.37,0,0,0,4.7,1.42,9.76,9.76,0,0,0,4.5-1.08,5.39,5.39,0,0,0,2.81-3l12.4,3.54a19.47,19.47,0,0,1-7.58,7.93A24,24,0,0,1,680.32,260.87Zm6.47-25.33a7.55,7.55,0,0,0-2.16-4.62,7,7,0,0,0-9.09,0,7.48,7.48,0,0,0-2.15,4.62Z"/><path d="M735.22,257.87a45.05,45.05,0,0,1-6.59,2.19,28,28,0,0,1-6.89.89,17.53,17.53,0,0,1-4.69-.62,10.07,10.07,0,0,1-3.89-2,9.44,9.44,0,0,1-2.62-3.62,14,14,0,0,1-1-5.54V230.61h-5v-11h5V206.9h14.63v12.7h7.93v11h-7.93V244a3.82,3.82,0,0,0,.84,2.81,3.22,3.22,0,0,0,2.31.81,10.45,10.45,0,0,0,2.47-.35,16.87,16.87,0,0,0,2.77-1Z"/><path d="M784.19,232.07a29.71,29.71,0,0,0-7.7.93,9.34,9.34,0,0,0-5.16,3.08v24H756.7V219.6h13.4v7.7a17.11,17.11,0,0,1,5.35-6.28,12,12,0,0,1,6.89-2.19,12.93,12.93,0,0,1,1.85.08Z"/><path d="M808.67,260.87a24.63,24.63,0,0,1-9.58-1.73,20.83,20.83,0,0,1-6.93-4.62,19.05,19.05,0,0,1-4.24-6.7,23.08,23.08,0,0,1,0-15.94,19.05,19.05,0,0,1,4.24-6.7,20.83,20.83,0,0,1,6.93-4.62,27.31,27.31,0,0,1,19.13,0,20.81,20.81,0,0,1,7,4.62,19.2,19.2,0,0,1,4.24,6.7,23.08,23.08,0,0,1,0,15.94,19.2,19.2,0,0,1-4.24,6.7,20.81,20.81,0,0,1-7,4.62A24.73,24.73,0,0,1,808.67,260.87Zm-7.16-21a9.41,9.41,0,0,0,2,6.39,6.91,6.91,0,0,0,10.31,0,11.21,11.21,0,0,0,0-12.78,6.91,6.91,0,0,0-10.31,0A9.41,9.41,0,0,0,801.51,239.85Z"/><path d="M901.3,260.1H886.67V237.31a6.46,6.46,0,0,0-1.19-4.35,3.73,3.73,0,0,0-2.89-1.35,6,6,0,0,0-3.73,1.62,9.46,9.46,0,0,0-2.89,4.16V260.1H861.34V237.31a6.52,6.52,0,0,0-1.19-4.35,3.73,3.73,0,0,0-2.89-1.35,6,6,0,0,0-3.73,1.62,9.38,9.38,0,0,0-2.89,4.16V260.1H836V219.6h13.17v6a13.74,13.74,0,0,1,5.92-5.05,21.38,21.38,0,0,1,8.94-1.73,14.32,14.32,0,0,1,4.31.58,10.35,10.35,0,0,1,3.19,1.58,8.75,8.75,0,0,1,2.16,2.23,11.13,11.13,0,0,1,1.27,2.62,14.57,14.57,0,0,1,5.89-5.16,19,19,0,0,1,8.51-1.85,11.68,11.68,0,0,1,6.35,1.5,10.31,10.31,0,0,1,3.58,3.74,14.34,14.34,0,0,1,1.62,4.77,30.5,30.5,0,0,1,.38,4.62Z"/><path d="M928.33,260.87a25.51,25.51,0,0,1-9.47-1.65,20.14,20.14,0,0,1-7-4.51,19.39,19.39,0,0,1-4.27-6.54,20.89,20.89,0,0,1-1.47-7.78,24.21,24.21,0,0,1,1.43-8.32,19.34,19.34,0,0,1,4.23-6.85,20.67,20.67,0,0,1,6.93-4.66,27.33,27.33,0,0,1,19.14,0,20.91,20.91,0,0,1,7,4.62,19.17,19.17,0,0,1,4.23,6.7,22.58,22.58,0,0,1,1.43,8c0,.77,0,1.55-.12,2.35s-.17,1.5-.27,2.12H921.71A5.69,5.69,0,0,0,924.1,249a8.31,8.31,0,0,0,4.69,1.42,9.83,9.83,0,0,0,4.51-1.08,5.43,5.43,0,0,0,2.81-3l12.39,3.54a19.47,19.47,0,0,1-7.58,7.93A24,24,0,0,1,928.33,260.87Zm6.47-25.33a7.55,7.55,0,0,0-2.16-4.62,6.94,6.94,0,0,0-9.08,0,7.55,7.55,0,0,0-2.16,4.62Z"/><path d="M955.28,216.21V203.89h14.63v12.32Zm0,43.89V219.6h14.63v40.5Z"/><path d="M1018,260.1H1003.4V237.31a6,6,0,0,0-1.34-4.35,4.28,4.28,0,0,0-3.12-1.35,6.54,6.54,0,0,0-3.93,1.62,9.6,9.6,0,0,0-3.08,4.16V260.1H977.3V219.6h13.17v6a13.67,13.67,0,0,1,6-5.05,22.54,22.54,0,0,1,9.2-1.73,12.46,12.46,0,0,1,6.59,1.5,10.39,10.39,0,0,1,3.69,3.74,13.77,13.77,0,0,1,1.66,4.77,30.5,30.5,0,0,1,.38,4.62Z"/><path d="M1041.83,260.87a32.18,32.18,0,0,1-10.4-1.73,23.69,23.69,0,0,1-8.62-5l5-8.78a38.48,38.48,0,0,0,7.28,3.92,17.49,17.49,0,0,0,6.43,1.39c2,0,3.08-.64,3.08-1.92a2.21,2.21,0,0,0-1.19-1.85,20,20,0,0,0-4.66-1.77,66.33,66.33,0,0,1-7.2-2.43,20.38,20.38,0,0,1-4.7-2.58,8.12,8.12,0,0,1-2.58-3.08,9.64,9.64,0,0,1-.77-4,13.26,13.26,0,0,1,1.23-5.7,13.84,13.84,0,0,1,3.43-4.54,15.36,15.36,0,0,1,5.24-3,20.49,20.49,0,0,1,6.66-1,30.78,30.78,0,0,1,8.5,1.16,21.64,21.64,0,0,1,8.13,4.69l-5.55,8.78a39.56,39.56,0,0,0-6.31-3.5,12.7,12.7,0,0,0-4.77-1,4.21,4.21,0,0,0-2.16.5,1.7,1.7,0,0,0-.85,1.58,2.16,2.16,0,0,0,1.24,1.89,21.23,21.23,0,0,0,4.85,1.65,55.21,55.21,0,0,1,7.39,2.43,19.24,19.24,0,0,1,4.81,2.77,8.59,8.59,0,0,1,2.58,3.39,11.49,11.49,0,0,1,.77,4.35,13.25,13.25,0,0,1-1.15,5.62,12,12,0,0,1-3.35,4.23,15.43,15.43,0,0,1-5.32,2.7A25,25,0,0,1,1041.83,260.87Z"/><path d="M1083.64,260.87a25.47,25.47,0,0,1-9.47-1.65,20,20,0,0,1-7-4.51,19.41,19.41,0,0,1-4.28-6.54,21.08,21.08,0,0,1-1.46-7.78,24.21,24.21,0,0,1,1.43-8.32,19.2,19.2,0,0,1,4.23-6.85,20.48,20.48,0,0,1,6.93-4.66,27.31,27.31,0,0,1,19.13,0,20.71,20.71,0,0,1,7,4.62,19.05,19.05,0,0,1,4.24,6.7,22.57,22.57,0,0,1,1.42,8c0,.77,0,1.55-.11,2.35s-.17,1.5-.27,2.12H1077a5.71,5.71,0,0,0,2.39,4.66,8.37,8.37,0,0,0,4.7,1.42,9.76,9.76,0,0,0,4.5-1.08,5.43,5.43,0,0,0,2.81-3l12.4,3.54a19.47,19.47,0,0,1-7.58,7.93A24,24,0,0,1,1083.64,260.87Zm6.47-25.33a7.55,7.55,0,0,0-2.16-4.62,7,7,0,0,0-9.09,0,7.48,7.48,0,0,0-2.15,4.62Z"/><path d="M1155.4,232.07a29.71,29.71,0,0,0-7.7.93,9.34,9.34,0,0,0-5.16,3.08v24h-14.63V219.6h13.4v7.7a17.2,17.2,0,0,1,5.35-6.28,12,12,0,0,1,6.89-2.19,12.93,12.93,0,0,1,1.85.08Z"/><path d="M1159.94,216.21V203.89h14.63v12.32Zm0,43.89V219.6h14.63v40.5Z"/><path d="M1181,276.19a17.62,17.62,0,0,1-6.16-1.07,17.87,17.87,0,0,1-5.31-3.08l6-9.94a4.64,4.64,0,0,0,3.62,1.54q3.07,0,3.08-3.31V219.6h14.63v39.58a19.73,19.73,0,0,1-1.15,6.89,15.83,15.83,0,0,1-3.28,5.39,14.51,14.51,0,0,1-5,3.5A16.32,16.32,0,0,1,1181,276.19Zm1.23-60V203.89h14.63v12.32Z"/><path d="M1231,260.1l-9.16-14.78-2.93,3.23V260.1h-14.63V203.89h14.63v30.72l10.78-15h15.4l-13.93,17.71,15.32,22.79Z"/><path d="M1249.26,260.1V245.93h11.86V260.1Z"/></g></svg>