<svg id="Laag_2" data-name="Laag 2" xmlns="http://www.w3.org/2000/svg" viewBox="0 0 595.28 841.89"><defs><style>.cls-1{fill:#c2a89d;}.cls-2{fill:#1d1d1b;}.cls-3{fill:#e5c2a8;}.cls-4{fill:#efe7dc;}.cls-5{fill:#496f76;}.cls-6{fill:#e3e5e5;}.cls-7{fill:#eecfb4;}.cls-8{fill:#edc9ae;}.cls-9{fill:#3f3c38;}.cls-10{fill:#dbb8a1;}.cls-11{fill:#704737;}.cls-12{fill:#4a2f24;}.cls-13{fill:#38241c;}</style></defs><path class="cls-1" d="M340.73,61.47c0-8-10-24.19-17.78-30.6s-32-37-120.25-27.74S102.38,98.47,102.38,98.47"/><path class="cls-1" d="M3.13,238.63s-34.87-83.95,116-147.28,254.72-22,254.72-22,133.76,44.11,74.71,148-283.18,106-283.18,106S67.87,350.34,3.13,238.63Z"/><path class="cls-2" d="M93.82,318.6s-30.61,31.15-32.16,45.53c0,0,7.81-15.05,13.17-18.4,0,0-15.06,23.09-15.73,38.48s4,37.14,4,37.14l11,21.08,83.64-58.22-8.36-78.29L129.7,240.67,120,200.19l-20.19-6.36s-11.6,19.07-11.6,27.77-2.34,20.08-.33,28.77,6.69,15.06,8,21.75,5.68,6.69,6.35,15.39,5,12.38,6.16,19.07S93.82,318.6,93.82,318.6Z"/><polygon class="cls-3" points="50.23 693.7 55.52 713.04 131.06 713.04 115.33 671.56 50.23 693.7"/><path class="cls-4" d="M595.28,594.13V713H522.51L444.87,571.57s-10.21-16.64-22-19.34-26.58-14.75-26.58-14.75S367.8,511.42,352,492.91c-14.66-17.16-74.54-34.72-83.47-37.26a2.81,2.81,0,0,1-1.78-1.45c-1.41-2.6-3.92-9.15,3.73-13a2.31,2.31,0,0,1,1.48-.23c3.09.59,14.89,2.9,23.65,5,10.21,2.44,14.53-1,19.07.27a.86.86,0,0,0,.56,0,.44.44,0,0,0,.13-.33c.46-3.13-12.94-24.48,19.8-26.52h.2l-.13-.2c-1.36-2-12-18.94,11.13-22.82v0c.06,0,.16,0,.26,0a1,1,0,0,1-.06-.23c-.43-2.44-3.5-23.72,26.12-20.42A149.18,149.18,0,0,0,403,381.21a62.91,62.91,0,0,1,27.67,8.86s18.78,9.39,25-4.31,8-29.78,8-29.78-1.54-19,10.28-29.81,24.71,0,24.71,0,1.87,9.39-.27,12.88-2.7,15.32-2.7,15.32,1.61,17.16,1.09,21.21-2.87,13.77-3,25a29.69,29.69,0,0,1-3.22,13.67s0,26.88-1.06,32.24,2.41,25.24,9.13,34.1,28.19,38.11,28.19,38.11S569.55,577.76,595.28,594.13Z"/><path class="cls-5" d="M595.28,435.46V594.13c-25.73-16.37-68.52-75.46-68.52-75.46s-21.48-29.25-28.19-38.11-10.22-28.73-9.13-34.1,1.06-32.24,1.06-32.24a34.3,34.3,0,0,0,3.22-13.67c.26-8.29,2.44-20.95,3-25s-1.09-21.21-1.09-21.21.56-11.83,2.7-15.32.27-12.88.27-12.88-12.88-10.74-24.71,0S463.58,356,463.58,356s-1.81,16.11-8,29.78-25,4.31-25,4.31A62.91,62.91,0,0,0,403,381.21a149.18,149.18,0,0,1-30.33-5.63c-31.43-3.49-26.06,20.65-26.06,20.65-25,4-11.26,23.09-11.26,23.09-36.53,2.18-16.11,28.2-20.69,26.85s-8.86,2.17-19.07-.27-24.41-5.1-24.41-5.1c-10.74,4.84-3.79,14.52-3.79,14.52s68.75,19,84.59,37.59,44.31,44.57,44.31,44.57,14.79,12.08,26.58,14.75,22,19.34,22,19.34L522.51,713H131.06l-11.79-31.39c-19,12.82-90.19,13.31-90.19,11.27S26.51,680.63,26.51,675,7,609.38,8.59,599.14c.59-4-.63-17.62-2.37-32.78-4.94-43.54,5.89-87.78,31.72-123.26,7.9-10.87,16.11-19.13,23.72-21.21,23.71-6.45,76.61-41.37,89.13-49.8,1.75-1.16,2.7-1.81,2.7-1.81l175.44-56.1s20.39,3.06,25.79,2.37,8.56-.23,18.68,0,27.24.23,94.73,0S595.28,435.46,595.28,435.46Z"/><path class="cls-6" d="M332.32,351.76c-1,7.91-2.27,15.29-2.14,21.48a42,42,0,0,1-1,8.43c-3.85,19.8-18.05,54.71-18.05,54.71a107.86,107.86,0,0,1-10.44,21.28c-11.07,17.89-31.88,41.57-66.87,48.29-16.4,3.17-28.16,3.49-36.63,2.21-21.57-3.23-21.7-16.83-23.22-20.19-2.34-5.17-6.78-18.68-12.55-32.55s-13.93-35-16-42.49c-.17-.56-.3-1.18-.46-1.88A111.11,111.11,0,0,1,142.75,391a25.18,25.18,0,0,1,.6-6.55c0-.14.06-.23.09-.33a11.18,11.18,0,0,0,.56-7.35v-.06l0,0,.07,0,9.45-6.32,6.59-2.15L199.8,440.8l60.12,10.84,40.38-62.46,18.12-63,5-5.67,5.54-6.32C334.72,326.3,333.83,339.64,332.32,351.76Z"/><path class="cls-7" d="M376,177.38l-8.57-2.27s5.5,28.06-12.91,42.69c0,0-4,70.19-25.59,96.38-1.39,1.65-2.67,3.19-3.86,4.58-.23.26-.46.52-.69.76-3.52,4.11-6,6.65-6,6.65l-1.75,18.61c-.49,6.09-6.12,22.93-6.62,42.29s-10.7,53-26,74.48-52.51,29.05-71.87,32.61-25.5-8.14-25.5-8.14-28.06-46.93-33.17-115.74a418.44,418.44,0,0,0-5.24-41.74c-8.23-46.18-21.57-76.45-21.57-76.45s-27.87,9.06-35.08-27.61c-4.75-24.21,22.33-52.8,54.87-70.52A153.4,153.4,0,0,1,177,141.25a103,103,0,0,1,20.42-3.89c47.17-3.79,132.22-8.43,172.8,30.27l7.11,1.19Z"/><path class="cls-8" d="M324.38,319.52c-3.52,4.11-6,6.65-6,6.65l-1.75,18.61c-.49,6.09-6.12,22.93-6.62,42.29s-10.7,53-26,74.48-52.51,29.05-71.87,32.61-25.5-8.14-25.5-8.14-28.06-46.93-33.17-115.74a418.44,418.44,0,0,0-5.24-41.74L144.52,310c25.27,16.3,65.17,31.85,105.55,39.56,34.36,6.59,65-20.79,73.32-29.09Z"/><path class="cls-3" d="M595.28,594.13V713H522.51L444.87,571.57s-10.21-16.64-22-19.34-26.58-14.75-26.58-14.75S367.8,511.42,352,492.91c-14.66-17.16-74.54-34.72-83.47-37.26a2.81,2.81,0,0,1-1.78-1.45c-1.41-2.6-3.92-9.15,3.73-13a2.31,2.31,0,0,1,1.48-.23c3.09.59,14.89,2.9,23.65,5,10.21,2.44,14.53-1,19.07.27a.86.86,0,0,0,.56,0,.44.44,0,0,0,.13-.33c.46-3.13-12.94-24.48,19.8-26.52h.2l-.13-.2c-1.36-2-12-18.94,11.13-22.82v0c.06,0,.16,0,.26,0a1,1,0,0,1-.06-.23c-.43-2.44-3.5-23.72,26.12-20.42A149.18,149.18,0,0,0,403,381.21a62.91,62.91,0,0,1,27.67,8.86s18.78,9.39,25-4.31,8-29.78,8-29.78-1.54-19,10.28-29.81,24.71,0,24.71,0,1.87,9.39-.27,12.88-2.7,15.32-2.7,15.32,1.61,17.16,1.09,21.21-2.87,13.77-3,25a29.69,29.69,0,0,1-3.22,13.67s0,26.88-1.06,32.24,2.41,25.24,9.13,34.1,28.19,38.11,28.19,38.11S569.55,577.76,595.28,594.13Z"/><path class="cls-9" d="M270.74,443.78a12.74,12.74,0,0,0-2.52,9.94s14,5.86,17.15,1-3.9-8.41-6.45-9.17S270.74,443.78,270.74,443.78Z"/><path class="cls-10" d="M361.41,464.35l-.27.2a32.53,32.53,0,0,0-13-7.94c-8.33-2.9-31.32-9.95-33-10.44a.44.44,0,0,0,.13-.33c1.85.56,24.67,7.54,32.94,10.44A33.22,33.22,0,0,1,361.41,464.35Z"/><path class="cls-10" d="M356.93,425.58l-.1.3-21.71-6.49v-.07h.2l-.13-.2v-.06Z"/><path class="cls-10" d="M374.22,399.79l0,.33-27.87-3.82v0c.06,0,.16,0,.26,0a1,1,0,0,1-.06-.23Z"/><path class="cls-9" d="M499,328.9l-1.21.27s-7.86,2.32-9.94,5.78-2.55,5.78-1.16,7.63,10.3.33,10.3.33a29.84,29.84,0,0,1,1.48-4.05c.68-1.22.93-4.86.93-4.86Z"/><polygon class="cls-11" points="364.22 166.6 377.31 168.83 376 177.39 367.45 175.12 364.22 166.6"/><polygon class="cls-11" points="181.26 140.09 194.04 141.02 190.91 148.26 176.98 148.26 176.98 141.25 181.26 140.09"/><path class="cls-12" d="M177,141.25v7l-35.42,8.49,4.91-2.79A153.4,153.4,0,0,1,177,141.25Z"/><path class="cls-13" d="M193.68,141.25A22.24,22.24,0,0,0,184,161c.85,15.43,6.79,48.07,41.65,48.62,45.67.73,45.31-45,45.31-45s11.7-6.88,23.8,2.73c0,0-12.81,52,33.11,56.6,23.78,2.4,33.91-10.48,38.15-23.46,5.2-15.9,2-33.69-9.31-46-5.25-5.72-12.46-10.46-22.07-11C309,142.08,298,157.39,298,157.39a40.06,40.06,0,0,0-29.61-2.7S242.1,111.11,194,141Z"/><path class="cls-11" d="M260.28,150.3c-8.66-9.78-30.5-27.51-62.48-6A21.94,21.94,0,0,0,188,163.49c.55,12.38,5,31.09,25.09,40.95,0,0,50.19,15.94,53.84-38.84a25.74,25.74,0,0,0-.33-3.19C266,157.82,263.35,153.76,260.28,150.3Z"/><path class="cls-11" d="M308.57,153.65c11.26-6.32,31.87-13.73,47.08,4.8a41.39,41.39,0,0,1,8.86,30C363,205,354.36,228,316.36,217.9c0,0-25-7.77-17.84-49.92A20.32,20.32,0,0,1,308.57,153.65Z"/></svg>